<svg width="60" height="104" viewBox="0 0 60 104" fill="none" xmlns="http://www.w3.org/2000/svg">
<path d="M55.3951 70.9897C54.9689 69.7113 53.7404 68.8449 52.3551 68.8449H49.93V62.037C49.93 61.5747 49.5558 61.1999 49.0943 61.1999H44.0973C43.6358 61.1999 43.2616 61.5747 43.2616 62.037V66.1316C43.2616 66.5939 42.8874 66.9687 42.4259 66.9687H37.4289C36.9674 66.9687 36.5932 66.5939 36.5932 66.1316V52.8371C36.5932 52.3748 36.2191 52 35.7576 52H30.7605C30.299 52 29.9248 52.3748 29.9248 52.8371V68.0081C29.9248 68.4704 29.5507 68.8452 29.0892 68.8452H24.2424C23.7809 68.8452 23.4067 68.4704 23.4067 68.0081V66.5054C23.4067 66.043 23.0326 65.6683 22.5711 65.6683H17.574C17.1125 65.6683 16.7383 65.2935 16.7383 64.8312V58.436C16.7383 57.9737 16.3642 57.5989 15.9027 57.5989H10.9056C10.4441 57.5989 10.07 57.9737 10.07 58.436V68.8449H7.64485C6.25974 68.8449 5.03124 69.7113 4.60488 70.9897L1.06543 81.8124H58.937L55.3951 70.9897Z" fill="#29CEF6"/>
<path d="M55.3953 70.9895C54.9691 69.7111 53.7406 68.8447 52.3553 68.8447H50.554C49.46 68.8447 48.7379 69.9428 49.1204 70.9694C49.1228 70.9763 49.1252 70.983 49.1275 70.9895L52.6687 81.8122H58.9366L55.3953 70.9895Z" fill="#22B5ED"/>
<path d="M49.0945 47.4824H44.0974C43.6359 47.4824 43.2617 47.8572 43.2617 48.3195V53.7001C43.2617 54.1624 43.6359 54.5372 44.0974 54.5372H49.0945C49.556 54.5372 49.9301 54.1624 49.9301 53.7001V48.3195C49.9301 47.8572 49.556 47.4824 49.0945 47.4824Z" fill="#22B5ED"/>
<path d="M49.0945 31.4424H44.0974C43.6359 31.4424 43.2617 31.8171 43.2617 32.2795V40.7219C43.2617 41.1843 43.6359 41.559 44.0974 41.559H49.0945C49.556 41.559 49.9301 41.1843 49.9301 40.7219V32.2795C49.9301 31.8171 49.556 31.4424 49.0945 31.4424Z" fill="#22B5ED"/>
<path d="M35.7575 31.4424H30.7605C30.299 31.4424 29.9248 31.8171 29.9248 32.2795V42.6399C29.9248 43.1022 30.299 43.4769 30.7605 43.4769H35.7575C36.219 43.4769 36.5932 43.1022 36.5932 42.6399V32.2795C36.5934 31.8171 36.2192 31.4424 35.7575 31.4424Z" fill="#22B5ED"/>
<path d="M22.7446 42.6396H17.7475C17.286 42.6396 16.9119 43.0144 16.9119 43.4767V50.4074C16.9119 50.8697 17.286 51.2444 17.7475 51.2444H22.7446C23.2061 51.2444 23.5803 50.8697 23.5803 50.4074V43.4767C23.5803 43.0144 23.2061 42.6396 22.7446 42.6396Z" fill="#22B5ED"/>
<path d="M54.65 104H5.34997C2.80948 104 0.75 101.941 0.75 99.4002V83.4896C0.75 80.9491 2.80948 78.8896 5.34997 78.8896H54.6498C57.1903 78.8896 59.2498 80.9491 59.2498 83.4896V99.4002C59.25 101.941 57.1905 104 54.65 104Z" fill="#A9DBF5"/>
<path d="M54.6533 78.8896H48.3855C50.924 78.8896 52.982 80.9508 52.982 83.4933V99.3967C52.982 101.939 50.9242 104 48.3855 104H54.6533C57.192 104 59.2498 101.939 59.2498 99.3967V83.4933C59.2498 80.9508 57.192 78.8896 54.6533 78.8896Z" fill="#88C3E0"/>
<path d="M7.01782 96.8861V86.0035C7.01782 85.5416 7.39218 85.167 7.85409 85.167H52.1457C52.6076 85.167 52.982 85.5414 52.982 86.0035V96.8861C52.982 97.348 52.6076 97.7226 52.1457 97.7226H7.85429C7.39239 97.7226 7.01782 97.348 7.01782 96.8861Z" fill="#43809F"/>
<path d="M16.6272 91.8632C14.8964 91.8632 13.4932 90.46 13.4932 88.7292V85.167H19.761V88.7292C19.7612 90.46 18.358 91.8632 16.6272 91.8632Z" fill="#F78E36"/>
<path d="M27.0752 91.8632C25.3444 91.8632 23.9412 90.46 23.9412 88.7292V85.167H30.209V88.7292C30.2092 90.46 28.806 91.8632 27.0752 91.8632Z" fill="#F78E36"/>
<path d="M58.9364 12.9675H1.06543L4.60468 2.1448C5.03063 0.866328 6.25913 0 7.64444 0H52.3551C53.7402 0 54.9687 0.866328 55.3951 2.1448L58.9364 12.9675Z" fill="#29CEF6"/>
<path d="M55.3952 2.1448C54.969 0.866328 53.7405 0 52.3552 0H46.0874C47.4725 0 48.701 0.866328 49.1274 2.1448L52.6687 12.9675H58.9365L55.3952 2.1448Z" fill="#22B5ED"/>
<path d="M54.65 35.1545H5.34997C2.80948 35.1545 0.75 33.095 0.75 30.5545V14.6439C0.75 12.1034 2.80948 10.0439 5.34997 10.0439H54.6498C57.1903 10.0439 59.2498 12.1034 59.2498 14.6439V30.5545C59.25 33.095 57.1905 35.1545 54.65 35.1545Z" fill="#A9DBF5"/>
<path d="M54.6533 10.0439H48.3855C50.924 10.0439 52.982 12.1051 52.982 14.6476V30.551C52.982 33.0936 50.9242 35.1547 48.3855 35.1547H54.6533C57.1918 35.1547 59.2498 33.0936 59.2498 30.551V14.6476C59.2498 12.1051 57.192 10.0439 54.6533 10.0439Z" fill="#88C3E0"/>
<path d="M7.01782 28.0412V17.1587C7.01782 16.6968 7.39218 16.3223 7.85409 16.3223H52.1457C52.6076 16.3223 52.982 16.6966 52.982 17.1587V28.0414C52.982 28.5033 52.6076 28.8778 52.1457 28.8778H7.85429C7.39239 28.8776 7.01782 28.5033 7.01782 28.0412Z" fill="#43809F"/>
<path d="M16.6272 23.0185C14.8964 23.0185 13.4932 21.6153 13.4932 19.8845V16.3223H19.761V19.8845C19.7612 21.6153 18.358 23.0185 16.6272 23.0185Z" fill="#F78E36"/>
<path d="M27.0752 23.0185C25.3444 23.0185 23.9412 21.6153 23.9412 19.8845V16.3223H30.209V19.8845C30.2092 21.6153 28.806 23.0185 27.0752 23.0185Z" fill="#F78E36"/>
</svg>
