<svg width="130" height="130" viewBox="0 0 130 130" fill="none" xmlns="http://www.w3.org/2000/svg">
<path d="M115.981 117.689L14.0219 117.692C11.1187 117.692 8.76498 115.338 8.76473 112.435L8.7627 43.7104C8.7627 40.8072 11.1162 38.4535 14.0193 38.4532L115.978 38.4502C118.882 38.4502 121.235 40.8037 121.236 43.7068L121.238 112.432C121.238 115.335 118.884 117.689 115.981 117.689V117.689Z" fill="#4380A0"/>
<path d="M121.238 112.407C121.238 115.323 118.897 117.69 116.006 117.69H108.159C111.049 117.69 113.391 115.323 113.391 112.407L113.388 43.7339C113.388 40.8204 111.055 38.459 108.17 38.4512H116.004C118.894 38.4512 121.235 40.8153 121.235 43.7339L121.238 112.407Z" fill="#3B7191"/>
<path d="M113.39 108.74C113.39 109.306 112.936 109.765 112.375 109.765H105.543L17.628 109.768C17.0671 109.768 16.6124 109.309 16.6124 108.742L16.6099 47.4031C16.6099 46.8366 17.0646 46.3775 17.6255 46.3775L105.541 46.375H112.372C112.933 46.375 113.388 46.8341 113.388 47.4005L113.39 108.74Z" fill="#F3F3F3"/>
<path d="M112.374 109.765H105.543L105.541 46.375H112.372C112.933 46.375 113.388 46.8341 113.388 47.4005L113.39 108.74C113.39 109.306 112.936 109.765 112.374 109.765Z" fill="#E4E4E4"/>
<path d="M123.199 130H6.80088C3.04484 130 0 126.955 0 123.199V117.967C0 117.389 0.468457 116.921 1.04635 116.921H128.954C129.532 116.921 130 117.389 130 117.967V123.199C130 126.955 126.955 130 123.199 130Z" fill="#A9DBF5"/>
<path d="M128.954 116.922H121.107C121.684 116.922 122.153 117.39 122.153 117.968V123.2C122.153 126.956 119.108 130.001 115.352 130.001H123.199C126.955 130 130 126.955 130 123.199V117.968C130 117.39 129.531 116.922 128.954 116.922Z" fill="#88C3E0"/>
<path d="M73.8932 123.199H56.1066C54.3731 123.199 52.9678 121.794 52.9678 120.061V116.922H77.032V120.061C77.032 121.794 75.6266 123.199 73.8932 123.199V123.199Z" fill="#88C3E0"/>
<path d="M51.7469 0H45.7016C45.1237 0 44.6553 0.468457 44.6553 1.04635V9.4151C44.6553 9.99299 45.1237 10.4614 45.7016 10.4614H51.7469C52.3248 10.4614 52.7932 9.99299 52.7932 9.4151V1.04635C52.7932 0.468457 52.3248 0 51.7469 0V0Z" fill="white"/>
<path d="M35.4715 10.4609H29.4262C28.8483 10.4609 28.3799 10.9294 28.3799 11.5073V22.7464C28.3799 23.3243 28.8483 23.7928 29.4262 23.7928H35.4715C36.0494 23.7928 36.5178 23.3243 36.5178 22.7464V11.5073C36.5178 10.9294 36.0494 10.4609 35.4715 10.4609Z" fill="white"/>
<path d="M68.284 13.8232H62.2387C61.6608 13.8232 61.1924 14.2917 61.1924 14.8696V26.1087C61.1924 26.6866 61.6608 27.1551 62.2387 27.1551H68.284C68.8619 27.1551 69.3303 26.6866 69.3303 26.1087V14.8696C69.3303 14.2917 68.8619 13.8232 68.284 13.8232V13.8232Z" fill="white"/>
<path d="M93.4814 10.1176V21.3568C93.4814 21.9347 93.9499 22.4031 94.5278 22.4031H100.573C101.151 22.4031 101.619 21.9347 101.619 21.3568V10.1176C101.619 9.53975 101.151 9.07129 100.573 9.07129H94.5278C93.9499 9.07129 93.4814 9.53975 93.4814 10.1176Z" fill="white"/>
<path d="M84.2977 2.14355H78.2524C77.6745 2.14355 77.2061 2.61201 77.2061 3.1899V19.4427C77.2061 20.0206 77.6745 20.489 78.2524 20.489H84.2977C84.8756 20.489 85.344 20.0206 85.344 19.4427V3.18965C85.344 2.61201 84.8756 2.14355 84.2977 2.14355V2.14355Z" fill="white"/>
<path d="M92.4357 58.2008H86.3904C85.8125 58.2008 85.3441 57.7323 85.3441 57.1544V33.7715C85.3441 33.1936 84.8756 32.7251 84.2977 32.7251H78.2525C77.6746 32.7251 77.2061 33.1936 77.2061 33.7715V52.2256C77.2061 52.8035 76.7376 53.272 76.1598 53.272H70.1145C69.5366 53.272 69.0682 52.8035 69.0682 52.2256V39.4973C69.0682 38.9194 68.5997 38.451 68.0218 38.451H61.9766C61.3987 38.451 60.9302 38.9194 60.9302 39.4973V45.2518C60.9302 45.8297 60.4618 46.2982 59.8839 46.2982H53.8386C53.2607 46.2982 52.7923 45.8297 52.7923 45.2518V23.4497C52.7923 22.8718 52.3238 22.4033 51.7459 22.4033H45.7007C45.1228 22.4033 44.6543 22.8718 44.6543 23.4497V55.0884C44.6543 55.6663 44.1859 56.1348 43.608 56.1348H37.5627C36.9848 56.1348 36.5164 55.6663 36.5164 55.0884V33.7715C36.5164 33.1936 36.0479 32.7251 35.47 32.7251H29.4248C28.8469 32.7251 28.3784 33.1936 28.3784 33.7715V72.7722C28.3784 73.3501 28.8469 73.8186 29.4248 73.8186H100.572C101.149 73.8186 101.618 73.3501 101.618 72.7722V33.7715C101.618 33.1936 101.149 32.7251 100.572 32.7251H94.5263C93.9484 32.7251 93.48 33.1936 93.48 33.7715V57.1544C93.4817 57.7323 93.0133 58.2008 92.4357 58.2008V58.2008Z" fill="#A8BAC9"/>
<path d="M95.8651 96.3884H34.1349C30.9568 96.3884 28.3804 93.812 28.3804 90.6339V70.7545C28.3804 67.5764 30.9568 65 34.1349 65H95.8653C99.0435 65 101.62 67.5764 101.62 70.7545V90.6339C101.62 93.812 99.0432 96.3884 95.8651 96.3884V96.3884Z" fill="#A9DBF5"/>
<path d="M95.865 65H88.0181C91.1962 65 93.7726 67.5764 93.7726 70.7545V90.6339C93.7726 93.812 91.1962 96.3884 88.0181 96.3884H95.865C99.0432 96.3884 101.62 93.812 101.62 90.6339V70.7545C101.62 67.5764 99.0432 65 95.865 65V65Z" fill="#88C3E0"/>
<path d="M36.2275 87.4955V73.894C36.2275 73.3161 36.696 72.8477 37.2739 72.8477H92.7265C93.3044 72.8477 93.7729 73.3161 93.7729 73.894V87.4955C93.7729 88.0734 93.3044 88.5419 92.7265 88.5419H37.2739C36.696 88.5416 36.2275 88.0732 36.2275 87.4955Z" fill="#43809F"/>
<path d="M48.2576 81.217C46.0908 81.217 44.334 79.4604 44.334 77.2933V72.8467H52.181V77.2933C52.1812 79.4604 50.4247 81.217 48.2576 81.217Z" fill="#FF9F22"/>
<path d="M61.3377 81.217C59.1708 81.217 57.4141 79.4604 57.4141 77.2933V72.8467H65.261V77.2933C65.2613 79.4604 63.5048 81.217 61.3377 81.217Z" fill="#FF9F22"/>
</svg>
