<svg width="49" height="28" viewBox="0 0 49 28" fill="none" xmlns="http://www.w3.org/2000/svg">
<path d="M0 4C0 1.79086 1.79086 0 4 0H49V24C49 26.2091 47.2091 28 45 28H0V4Z" fill="#4584FF"/>
<path d="M14.882 13.669H17.888V10.339H20.336V13.669H23.342V15.919H20.336V19.249H17.888V15.919H14.882V13.669ZM25.4905 10.285C25.8385 10.141 26.1985 9.97899 26.5705 9.79899C26.9545 9.60699 27.3265 9.40299 27.6865 9.18699C28.0465 8.95899 28.3885 8.72499 28.7125 8.48499C29.0485 8.23299 29.3485 7.96899 29.6125 7.69299H31.4845V20.167H28.8025V11.185C28.4425 11.425 28.0405 11.647 27.5965 11.851C27.1525 12.043 26.7205 12.211 26.3005 12.355L25.4905 10.285Z" fill="white"/>
</svg>
