<svg width="216" height="201" viewBox="0 0 216 201" fill="none" xmlns="http://www.w3.org/2000/svg">
<path d="M34.6196 97.3594H110.15V103.641H34.6196V97.3594Z" fill="#4197CD"/>
<path d="M93.4952 26.0459L80.9063 13.4834L76.4561 17.9242L80.5255 21.9851L72.3867 30.1067L76.8369 34.5476L84.9757 26.4259L89.045 30.4867L93.4952 26.0459Z" fill="#969696"/>
<path d="M62.945 20.1471V6.28125H44.0615V20.144" fill="#969696"/>
<path d="M53.5034 87.9375C72.6233 87.9375 88.1231 72.4703 88.1231 53.3906C88.1231 34.3109 72.6233 18.8438 53.5034 18.8438C34.3835 18.8438 18.8838 34.3109 18.8838 53.3906C18.8838 72.4703 34.3835 87.9375 53.5034 87.9375Z" fill="#4084C1"/>
<path d="M53.5032 18.8438C44.7444 18.8438 36.7693 22.1163 30.6731 27.4679C25.3102 33.5513 22.0308 41.5096 22.0308 50.25C22.0308 69.3293 37.5309 84.7969 56.6504 84.7969C65.4092 84.7969 73.3843 81.5243 79.4805 76.1727C84.8434 70.0893 88.1228 62.131 88.1228 53.3906C88.1228 34.3113 72.6226 18.8438 53.5032 18.8438Z" fill="#59A2D8"/>
<path d="M53.5031 78.5156C67.4085 78.5156 78.681 67.2668 78.681 53.3906C78.681 39.5145 67.4085 28.2656 53.5031 28.2656C39.5977 28.2656 28.3252 39.5145 28.3252 53.3906C28.3252 67.2668 39.5977 78.5156 53.5031 78.5156Z" fill="white"/>
<path d="M9.44189 141.328H44.0615V147.609H9.44189V141.328Z" fill="#92E0F7"/>
<path d="M31.4727 125.625H56.6506V131.906H31.4727V125.625Z" fill="#4197CD"/>
<path d="M3.14746 109.922H47.2088V116.203H3.14746V109.922Z" fill="#92E0F7"/>
<path d="M53.503 47.1094C50.0316 47.1094 47.2085 49.9265 47.2085 53.3906C47.2085 53.9497 47.3061 54.4804 47.4446 54.9986L38.689 63.7327L43.1392 68.1735L51.8948 59.4395C52.4109 59.5745 52.9428 59.6719 53.503 59.6719C56.9744 59.6719 59.7975 56.8547 59.7975 53.3906C59.7975 49.9265 56.9744 47.1094 53.503 47.1094Z" fill="#4084C1"/>
<path d="M53.5036 81.6562C46.5954 81.6562 39.9421 79.1469 34.7681 74.5898L38.935 69.882C42.954 73.4247 48.1312 75.375 53.5036 75.375C65.6488 75.375 75.5343 65.5134 75.5343 53.3906C75.5343 41.2678 65.6488 31.4062 53.5036 31.4062V25.125C69.1233 25.125 81.8287 37.8068 81.8287 53.3906C81.8287 68.9744 69.1233 81.6562 53.5036 81.6562Z" fill="#FF9F22"/>
<rect width="125.189" height="58.9436" transform="matrix(0.719036 -0.694973 0.696484 0.717572 53.0063 146.51)" fill="#D4EAFC"/>
<rect width="34.997" height="58.9423" transform="matrix(0.719036 -0.694973 0.696484 0.717572 117.858 83.8291)" fill="white"/>
<rect width="20.262" height="5.26286" transform="matrix(0.719036 -0.694973 0.696484 0.717572 90.1035 179.819)" fill="#88C3E0"/>
<rect width="43.9452" height="5.26289" transform="matrix(0.719036 -0.694973 0.696484 0.717573 107.132 163.361)" fill="#A9DBF5"/>
<rect width="43.9442" height="32.103" transform="matrix(0.719036 -0.694973 0.696484 0.717572 82.9414 138.438)" fill="#88C3E0"/>
<rect width="118.745" height="5.26291" transform="matrix(0.719036 -0.694973 0.696484 0.717573 58.3071 147.061)" fill="#A9DBF5"/>
<rect width="11.249" height="18.9458" transform="matrix(0.719036 -0.694973 0.696484 0.717572 129.368 115.522)" fill="#88C3E0"/>
<rect width="11.2492" height="16.3146" transform="matrix(-0.696484 -0.717572 0.719036 -0.694973 120.467 109.989)" fill="#88C3E0"/>
<rect width="11.2492" height="16.3146" transform="matrix(-0.696484 -0.717572 0.719036 -0.694973 69.853 158.955)" fill="#88C3E0"/>
<rect width="47.695" height="5.2629" transform="matrix(0.719036 -0.694973 0.696484 0.717572 141.19 130.442)" fill="#88C3E0"/>
<rect width="16.3144" height="29.1422" transform="matrix(0.719036 -0.694973 0.696484 0.717572 69.8066 158.909)" fill="#D4EAFC"/>
<rect opacity="0.5" width="125.189" height="58.9436" transform="matrix(0.719036 -0.694973 0.696484 0.717572 53.0063 146.51)" fill="#88C3E0"/>
<rect width="125.189" height="58.9436" transform="matrix(0.719036 -0.694973 0.696484 0.717572 80.835 154.443)" fill="#E1ECF5"/>
<rect width="34.997" height="58.9423" transform="matrix(0.719036 -0.694973 0.696484 0.717572 145.687 91.7617)" fill="white"/>
<rect width="20.262" height="5.26286" transform="matrix(0.719036 -0.694973 0.696484 0.717573 117.932 187.753)" fill="#88C3E0"/>
<rect width="43.9452" height="5.26289" transform="matrix(0.719036 -0.694973 0.696484 0.717573 134.961 171.295)" fill="#A9DBF5"/>
<rect width="43.9442" height="32.103" transform="matrix(0.719036 -0.694973 0.696484 0.717572 110.77 146.37)" fill="#88C3E0"/>
<rect width="118.745" height="5.26292" transform="matrix(0.719036 -0.694973 0.696484 0.717573 86.1357 154.993)" fill="#A9DBF5"/>
<rect width="11.249" height="18.9457" transform="matrix(0.719035 -0.694973 0.696484 0.717573 157.196 123.455)" fill="#88C3E0"/>
<rect width="11.2492" height="16.3146" transform="matrix(-0.696484 -0.717572 0.719036 -0.694973 148.296 117.923)" fill="#88C3E0"/>
<rect width="11.2492" height="16.3146" transform="matrix(-0.696484 -0.717573 0.719036 -0.694973 97.6816 166.889)" fill="#88C3E0"/>
<rect width="47.695" height="5.2629" transform="matrix(0.719036 -0.694973 0.696484 0.717572 169.019 138.376)" fill="#88C3E0"/>
<rect width="16.3144" height="29.1422" transform="matrix(0.719036 -0.694973 0.696484 0.717572 97.6353 166.842)" fill="#D4EAFC"/>
</svg>
