<svg width="104" height="104" viewBox="0 0 104 104" fill="none" xmlns="http://www.w3.org/2000/svg">
    <path d="M62.0526 55.139H23.9681C21.4256 55.139 19.3645 53.0779 19.3645 50.5354V34.6319C19.3645 32.0894 21.4256 30.0283 23.9681 30.0283H62.0526C64.5952 30.0283 66.6563 32.0894 66.6563 34.6319V50.5354C66.6563 53.0779 64.5952 55.139 62.0526 55.139Z" fill="#A9DBF5"/>
    <path d="M62.0527 30.0283H55.7751C58.3177 30.0283 60.3788 32.0894 60.3788 34.6319V50.5354C60.3788 53.0779 58.3177 55.139 55.7751 55.139H62.0527C64.5952 55.139 66.6563 53.0779 66.6563 50.5354V34.6319C66.6563 32.0894 64.5952 30.0283 62.0527 30.0283Z" fill="#88C3E0"/>
    <path d="M25.6421 48.0239V37.1427C25.6421 36.6804 26.0169 36.3057 26.4792 36.3057H59.5416C60.0039 36.3057 60.3787 36.6804 60.3787 37.1427V48.0239C60.3787 48.4863 60.0039 48.861 59.5416 48.861H26.4792C26.0169 48.8608 25.6421 48.4861 25.6421 48.0239Z" fill="#43809F"/>
    <path d="M35.2666 43.0019C33.5331 43.0019 32.1277 41.5967 32.1277 39.863V36.3057H38.4053V39.863C38.4053 41.5967 37 43.0019 35.2666 43.0019Z" fill="#F78E36"/>
    <path d="M45.7307 43.0019C43.9972 43.0019 42.5918 41.5967 42.5918 39.863V36.3057H48.8694V39.863C48.8696 41.5967 47.4642 43.0019 45.7307 43.0019Z" fill="#F78E36"/>
    <path d="M81.6193 37.9347L46.3334 23.6049C43.9778 22.6482 42.8435 19.963 43.8002 17.6074L49.7841 2.87271C50.7408 0.517074 53.4259 -0.617176 55.7816 0.339543L91.0674 14.6694C93.4231 15.6261 94.5573 18.3112 93.6006 20.6669L87.6167 35.4016C86.6602 37.7574 83.9751 38.8914 81.6193 37.9347Z" fill="#A9DBF5"/>
    <path d="M91.0677 14.6696L85.2514 12.3076C87.607 13.2643 88.7413 15.9494 87.7846 18.3051L81.8007 33.0398C80.844 35.3954 78.1589 36.5297 75.8032 35.5729L81.6195 37.9351C83.9751 38.8918 86.6603 37.7576 87.617 35.4019L93.6008 20.6672C94.5574 18.3114 93.4233 15.6263 91.0677 14.6696Z" fill="#88C3E0"/>
    <path d="M50.5618 17.6431L54.656 7.56136C54.8299 7.13297 55.3182 6.9268 55.7463 7.10088L86.379 19.5409C86.8074 19.7147 87.0136 20.203 86.8395 20.6312L82.7453 30.7129C82.5714 31.1413 82.0831 31.3475 81.655 31.1734L51.0223 18.7334C50.5941 18.5596 50.3877 18.0713 50.5618 17.6431Z" fill="#43809F"/>
    <path d="M61.3683 16.6116C59.7622 15.9593 58.9889 14.1286 59.6411 12.5225L60.9797 9.22656L66.796 11.5887L65.4574 14.8846C64.8052 16.4905 62.9744 17.2638 61.3683 16.6116Z" fill="#F78E36"/>
    <path d="M71.0636 20.5491C69.4575 19.8968 68.6842 18.0661 69.3365 16.46L70.675 13.1641L76.4913 15.5262L75.1527 18.8221C74.5007 20.4282 72.6697 21.2015 71.0636 20.5491Z" fill="#F78E36"/>
    <path d="M82.3149 89.4575H21.6853C19.2797 89.4575 17.2237 87.6684 16.8156 85.2201L11.6138 54.0146H92.3864L87.1846 85.2201C86.7763 87.6686 84.7205 89.4575 82.3149 89.4575Z" fill="#F78E36"/>
    <path d="M86.1089 54.0137L80.9068 85.2191C80.4988 87.6676 78.4427 89.4565 76.0371 89.4565H82.3147C84.7203 89.4565 86.7763 87.6674 87.1844 85.2191L92.3862 54.0137H86.1089Z" fill="#F86F1B"/>
    <path d="M93.6417 55.1389H10.3581C9.66459 55.1389 9.10254 54.5769 9.10254 53.8834V50.1168C9.10254 49.4234 9.66459 48.8613 10.3581 48.8613H93.6417C94.3352 48.8613 94.8973 49.4234 94.8973 50.1168V53.8834C94.8973 54.5767 94.3352 55.1389 93.6417 55.1389Z" fill="#F3F3F3"/>
    <path d="M93.6418 48.8613H87.3643C88.0577 48.8613 88.6198 49.4234 88.6198 50.1168V53.8834C88.6198 54.5769 88.0577 55.1389 87.3643 55.1389H93.6418C94.3353 55.1389 94.8974 54.5769 94.8974 53.8834V50.1168C94.8974 49.4236 94.3353 48.8613 93.6418 48.8613Z" fill="#E4E4E4"/>
    <path d="M103.188 104H0.8125C0.363797 104 0 103.636 0 103.188V98.5352C0 98.0865 0.363797 97.7227 0.8125 97.7227H103.188C103.636 97.7227 104 98.0865 104 98.5352V103.188C104 103.636 103.636 104 103.188 104Z" fill="#43809F"/>
    <path d="M32.9578 97.7223C37.6961 97.7223 41.5372 93.8811 41.5372 89.1429C41.5372 84.4046 37.6961 80.5635 32.9578 80.5635C28.2195 80.5635 24.3784 84.4046 24.3784 89.1429C24.3784 93.8811 28.2195 97.7223 32.9578 97.7223Z" fill="#A9DBF5"/>
    <path d="M32.9577 92.2817C34.6913 92.2817 36.0966 90.8764 36.0966 89.1428C36.0966 87.4092 34.6913 86.0039 32.9577 86.0039C31.2242 86.0039 29.8188 87.4092 29.8188 89.1428C29.8188 90.8764 31.2242 92.2817 32.9577 92.2817Z" fill="#43809F"/>
    <path d="M71.042 97.7223C75.7803 97.7223 79.6214 93.8811 79.6214 89.1429C79.6214 84.4046 75.7803 80.5635 71.042 80.5635C66.3038 80.5635 62.4626 84.4046 62.4626 89.1429C62.4626 93.8811 66.3038 97.7223 71.042 97.7223Z" fill="#A9DBF5"/>
    <path d="M71.0422 92.2817C72.7758 92.2817 74.1811 90.8764 74.1811 89.1428C74.1811 87.4092 72.7758 86.0039 71.0422 86.0039C69.3087 86.0039 67.9033 87.4092 67.9033 89.1428C67.9033 90.8764 69.3087 92.2817 71.0422 92.2817Z" fill="#43809F"/>
</svg>
