<svg width="32" height="32" viewBox="0 0 32 32" fill="none" xmlns="http://www.w3.org/2000/svg">
<path d="M26.2764 31.4521C19.4324 32.1826 12.5676 32.1826 5.72363 31.4521C2.99463 31.1609 0.839111 29.0054 0.547852 26.2761C-0.182617 19.4321 -0.182617 12.5676 0.547852 5.72363C0.839111 2.99463 2.99463 0.839111 5.72363 0.547852C12.5676 -0.182617 19.4321 -0.182617 26.2761 0.547852C29.0054 0.839111 31.1609 2.99463 31.4521 5.72363C32.1826 12.5676 32.1826 19.4321 31.4521 26.2761C31.1609 29.0054 29.0056 31.1609 26.2764 31.4521Z" fill="url(#paint0_linear)"/>
<path d="M29.7118 6.88074C29.4535 4.45911 27.5409 2.54626 25.119 2.28772C19.0458 1.63977 12.9545 1.63977 6.88123 2.28772C4.45959 2.54626 2.54675 4.45911 2.28821 6.88074C1.64026 12.954 1.64026 19.0453 2.28821 25.1183C2.54675 27.5402 4.45959 29.453 6.88123 29.7113C12.9545 30.3595 19.0458 30.3595 25.1188 29.7113C27.5407 29.453 29.4535 27.5402 29.7118 25.1183C30.36 19.0453 30.36 12.954 29.7118 6.88074Z" fill="url(#paint1_linear)"/>
<path d="M0.47998 25.6123C0.501953 25.8335 0.524658 26.0547 0.54834 26.2759C0.8396 29.0049 2.99512 31.1604 5.72437 31.4517C12.5684 32.1821 19.4329 32.1821 26.2769 31.4517C29.0061 31.1604 31.1614 29.0049 31.4526 26.2759C31.4763 26.0547 31.499 25.8335 31.5212 25.6123H0.47998Z" fill="url(#paint2_linear)"/>
<path d="M16.4653 31.9983C18.3298 31.9893 20.1941 31.926 22.0576 31.8088V18.8169H25.7681L26.2163 14.1482H22.0576V11.1836C22.0576 10.5288 22.5884 9.99805 23.2432 9.99805H26.2163V5.3291H21.5134C18.7253 5.3291 16.4653 7.58935 16.4653 10.3774V14.1482H13.7485V18.8169H16.4653V31.9983Z" fill="white"/>
<defs>
<linearGradient id="paint0_linear" x1="10.6246" y1="4.49914" x2="18.7183" y2="21.8159" gradientUnits="userSpaceOnUse">
<stop stop-color="#3457A0"/>
<stop offset="1" stop-color="#3B5998"/>
</linearGradient>
<linearGradient id="paint1_linear" x1="22.0703" y1="20.1705" x2="-5.90288" y2="0.950152" gradientUnits="userSpaceOnUse">
<stop stop-color="#3457A0" stop-opacity="0"/>
<stop offset="1" stop-color="#1F3F77"/>
</linearGradient>
<linearGradient id="paint2_linear" x1="16.0005" y1="26.7416" x2="16.0005" y2="31.0718" gradientUnits="userSpaceOnUse">
<stop stop-color="#3457A0" stop-opacity="0"/>
<stop offset="1" stop-color="#1F3F77"/>
</linearGradient>
</defs>
</svg>
