<svg width="32" height="32" viewBox="0 0 32 32" fill="none" xmlns="http://www.w3.org/2000/svg">
<path d="M26.2764 31.4521C19.4324 32.1826 12.5676 32.1826 5.72363 31.4521C2.99463 31.1609 0.839111 29.0054 0.547852 26.2761C-0.182617 19.4321 -0.182617 12.5676 0.547852 5.72363C0.839111 2.99463 2.99463 0.839111 5.72363 0.547852C12.5676 -0.182617 19.4321 -0.182617 26.2761 0.547852C29.0054 0.839111 31.1609 2.99463 31.4521 5.72363C32.1826 12.5676 32.1826 19.4321 31.4521 26.2761C31.1609 29.0054 29.0056 31.1609 26.2764 31.4521Z" fill="url(#paint0_linear)"/>
<path d="M29.9095 6.88074C29.6512 4.45911 27.7387 2.54626 25.3168 2.28772C19.2435 1.63977 13.1522 1.63977 7.07898 2.28772C4.65735 2.54626 2.74451 4.45911 2.48596 6.88074C1.83801 12.954 1.83801 19.0453 2.48596 25.1183C2.74451 27.5402 4.65735 29.453 7.07898 29.7113C13.1522 30.3595 19.2435 30.3595 25.3165 29.7113C27.7384 29.453 29.6512 27.5402 29.9095 25.1183C30.5577 19.0453 30.5577 12.954 29.9095 6.88074Z" fill="url(#paint1_linear)"/>
<path d="M0.47998 25.6123C0.501953 25.8335 0.524658 26.0547 0.54834 26.2759C0.8396 29.0049 2.99512 31.1604 5.72437 31.4517C12.5684 32.1821 19.4329 32.1821 26.2769 31.4517C29.0061 31.1604 31.1614 29.0049 31.4526 26.2759C31.4763 26.0547 31.499 25.8335 31.5212 25.6123H0.47998Z" fill="url(#paint2_linear)"/>
<path d="M25.894 20.6002C25.8698 20.548 25.8472 20.5047 25.8262 20.4701C25.4792 19.8451 24.8161 19.078 23.8373 18.1686L23.8166 18.1477L23.8063 18.1375L23.7958 18.1271H23.7853C23.341 17.7036 23.0597 17.4188 22.9419 17.2731C22.7264 16.9953 22.6781 16.7143 22.7959 16.4294C22.8791 16.2143 23.1918 15.7598 23.7331 15.0655C24.0178 14.6975 24.2433 14.4026 24.4099 14.1804C25.611 12.5836 26.1317 11.5633 25.9719 11.1189L25.9099 11.0151C25.8682 10.9526 25.7606 10.8954 25.5872 10.8432C25.4135 10.7912 25.1914 10.7826 24.9206 10.8173L21.9217 10.838C21.8731 10.8208 21.8037 10.8224 21.7134 10.8432C21.6231 10.8641 21.5779 10.8746 21.5779 10.8746L21.5257 10.9006L21.4843 10.932C21.4496 10.9527 21.4114 10.9891 21.3697 11.0412C21.3282 11.0931 21.2936 11.154 21.2658 11.2234C20.9393 12.0634 20.5681 12.8444 20.1515 13.5663C19.8946 13.9968 19.6587 14.3699 19.4433 14.6858C19.2281 15.0016 19.0476 15.2342 18.9019 15.3834C18.756 15.5327 18.6244 15.6522 18.5061 15.7426C18.3881 15.833 18.298 15.8712 18.2355 15.8572C18.173 15.8432 18.1141 15.8294 18.0583 15.8155C17.9612 15.753 17.8831 15.668 17.8242 15.5604C17.765 15.4528 17.7252 15.3174 17.7044 15.1542C17.6836 14.991 17.6714 14.8505 17.6679 14.7325C17.6646 14.6146 17.6661 14.4478 17.6732 14.2326C17.6804 14.0173 17.6836 13.8716 17.6836 13.7952C17.6836 13.5314 17.6888 13.2451 17.6991 12.9361C17.7096 12.6272 17.7181 12.3824 17.7252 12.2021C17.7323 12.0216 17.7356 11.8307 17.7356 11.6293C17.7356 11.428 17.7233 11.2701 17.6991 11.1555C17.6752 11.0411 17.6385 10.93 17.5901 10.8223C17.5414 10.7147 17.4701 10.6314 17.3766 10.5724C17.2829 10.5133 17.1664 10.4665 17.0278 10.4317C16.6598 10.3484 16.1912 10.3034 15.6219 10.2964C14.3307 10.2825 13.501 10.3659 13.1331 10.5464C12.9873 10.6227 12.8554 10.7269 12.7375 10.8587C12.6125 11.0115 12.595 11.0949 12.6853 11.1086C13.1019 11.171 13.3968 11.3203 13.5703 11.5563L13.6329 11.6813C13.6816 11.7716 13.7301 11.9313 13.7788 12.1604C13.8273 12.3894 13.8586 12.6428 13.8724 12.9203C13.9071 13.4272 13.9071 13.8611 13.8724 14.222C13.8377 14.5831 13.8048 14.8642 13.7735 15.0655C13.7422 15.2668 13.6953 15.43 13.6329 15.5549C13.5703 15.6799 13.5287 15.7562 13.5079 15.784C13.487 15.8117 13.4697 15.8291 13.4559 15.836C13.3657 15.8706 13.2718 15.8882 13.1747 15.8882C13.0774 15.8882 12.9595 15.8395 12.8207 15.7423C12.6819 15.6451 12.5378 15.5115 12.3886 15.3414C12.2393 15.1712 12.0709 14.9335 11.8834 14.6281C11.6961 14.3226 11.5017 13.9617 11.3003 13.5452L11.1338 13.2431C11.0296 13.0488 10.8874 12.7658 10.7069 12.3945C10.5263 12.023 10.3666 11.6637 10.2279 11.3166C10.1724 11.1708 10.089 11.0598 9.97799 10.9834L9.92587 10.9521C9.89122 10.9244 9.8356 10.895 9.7593 10.8636C9.68289 10.8323 9.60316 10.8098 9.51978 10.796L6.66657 10.8167C6.37501 10.8167 6.17718 10.8827 6.07302 11.0147L6.03133 11.0771C6.0105 11.1118 6 11.1673 6 11.2437C6 11.3201 6.02083 11.4138 6.06251 11.5248C6.47903 12.5038 6.93198 13.4478 7.42137 14.3573C7.91076 15.2667 8.33603 15.9992 8.69692 16.5543C9.05789 17.1097 9.42583 17.6339 9.80073 18.1267C10.1756 18.6196 10.4238 18.9355 10.5452 19.0742C10.6668 19.2133 10.7623 19.3172 10.8317 19.3866L11.092 19.6365C11.2586 19.8032 11.5033 20.0027 11.8261 20.2352C12.149 20.4679 12.5065 20.6969 12.8987 20.9227C13.291 21.1482 13.7474 21.3322 14.2681 21.4744C14.7887 21.6169 15.2955 21.674 15.7884 21.6464H16.986C17.2288 21.6255 17.4128 21.5491 17.5379 21.4173L17.5793 21.3651C17.6072 21.3237 17.6333 21.2593 17.6573 21.1727C17.6817 21.0859 17.6938 20.9903 17.6938 20.8863C17.6867 20.5879 17.7094 20.3189 17.7614 20.0794C17.8133 19.84 17.8724 19.6595 17.9386 19.5379C18.0047 19.4165 18.0793 19.314 18.1624 19.2309C18.2456 19.1476 18.3049 19.0972 18.3397 19.0798C18.3743 19.0624 18.4019 19.0505 18.4227 19.0434C18.5893 18.9879 18.7854 19.0416 19.0112 19.2049C19.2369 19.3681 19.4486 19.5695 19.6465 19.8089C19.8444 20.0485 20.0821 20.3174 20.3597 20.6158C20.6376 20.9144 20.8805 21.1363 21.0886 21.2823L21.2968 21.4073C21.4359 21.4907 21.6164 21.567 21.8386 21.6364C22.0604 21.7058 22.2547 21.7232 22.4215 21.6885L25.0872 21.6469C25.3509 21.6469 25.556 21.6033 25.7015 21.5166C25.8474 21.4299 25.934 21.3343 25.9619 21.2303C25.9898 21.1262 25.9913 21.0081 25.9672 20.8761C25.9425 20.7444 25.9182 20.6523 25.894 20.6002Z" fill="white"/>
<defs>
<linearGradient id="paint0_linear" x1="10.6246" y1="4.49914" x2="18.7183" y2="21.8159" gradientUnits="userSpaceOnUse">
<stop stop-color="#3457A0"/>
<stop offset="1" stop-color="#3B5998"/>
</linearGradient>
<linearGradient id="paint1_linear" x1="22.2681" y1="20.1705" x2="-5.70512" y2="0.950152" gradientUnits="userSpaceOnUse">
<stop stop-color="#3457A0" stop-opacity="0"/>
<stop offset="1" stop-color="#1F3F77"/>
</linearGradient>
<linearGradient id="paint2_linear" x1="16.0005" y1="26.7416" x2="16.0005" y2="31.0718" gradientUnits="userSpaceOnUse">
<stop stop-color="#3457A0" stop-opacity="0"/>
<stop offset="1" stop-color="#1F3F77"/>
</linearGradient>
</defs>
</svg>
