<svg width="132" height="120" viewBox="0 0 132 120" fill="none" xmlns="http://www.w3.org/2000/svg">
<path d="M117.763 107.447L14.2398 107.45C11.2907 107.45 8.89978 105.052 8.89952 102.094L8.89746 32.0272C8.89746 29.0685 11.2882 26.6701 14.2375 26.6701L117.76 26.667C120.709 26.667 123.1 29.0652 123.1 32.0235L123.103 102.09C123.103 105.049 120.712 107.447 117.763 107.447Z" fill="#4380A0"/>
<path d="M123.102 102.062C123.102 105.035 120.725 107.448 117.79 107.448H109.823C112.757 107.448 115.135 105.035 115.135 102.062L115.132 32.0525C115.132 29.0822 112.763 26.675 109.834 26.667H117.788C120.723 26.667 123.1 29.0771 123.1 32.0525L123.102 102.062Z" fill="#3B7191"/>
<path d="M115.134 98.3235C115.134 98.901 114.673 99.3691 114.103 99.3691H107.167L17.8991 99.3717C17.3296 99.3717 16.8678 98.9036 16.8678 98.3261L16.8652 35.7933C16.8652 35.2158 17.327 34.7477 17.8965 34.7477L107.164 34.7451H114.101C114.67 34.7451 115.132 35.2132 115.132 35.7907L115.134 98.3235Z" fill="#F3F3F3"/>
<mask id="mask0" style="mask-type:alpha" maskUnits="userSpaceOnUse" x="16" y="34" width="100" height="66">
<path d="M115.169 98.3782C115.169 98.9557 114.707 99.4238 114.138 99.4238H107.201L17.9337 99.4264C17.3642 99.4264 16.9025 98.9583 16.9025 98.3808L16.8999 35.848C16.8999 35.2705 17.3616 34.8024 17.9312 34.8024L107.199 34.7998H114.136C114.705 34.7998 115.167 35.2679 115.167 35.8454L115.169 98.3782Z" fill="#FFA7A7"/>
</mask>
<g mask="url(#mask0)">
<rect x="16" y="34" width="24" height="66" fill="#F2C444"/>
<rect x="40" y="34" width="75" height="16" fill="#FFE394"/>
</g>
<path d="M125.091 120H6.90859C3.09297 120 0 116.898 0 113.07V107.733C0 107.144 0.475921 106.667 1.06296 106.667H130.937C131.524 106.667 132 107.144 132 107.733V113.07C132 116.898 128.907 120 125.091 120Z" fill="#A9DBF5"/>
<path d="M130.937 106.667H122.97C123.556 106.667 124.032 107.145 124.032 107.734V113.067C124.032 116.896 120.94 120 117.126 120H125.094C128.908 120 132 116.896 132 113.067V107.734C132 107.145 131.524 106.667 130.937 106.667Z" fill="#88C3E0"/>
<path d="M75.0285 113.067H56.9713C55.2102 113.067 53.7827 111.635 53.7827 109.868V106.667H78.2171V109.868C78.2171 111.635 76.7896 113.067 75.0285 113.067Z" fill="#88C3E0"/>
<path fill-rule="evenodd" clip-rule="evenodd" d="M28.7393 45.4632C28.4801 45.4433 28.2009 45.4034 27.9816 45.3436C27.9417 45.3236 27.7623 45.2638 27.7224 45.2439C26.9248 44.885 26.3865 44.0675 26.3865 43.1503C26.3865 41.8742 27.4233 40.8374 28.6994 40.8374C29.9555 40.8374 30.9923 41.8543 31.0123 43.1304H31.8497C31.8298 41.4156 30.434 40.0199 28.6994 40.0199C26.9647 40.0199 25.5491 41.4356 25.5491 43.1702C25.5491 44.3666 26.227 45.4034 27.204 45.9417C27.3834 46.0414 27.6426 46.1411 27.7224 46.161C28.0015 46.2408 28.3405 46.3006 28.6595 46.3206C28.7592 46.3206 29.1181 46.3405 29.2377 46.3405H35V45.5031H29.2178C29.138 45.4831 28.7991 45.4831 28.7393 45.4632ZM29.2178 44.1672C29.158 44.1672 28.839 44.1672 28.7791 44.1672C28.6794 44.1672 28.5399 44.1472 28.4402 44.1273C28.3405 44.1074 28.2408 44.0675 28.2009 44.0475C27.8819 43.888 27.6825 43.5491 27.6825 43.1702C27.6825 42.612 28.1212 42.1733 28.6794 42.1733C29.2178 42.1733 29.6564 42.612 29.6764 43.1304H30.4739C30.454 42.1534 29.6564 41.3558 28.6794 41.3558C27.6825 41.3558 26.885 42.1534 26.885 43.1503C26.885 43.8482 27.2837 44.4663 27.8819 44.7454C27.9816 44.8052 28.1411 44.8451 28.181 44.865C28.3405 44.9049 28.5598 44.9448 28.7393 44.9448C28.7991 44.9448 29.138 44.9448 29.1979 44.9448H34.9801V44.1472H29.2178V44.1672ZM25.0107 46.3206H24.1733V40.8374H22.9371V40H25.0107V46.3206ZM22 41.2561V42.0736H22.9172V46.3206H23.7347V41.2561H22Z" fill="#D20A11"/>
<path d="M33.4846 40.0596C33.1855 40.0596 32.9263 40.2988 32.9263 40.5979C32.9263 40.897 33.1855 41.1562 33.4846 41.1562C33.8036 41.1562 34.0428 40.897 34.0428 40.5979C34.0428 40.2988 33.8036 40.0596 33.4846 40.0596ZM33.4846 41.0565C33.2253 41.0565 33.026 40.8571 33.026 40.5979C33.026 40.3387 33.2453 40.1393 33.4846 40.1393C33.7438 40.1393 33.9431 40.3387 33.9431 40.5979C33.9431 40.8571 33.7238 41.0565 33.4846 41.0565Z" fill="#D20A11"/>
<path d="M33.6842 40.738C33.6842 40.6782 33.6842 40.6184 33.6044 40.5985C33.6842 40.5586 33.7041 40.5187 33.7041 40.4788C33.7041 40.3393 33.5845 40.3193 33.5247 40.3193H33.2854V40.8577H33.3851V40.6384H33.4648C33.5845 40.6384 33.5845 40.6982 33.5845 40.738C33.5845 40.8377 33.5845 40.8577 33.6044 40.8577H33.7041C33.6842 40.8377 33.7041 40.8377 33.6842 40.738ZM33.5047 40.5586H33.3851V40.3792H33.4848C33.5645 40.3792 33.6044 40.3991 33.6044 40.4589C33.6044 40.5187 33.5845 40.5586 33.5047 40.5586Z" fill="#D20A11"/>
<rect x="46" y="57" width="22" height="28" rx="2" fill="#DFE4EC"/>
<rect x="74" y="57" width="33" height="28" rx="2" fill="#DFE4EC"/>
<rect x="77" y="68" width="2" height="13" rx="1" fill="#88C3E0"/>
<rect x="82" y="68" width="2" height="13" rx="1" fill="#88C3E0"/>
<rect x="87" y="64" width="2" height="17" rx="1" fill="#88C3E0"/>
<rect x="92" y="64" width="2" height="17" rx="1" fill="#88C3E0"/>
<rect x="97" y="64" width="2" height="17" rx="1" fill="#88C3E0"/>
<rect x="102" y="64" width="2" height="17" rx="1" fill="#88C3E0"/>
<rect x="21" y="56" width="16" height="1" fill="#D20A11"/>
<rect x="21" y="59" width="16" height="1" fill="#D20A11"/>
<rect x="21" y="65" width="16" height="1" fill="#D20A11"/>
<rect x="21" y="62" width="16" height="1" fill="#D20A11"/>
</svg>
