<svg width="132" height="120" viewBox="0 0 132 120" fill="none" xmlns="http://www.w3.org/2000/svg">
<path d="M117.763 107.447L14.2398 107.45C11.2907 107.45 8.89978 105.052 8.89952 102.094L8.89746 32.0272C8.89746 29.0685 11.2882 26.6701 14.2375 26.6701L117.76 26.667C120.709 26.667 123.1 29.0652 123.1 32.0235L123.103 102.09C123.103 105.049 120.712 107.447 117.763 107.447Z" fill="#4380A0"/>
<path d="M123.102 102.062C123.102 105.035 120.725 107.448 117.79 107.448H109.823C112.757 107.448 115.135 105.035 115.135 102.062L115.132 32.0525C115.132 29.0822 112.763 26.675 109.834 26.667H117.788C120.723 26.667 123.1 29.0771 123.1 32.0525L123.102 102.062Z" fill="#3B7191"/>
<path d="M115.134 98.3235C115.134 98.901 114.673 99.3691 114.103 99.3691H107.167L17.8991 99.3717C17.3296 99.3717 16.8678 98.9036 16.8678 98.3261L16.8652 35.7933C16.8652 35.2158 17.327 34.7477 17.8965 34.7477L107.164 34.7451H114.101C114.67 34.7451 115.132 35.2132 115.132 35.7907L115.134 98.3235Z" fill="#F3F3F3"/>
<path d="M114.103 99.3691H107.167L107.164 34.7451H114.101C114.67 34.7451 115.132 35.2132 115.132 35.7907L115.135 98.3235C115.135 98.901 114.673 99.3691 114.103 99.3691Z" fill="#E4E4E4"/>
<path d="M125.091 120H6.90859C3.09297 120 0 116.898 0 113.07V107.733C0 107.144 0.475921 106.667 1.06296 106.667H130.937C131.524 106.667 132 107.144 132 107.733V113.07C132 116.898 128.907 120 125.091 120Z" fill="#A9DBF5"/>
<path d="M130.937 106.667H122.97C123.556 106.667 124.032 107.145 124.032 107.734V113.067C124.032 116.896 120.94 120 117.126 120H125.094C128.908 120 132 116.896 132 113.067V107.734C132 107.145 131.524 106.667 130.937 106.667Z" fill="#88C3E0"/>
<path d="M75.0285 113.067H56.9713C55.2102 113.067 53.7827 111.635 53.7827 109.868V106.667H78.2171V109.868C78.2171 111.635 76.7896 113.067 75.0285 113.067Z" fill="#88C3E0"/>
<path d="M94.2949 39.3061C94.1469 40.359 93.7937 41.867 93.4781 43.0923C93.1834 44.237 92.1574 45.0374 90.9799 45.0374H87.3744C86.197 45.0374 85.1709 44.237 84.8762 43.0923C84.5607 41.867 84.2075 40.359 84.0595 39.3061C83.9494 38.5217 83.4799 37.8348 82.7962 37.4394L79.4648 35.5129C78.7818 35.118 77.9555 35.0539 77.2246 35.3498C76.2385 35.7491 74.7517 36.1983 73.5315 36.5381C72.3984 36.8536 71.1962 36.363 70.6071 35.3412L68.8068 32.2181C68.2172 31.1953 68.3951 29.9027 69.2363 29.0759C70.1389 28.1886 71.2679 27.1267 72.105 26.4718C72.7271 25.9851 73.0855 25.2343 73.0855 24.4427V20.5947C73.0855 19.8031 72.7271 19.0523 72.105 18.5656C71.2679 17.9107 70.1392 16.8486 69.2363 15.9615C68.3951 15.1347 68.2172 13.8424 68.8068 12.8193L70.6071 9.69619C71.1962 8.67438 72.3981 8.18377 73.5315 8.49929C74.7517 8.83912 76.2385 9.28808 77.2246 9.68765C77.9555 9.98377 78.7818 9.91937 79.4648 9.52446L82.7962 7.598C83.4799 7.20257 83.9494 6.51568 84.0595 5.73128C84.2075 4.67844 84.5607 3.17042 84.8762 1.94508C85.1709 0.800429 86.197 0 87.3744 0H90.9799C92.1574 0 93.1834 0.800429 93.4781 1.94508C93.7937 3.17042 94.1469 4.67844 94.2949 5.73128C94.405 6.51568 94.8744 7.20257 95.5582 7.598L98.8896 9.52446C99.5725 9.91937 100.399 9.98351 101.13 9.68765C102.116 9.28834 103.603 8.83912 104.823 8.49929C105.956 8.18377 107.158 8.67438 107.747 9.69619L109.548 12.8193C110.137 13.8421 109.959 15.1347 109.118 15.9615C108.215 16.8488 107.086 17.9107 106.249 18.5656C105.627 19.0523 105.269 19.8031 105.269 20.5947V24.4427C105.269 25.2343 105.627 25.9851 106.249 26.4718C107.086 27.1267 108.215 28.1888 109.118 29.0759C109.959 29.9027 110.137 31.195 109.548 32.2181L107.747 35.3412C107.158 36.363 105.956 36.8536 104.823 36.5381C103.603 36.1983 102.116 35.7493 101.13 35.3498C100.399 35.0536 99.5725 35.118 98.8896 35.5129L95.5582 37.4394C94.8742 37.8348 94.405 38.5215 94.2949 39.3061ZM98.0543 22.5188C98.0543 17.6084 94.0799 13.6277 89.177 13.6277C84.2742 13.6277 80.2998 17.6084 80.2998 22.5188C80.2998 27.4292 84.2742 31.4099 89.177 31.4099C94.0799 31.4099 98.0543 27.4292 98.0543 22.5188Z" fill="#FFC328"/>
<path d="M63.0581 73.9721C62.9101 75.025 62.5569 76.533 62.2413 77.7583C61.9466 78.903 60.9205 79.7034 59.7431 79.7034H56.1376C54.9602 79.7034 53.9341 78.903 53.6394 77.7583C53.3238 76.533 52.9706 75.025 52.8227 73.9721C52.7126 73.1877 52.2431 72.5008 51.5594 72.1054L48.2279 70.179C47.545 69.784 46.7187 69.7199 45.9878 70.0158C45.0017 70.4151 43.5149 70.8643 42.2946 71.2041C41.1616 71.5196 39.9594 71.029 39.3703 70.0072L37.57 66.8841C36.9804 65.8613 37.1583 64.5687 37.9995 63.7419C38.9021 62.8546 40.0311 61.7927 40.8682 61.1379C41.4903 60.6511 41.8486 59.9004 41.8486 59.1087V55.2607C41.8486 54.4691 41.4903 53.7183 40.8682 53.2316C40.0311 52.5768 38.9024 51.5146 37.9995 50.6275C37.1583 49.8007 36.9804 48.5084 37.57 47.4853L39.3703 44.3622C39.9594 43.3404 41.1613 42.8498 42.2946 43.1653C43.5149 43.5051 45.0017 43.9541 45.9878 44.3537C46.7187 44.6498 47.545 44.5854 48.2279 44.1905L51.5594 42.264C52.2431 41.8686 52.7126 41.1817 52.8227 40.3973C52.9706 39.3445 53.3238 37.8364 53.6394 36.6111C53.9341 35.4664 54.9602 34.666 56.1376 34.666H59.7431C60.9205 34.666 61.9466 35.4664 62.2413 36.6111C62.5569 37.8364 62.9101 39.3445 63.0581 40.3973C63.1681 41.1817 63.6376 41.8686 64.3213 42.264L67.6528 44.1905C68.3357 44.5854 69.162 44.6495 69.8929 44.3537C70.879 43.9544 72.3658 43.5051 73.5861 43.1653C74.7191 42.8498 75.9213 43.3404 76.5104 44.3622L78.3107 47.4853C78.9003 48.5081 78.7225 49.8007 77.8812 50.6275C76.9786 51.5149 75.8497 52.5768 75.0125 53.2316C74.3904 53.7183 74.0321 54.4691 74.0321 55.2607V59.1087C74.0321 59.9004 74.3904 60.6511 75.0125 61.1379C75.8497 61.7927 76.9784 62.8548 77.8812 63.7419C78.7225 64.5687 78.9003 65.861 78.3107 66.8841L76.5104 70.0072C75.9213 71.029 74.7194 71.5196 73.5861 71.2041C72.3658 70.8643 70.879 70.4151 69.8929 70.0158C69.162 69.7197 68.3357 69.784 67.6528 70.179L64.3213 72.1054C63.6374 72.5008 63.1681 73.1877 63.0581 73.9721ZM66.8175 57.1848C66.8175 52.2744 62.843 48.2937 57.9402 48.2937C53.0374 48.2937 49.063 52.2744 49.063 57.1848C49.063 62.0953 53.0374 66.0759 57.9402 66.0759C62.843 66.0759 66.8175 62.0953 66.8175 57.1848Z" fill="#FF9F22"/>
</svg>
