<svg width="528" height="306" viewBox="0 0 528 306" fill="none" xmlns="http://www.w3.org/2000/svg">
<path d="M196 0.912969V20.907V21.9113V23.0068V41.9053V42.9096V44.0051V62.9036V63.9079V65.0034V83.9019V84.9061V86.0017V105.996V107H194.571H168.611H167.181H165.66H141.129H139.653H138.224H113.693H112.172H110.742H86.2116H84.7822H83.3528H58.73H57.3006H55.8711H31.3405H29.9111H28.4817H2.42942H1V105.996V86.0017V84.9061V83.9019V65.0947V63.9992V62.9949V44.0964V43.0009V41.9966V23.0981V22.0026V20.9983V1.00427V0H2.42942H28.4817H29.9111H31.3405H55.8711H57.3006H58.73H83.3528H84.7822H86.2116H110.742H112.172H113.693H138.224H139.653H141.083H165.613H167.135H168.564H194.524H195.954V0.912969H196ZM193.095 23.0525H168.564V41.9509H193.095V23.0525ZM165.613 23.0525H141.083V41.9509H165.613V23.0525ZM138.224 23.0525H113.693V41.9509H138.224V23.0525ZM110.742 23.0525H86.2116V41.9509H110.742V23.0525ZM83.3528 23.0525H58.73V41.9509H83.3528V23.0525ZM55.825 23.0525H31.2944V41.9509H55.825V23.0525ZM28.4356 23.0525H3.81272V41.9509H28.4356V23.0525ZM3.81272 20.907H28.4356V2.00853H3.81272V20.907ZM31.3405 20.907H55.8711V2.00853H31.3405V20.907ZM58.73 20.907H83.3528V2.00853H58.73V20.907ZM86.2116 20.907H110.742V2.00853H86.2116V20.907ZM113.693 20.907H138.224V2.00853H113.693V20.907ZM141.083 20.907H165.613V2.00853H141.083V20.907ZM168.611 20.907H193.141V2.00853H168.611V20.907ZM193.095 44.0964H168.564V62.9949H193.095V44.0964ZM165.613 44.0964H141.083V62.9949H165.613V44.0964ZM138.224 44.0964H113.693V62.9949H138.224V44.0964ZM110.742 44.0964H86.2116V62.9949H110.742V44.0964ZM83.3528 44.0964H58.73V62.9949H83.3528V44.0964ZM55.825 44.0964H31.2944V62.9949H55.825V44.0964ZM28.4356 44.0964H3.81272V62.9949H28.4356V44.0964ZM193.095 65.0947H168.564V83.9932H193.095V65.0947ZM165.613 65.0947H141.083V83.9932H165.613V65.0947ZM138.224 65.0947H113.693V83.9932H138.224V65.0947ZM110.742 65.0947H86.2116V83.9932H110.742V65.0947ZM83.3528 65.0947H58.73V83.9932H83.3528V65.0947ZM55.825 65.0947H31.2944V83.9932H55.825V65.0947ZM28.4356 65.0947H3.81272V83.9932H28.4356V65.0947ZM193.095 86.1387H168.564V105.037H193.095V86.1387ZM165.613 86.1387H141.083V105.037H165.613V86.1387ZM138.224 86.1387H113.693V105.037H138.224V86.1387ZM110.742 86.1387H86.2116V105.037H110.742V86.1387ZM83.3528 86.1387H58.73V105.037H83.3528V86.1387ZM55.825 86.1387H31.2944V105.037H55.825V86.1387ZM28.4356 86.1387H3.81272V105.037H28.4356V86.1387Z" fill="#D4EFFF"/>
<path fill-rule="evenodd" clip-rule="evenodd" d="M502.512 41.4473C505.902 47.0593 507.948 53.1391 508.884 59.5111L528 63.1355L522.388 92.6572L503.272 89.1497C501.693 91.8973 499.881 94.4694 497.835 96.9247C495.731 99.38 493.392 101.601 490.937 103.531L497.309 121.887L468.781 132L462.409 113.644C456.037 113.761 449.665 112.592 443.702 110.136L430.958 124.81L408.042 105.167L420.786 90.4942C417.396 84.8822 415.35 78.8025 414.414 72.4305L395.298 68.9229L400.91 39.2843L420.026 42.7918C421.605 40.0443 423.417 37.4721 425.463 35.0168C427.685 32.5616 429.906 30.3401 432.478 28.3525L425.989 9.99646L454.459 0L460.831 18.3561C467.203 18.3561 473.575 19.4083 479.713 21.8636L492.34 7.19044L515.256 26.8326L502.512 41.4473Z" fill="#A9DBF5"/>
<path fill-rule="evenodd" clip-rule="evenodd" d="M471.529 54.6009C477.784 59.9207 478.544 69.5664 473.107 75.8215C467.67 82.1935 458.141 82.8365 451.886 77.3999C445.514 72.0801 444.754 62.5513 450.191 56.1793C455.686 49.9242 465.157 49.1058 471.529 54.6009ZM480.999 43.5522C493.334 54.1917 494.795 72.957 484.097 85.2918C473.458 97.802 454.692 99.205 442.358 88.5655C429.847 77.926 428.444 59.1607 439.084 46.709C449.782 34.1404 468.547 32.8543 480.999 43.5522Z" fill="#D4EAFC"/>
<g clip-path="url(#clip0)">
<path d="M96 279.379L132.212 245.949H422.053L454 279.379H96Z" fill="#434F6C"/>
<path d="M417.644 249.768H132.501C130.204 249.721 128.018 248.77 126.421 247.124C124.823 245.478 123.943 243.269 123.972 240.978V63.1315C123.953 61.9961 124.158 60.868 124.577 59.8118C124.995 58.7556 125.618 57.7918 126.41 56.9756C127.202 56.1593 128.148 55.5066 129.193 55.0547C130.238 54.6028 131.362 54.3606 132.501 54.3418H417.644C418.783 54.3606 419.907 54.6028 420.952 55.0547C421.997 55.5066 422.943 56.1593 423.735 56.9756C424.527 57.7918 425.15 58.7556 425.568 59.8118C425.986 60.868 426.192 61.9961 426.173 63.1315V240.978C426.202 243.269 425.322 245.478 423.724 247.124C422.126 248.77 419.941 249.721 417.644 249.768Z" fill="#6E778D"/>
<path d="M406.44 68.0664H143.524C139.193 68.0664 135.681 71.5662 135.681 75.8835V234.602C135.681 238.919 139.193 242.419 143.524 242.419H406.44C410.771 242.419 414.282 238.919 414.282 234.602V75.8835C414.282 71.5662 410.771 68.0664 406.44 68.0664Z" fill="#D4EFFF"/>
<path d="M275 63.2756C276.757 63.2756 278.18 61.8564 278.18 60.1056C278.18 58.3548 276.757 56.9355 275 56.9355C273.244 56.9355 271.82 58.3548 271.82 60.1056C271.82 61.8564 273.244 63.2756 275 63.2756Z" fill="#434F6C"/>
<path d="M435.713 305.964H114.359C111.95 305.969 109.563 305.5 107.336 304.584C105.109 303.669 103.085 302.324 101.379 300.628C99.6741 298.931 98.3213 296.916 97.3982 294.698C96.4751 292.48 96 290.102 96 287.7V279.379H454V287.7C454 292.538 452.075 297.178 448.646 300.602C445.218 304.026 440.567 305.955 435.713 305.964Z" fill="#6E778D"/>
<path d="M213.201 249.66C213.201 250.077 213.119 250.489 212.959 250.874C212.799 251.258 212.565 251.608 212.27 251.902C211.974 252.196 211.624 252.43 211.238 252.589C210.852 252.749 210.439 252.831 210.021 252.831H173.881C173.462 252.835 173.046 252.757 172.658 252.599C172.27 252.441 171.918 252.208 171.622 251.913C171.325 251.617 171.091 251.266 170.933 250.879C170.775 250.493 170.696 250.078 170.701 249.66C170.696 249.243 170.775 248.828 170.933 248.442C171.091 248.055 171.325 247.703 171.622 247.408C171.918 247.113 172.27 246.88 172.658 246.722C173.046 246.564 173.462 246.486 173.881 246.49H210.021C210.864 246.49 211.673 246.824 212.27 247.419C212.866 248.013 213.201 248.82 213.201 249.66Z" fill="#03436B"/>
<path d="M384.756 249.66C384.756 250.08 384.673 250.495 384.511 250.882C384.349 251.269 384.111 251.62 383.812 251.915C383.513 252.21 383.158 252.442 382.768 252.6C382.378 252.757 381.96 252.835 381.54 252.831H345.364C344.943 252.835 344.526 252.757 344.136 252.6C343.746 252.442 343.391 252.21 343.092 251.915C342.793 251.62 342.555 251.269 342.393 250.882C342.231 250.495 342.147 250.08 342.147 249.66C342.147 249.241 342.231 248.826 342.393 248.439C342.555 248.052 342.793 247.701 343.092 247.406C343.391 247.111 343.746 246.879 344.136 246.721C344.526 246.564 344.943 246.486 345.364 246.49H381.504C381.924 246.486 382.342 246.564 382.732 246.721C383.122 246.879 383.477 247.111 383.776 247.406C384.075 247.701 384.312 248.052 384.474 248.439C384.637 248.826 384.72 249.241 384.72 249.66H384.756Z" fill="#03436B"/>
<path d="M232.897 274.625L244.824 263.602H306.586L317.103 274.625H232.897Z" fill="#4396CA"/>
<path d="M285.661 256.865H265.676V257.91H285.661V256.865Z" fill="white"/>
<path d="M142.331 271.129H119.961V272.174H142.331V271.129Z" fill="white"/>
<path d="M158.883 256.865H138.898V257.91H158.883V256.865Z" fill="white"/>
<path d="M150.354 263.385H130.369V264.429H150.354V263.385Z" fill="white"/>
<path d="M197.769 256.865H177.784V257.91H197.769V256.865Z" fill="white"/>
<path d="M187.65 263.385H167.665V264.429H187.65V263.385Z" fill="white"/>
<path d="M214.249 271.129H191.878V272.174H214.249V271.129Z" fill="white"/>
<path d="M235.608 256.865H215.623V257.91H235.608V256.865Z" fill="white"/>
<path d="M225.489 263.385H205.503V264.429H225.489V263.385Z" fill="white"/>
<path d="M178.579 272.75H156.209V273.795H178.579V272.75Z" fill="white"/>
<path d="M433.762 271.129H411.391V272.174H433.762V271.129Z" fill="white"/>
<path d="M414.861 256.865H394.875V257.91H414.861V256.865Z" fill="white"/>
<path d="M423.39 263.385H403.404V264.429H423.39V263.385Z" fill="white"/>
<path d="M375.975 256.865H355.989V257.91H375.975V256.865Z" fill="white"/>
<path d="M386.094 263.385H366.108V264.429H386.094V263.385Z" fill="white"/>
<path d="M361.844 271.129H339.473V272.174H361.844V271.129Z" fill="white"/>
<path d="M338.136 256.865H318.151V257.91H338.136V256.865Z" fill="white"/>
<path d="M348.255 263.385H328.27V264.429H348.255V263.385Z" fill="white"/>
<path d="M397.514 272.75H375.143V273.795H397.514V272.75Z" fill="white"/>
</g>
<path fill-rule="evenodd" clip-rule="evenodd" d="M51.0617 186.235C54.3704 188.027 57.2346 190.466 59.5062 193.303L70.0741 189.421L76 205.946L65.4321 209.828C65.5309 211.62 65.3333 213.462 64.9876 215.353C64.642 217.244 64.1975 218.986 63.5555 220.679L72.1481 227.995L60.9383 241.385L52.3457 234.167C49.2839 236.059 45.7778 237.403 42.0247 237.95L40.0494 249L23.0123 246.014L24.8889 234.814C21.5802 233.023 18.716 230.584 16.4444 227.747L6.02469 231.629L0 215.104L10.5679 211.222C10.5679 209.43 10.6667 207.588 11.0123 205.697C11.358 203.805 11.9012 202.063 12.5432 200.371L3.85185 193.054L15.0617 179.665L23.6049 186.982C26.8148 184.991 30.321 183.647 33.9259 183.1L35.9012 172L53.037 174.986L51.0617 186.235Z" fill="#A9DBF5"/>
<path fill-rule="evenodd" clip-rule="evenodd" d="M40.0684 201.801C44.9303 202.607 48.1716 207.197 47.2599 211.988C46.4496 216.829 41.8409 220.057 37.0297 219.149C32.1677 218.342 28.9265 213.753 29.6861 208.962C30.5977 204.12 35.2571 200.893 40.0684 201.801ZM41.5371 193.278C51.109 194.942 57.4396 204.07 55.7177 213.601C54.1477 223.032 45.0316 229.437 35.4597 227.722C25.9891 226.058 19.5571 216.93 21.2791 207.55C22.9504 197.968 32.0665 191.563 41.5371 193.278Z" fill="#D4EAFC"/>
<path d="M337 90H161V100H337V90Z" fill="#6E778D"/>
<path d="M369.39 110.383H261.296V119.255H369.39V110.383Z" fill="#6E778D"/>
<path d="M269.27 129.082H161.345V137.954H269.27V129.082Z" fill="#6E778D"/>
<path d="M269.27 168.332H161.345V177.204H269.27V168.332Z" fill="#6E778D"/>
<path d="M269.27 186.943H161.345V195.928H269.27V186.943Z" fill="#6E778D"/>
<path d="M312.788 186.943H278.704V195.928H312.788V186.943Z" fill="#F77B55"/>
<path d="M358.721 183.943H324.636V192.928H358.721V183.943Z" fill="#6E778D"/>
<path d="M313 169H279V178H313V169Z" fill="#6E778D"/>
<path d="M351.646 129.082H293.416V137.954H351.646V129.082Z" fill="#6E778D"/>
<path d="M200 110H161V119H200V110Z" fill="#6E778D"/>
<path d="M244.956 110.383H213.735V119.255H244.956V110.383Z" fill="#F77B55"/>
<path d="M385 90H357.148V100.388H385V90Z" fill="#F77B55"/>
<path d="M195.823 205.955H161.345V214.827H195.823V205.955Z" fill="#6E778D"/>
<path d="M241.812 205.955H207.334V214.827H241.812V205.955Z" fill="#F77B55"/>
<path d="M312.788 205.955H256.917V214.827H312.788V205.955Z" fill="#6E778D"/>
<path fill-rule="evenodd" clip-rule="evenodd" d="M363.505 225.946C385.817 225.946 403.978 207.752 403.978 185.473C403.978 163.193 385.785 145 363.505 145C341.226 145 323 163.161 323 185.473C323 207.752 341.193 225.946 363.505 225.946Z" fill="#FDDA79"/>
<path fill-rule="evenodd" clip-rule="evenodd" d="M338.177 187.127V183.884L356.857 175.939V179.409L342.069 185.473L356.857 191.667V195.137L338.177 187.127ZM359.03 199.905L367.267 170.75H370.088L361.851 199.905H359.03ZM390.844 187.127L372.229 195.137V191.667L386.952 185.473L372.229 179.409V175.939L390.844 183.884V187.127Z" fill="#4D565E"/>
<defs>
<clipPath id="clip0">
<rect width="358" height="254" fill="white" transform="translate(96 52)"/>
</clipPath>
</defs>
</svg>
