<svg width="529" height="306" viewBox="0 0 529 306" fill="none" xmlns="http://www.w3.org/2000/svg">
<path d="M467.413 216.503C457.87 232.799 445.024 246.82 429.755 258.566C423.956 263.043 417.863 267.154 411.476 270.972C410.816 271.339 410.228 271.706 409.568 272.073C399.291 278.019 388.279 283.157 376.754 287.562C375.58 288.002 374.332 288.443 373.084 288.883C372.13 289.25 371.249 289.544 370.294 289.837C370.221 289.837 370.147 289.911 370.074 289.911C366.11 291.306 362.073 292.554 357.962 293.801C356.64 294.169 355.319 294.609 353.924 294.976C351.502 295.637 349.006 296.297 346.51 296.885C345.189 297.178 343.867 297.545 342.546 297.839C332.709 300.115 322.726 301.95 312.522 303.271C202.189 317.659 75.7071 275.009 52.0696 178.697C45.0224 149.995 56.9145 132.45 73.5048 121.439C81.7265 115.933 91.1962 112.043 100.005 109.18C100.372 109.033 100.739 108.96 101.18 108.813C101.18 108.813 101.18 108.813 101.253 108.813C108.814 106.39 115.935 104.775 121.44 103.454C121.44 103.454 121.734 102.793 122.321 101.619C128.928 88.1116 174.368 4.13259 283.746 0.095135C352.456 -2.47415 356.347 47.6637 383.434 69.833C390.628 75.7056 399.437 79.5963 411.476 80.0367C411.99 80.0367 412.504 80.0367 412.944 80.0367C413.605 80.0367 414.266 80.0367 415 80.0367C415.367 80.0367 415.661 80.0367 416.028 80.0367C416.174 80.0367 416.248 80.0367 416.395 80.0367C416.909 80.0367 417.349 79.9633 417.863 79.9633C418.23 79.9633 418.523 79.8899 418.891 79.8899C419.771 79.8165 420.726 79.7431 421.607 79.6697C421.68 79.6697 421.753 79.6697 421.827 79.6697C422.561 79.5963 423.295 79.5228 423.956 79.4494C425.424 79.3026 426.819 79.2292 428.213 79.2292C436.215 79.009 443.556 80.0367 450.089 82.239C491.785 95.8929 503.75 154.399 467.413 216.503Z" fill="#D4EFFF"/>
<path d="M357.888 293.949C356.567 294.316 355.245 294.756 353.851 295.123C351.428 295.784 348.932 296.445 346.436 297.032C345.115 297.326 343.794 297.693 342.472 297.986C332.636 300.262 322.652 302.097 312.448 303.418C301.511 299.821 291.307 293.141 285.581 281.763C285.581 281.763 290.72 278.9 298.795 277.285V277.359C299.455 278.607 300.63 279.12 301.731 279.12C303.199 279.12 304.667 278.166 305.034 276.404C310.54 274.936 316.486 275.083 322.432 276.257C334.985 278.753 347.758 286.094 357.888 293.949Z" fill="#9CC77B"/>
<path d="M303.125 284.92C301.143 284.48 299.382 284.04 298.941 283.893C298.574 283.673 298.134 283.746 297.767 283.966C297.326 284.333 297.179 285.067 297.546 285.508C297.84 285.948 297.84 285.948 302.612 286.976C310.393 288.811 327.277 292.628 342.472 297.84C343.794 297.547 345.115 297.18 346.436 296.886C330.36 291.234 311.567 286.902 303.125 284.92Z" fill="white"/>
<path d="M373.084 289.029C372.13 289.397 371.249 289.69 370.294 289.984C370.368 289.984 370.441 290.057 370.441 290.057C370.294 290.057 370.148 290.057 370.001 290.057C368.9 290.424 367.798 290.791 366.697 291.158C363.761 292.113 360.825 293.067 357.888 293.874C356.567 294.241 355.246 294.682 353.851 295.049C343.354 291.232 331.608 285.359 322.432 276.183C313.256 267.007 306.649 254.528 306.429 237.57C306.429 237.57 314.431 237.13 325.369 240.066L325.515 243.883C325.589 246.967 329.479 248.215 331.388 245.792L333.664 242.856C345.042 247.334 357.888 255.555 368.166 270.751C371.175 275.155 373.891 280.221 376.387 285.946L376.754 287.708C375.506 288.075 374.258 288.589 373.084 289.029Z" fill="#82B55B"/>
<path d="M366.991 285.579C340.711 270.163 316.926 247.039 315.752 245.498C315.532 245.057 315.018 244.837 314.577 244.91C313.99 245.057 313.623 245.644 313.696 246.232C313.99 247.773 340.05 272.512 366.844 288.001C368.018 288.662 369.12 289.322 370.294 289.983C371.248 289.689 372.129 289.322 373.084 289.029C371.028 287.928 369.046 286.753 366.991 285.579Z" fill="white"/>
<path d="M422.9 135C419.083 135 416 138.083 416 141.9C416 145.718 419.083 148.801 422.9 148.801C426.718 148.801 429.801 145.718 429.801 141.9C429.801 138.083 426.718 135 422.9 135ZM422.9 146.598C420.331 146.598 418.202 144.47 418.202 141.9C418.202 139.331 420.331 137.202 422.9 137.202C425.47 137.202 427.598 139.331 427.598 141.9C427.598 144.47 425.47 146.598 422.9 146.598Z" fill="white"/>
<path d="M454.686 173.54C454.099 173.54 453.585 173.026 453.585 172.439V163.41C453.585 162.822 454.099 162.309 454.686 162.309C455.273 162.309 455.787 162.822 455.787 163.41V172.439C455.787 173.026 455.273 173.54 454.686 173.54Z" fill="white"/>
<path d="M459.164 168.989H450.135C449.548 168.989 449.034 168.475 449.034 167.888C449.034 167.301 449.548 166.787 450.135 166.787H459.164C459.751 166.787 460.265 167.301 460.265 167.888C460.265 168.549 459.751 168.989 459.164 168.989Z" fill="white"/>
<path d="M126.432 184.717C124.45 181.487 120.193 180.459 116.963 182.441C114.834 183.763 113.659 186.038 113.659 188.314C113.659 189.562 113.953 190.81 114.687 191.911C115.641 193.453 117.183 194.554 118.945 194.994C119.458 195.141 120.046 195.215 120.56 195.215C121.807 195.215 123.055 194.847 124.157 194.187C125.698 193.233 126.799 191.691 127.24 189.929C127.68 188.094 127.387 186.259 126.432 184.717ZM125.111 189.342C124.817 190.59 124.083 191.618 122.982 192.205C120.78 193.526 117.917 192.865 116.522 190.663C115.201 188.461 115.861 185.598 118.064 184.203C120.266 182.882 123.129 183.543 124.524 185.745C125.184 186.919 125.404 188.167 125.111 189.342Z" fill="white"/>
<path d="M82.2406 187.58C81.8735 187.58 81.5065 187.36 81.2863 187.066L76.5881 179.431C76.2945 178.918 76.4413 178.257 76.9552 177.89C77.469 177.596 78.1297 177.743 78.4967 178.257L83.1949 185.891C83.4885 186.405 83.3417 187.066 82.8278 187.433C82.6076 187.58 82.4608 187.58 82.2406 187.58Z" fill="white"/>
<path d="M76.0742 186.112C75.7071 186.112 75.3401 185.892 75.1199 185.598C74.8262 185.084 74.9731 184.424 75.4869 184.057L83.1214 179.359C83.6352 179.065 84.2959 179.212 84.6629 179.726C84.9566 180.24 84.8098 180.9 84.2959 181.267L76.6614 185.965C76.4412 186.039 76.221 186.112 76.0742 186.112Z" fill="white"/>
<path d="M77.833 132.546C77.833 132.546 96.8457 127.628 99.4884 128.802C102.131 129.977 106.389 147.742 105.141 148.109C103.82 148.549 97.7266 142.456 97.7266 142.456C97.7266 142.456 96.1851 145.466 93.836 144.438C91.4869 143.411 88.9177 139.226 88.9177 139.226C88.9177 139.226 88.257 141.282 85.8345 140.401C83.412 139.52 80.1821 134.822 80.1821 134.822L77.833 132.546Z" fill="white"/>
<path d="M30.2646 107.073C30.2646 107.073 20.2811 90.1888 17.6384 89.0876C14.9223 87.9865 -0.640243 97.603 0.0204313 98.7775C0.607697 100.025 9.26987 100.025 9.26987 100.025C9.26987 100.025 8.16875 103.255 10.5912 104.21C13.0137 105.164 17.7852 104.063 17.7852 104.063C17.7852 104.063 16.8309 105.972 19.1066 107.073C21.4556 108.174 27.0347 107.146 27.0347 107.146L30.2646 107.073Z" fill="#D4EFFF"/>
<path d="M88.1836 118.598L72.1072 150.751C71.6667 151.705 70.4922 152.072 69.5379 151.632L18.7394 126.233C17.7851 125.792 17.4181 124.618 17.8585 123.663L33.9349 91.5106C34.0083 91.2903 34.1551 91.0701 34.3754 90.9233C34.9626 90.4094 35.7701 90.2626 36.5776 90.6297L87.3761 116.029C88.1102 116.396 88.4772 117.203 88.4038 117.938C88.3304 118.158 88.3304 118.378 88.1836 118.598Z" fill="#FCD26D"/>
<path d="M20.5012 124.104L50.5252 121.314C52.0668 121.167 53.5349 121.901 54.3424 123.223L70.5656 149.136L55.6638 121.754C54.8563 120.14 53.0945 119.259 51.3327 119.626L20.5012 124.104Z" fill="#EFC036"/>
<path d="M88.257 118.084L51.4795 124.103L34.2285 91.0696C34.8158 90.4089 35.7701 90.1887 36.5042 90.5557L87.3027 115.955C88.0368 116.322 88.4038 117.203 88.257 118.084Z" fill="#FFDF4F"/>
<path d="M35.3298 93.1973L50.3785 121.826C51.1126 123.221 52.5808 123.955 54.1957 123.735L85.8347 118.67L53.6085 125.937C51.7733 126.378 50.0115 125.57 49.2774 123.808L35.3298 93.1973Z" fill="#EFC036"/>
<path d="M498.288 82.6771C498.288 82.6771 508.932 66.1602 511.648 65.2059C514.364 64.2516 529.56 74.3819 528.899 75.5565C528.238 76.731 519.576 76.4374 519.576 76.4374C519.576 76.4374 520.53 79.6673 518.108 80.5482C515.685 81.4291 510.914 80.1078 510.914 80.1078C510.914 80.1078 511.795 82.0898 509.446 83.1175C507.097 84.1452 501.518 82.8973 501.518 82.8973L498.288 82.6771Z" fill="#D4EFFF"/>
<path d="M446.094 96.3316C446.094 96.3316 427.302 90.6792 424.586 91.7069C421.87 92.7346 416.951 110.353 418.199 110.793C419.447 111.234 425.834 105.434 425.834 105.434C425.834 105.434 427.228 108.517 429.651 107.637C432.073 106.756 434.789 102.645 434.789 102.645C434.789 102.645 435.377 104.7 437.873 103.966C440.368 103.159 443.745 98.6073 443.745 98.6073L446.094 96.3316Z" fill="white"/>
<path d="M496.452 65.4257L506.509 99.9276C506.803 100.955 506.216 102.056 505.188 102.35L450.646 118.206C449.618 118.5 448.517 117.913 448.223 116.885L438.166 82.383C438.093 82.1628 438.093 81.9426 438.093 81.6489C438.166 80.8414 438.68 80.1808 439.488 79.9605L494.03 64.1044C494.837 63.8841 495.645 64.1778 496.085 64.765C496.232 64.9853 496.379 65.2055 496.452 65.4257Z" fill="#FCD26D"/>
<path d="M450.499 115.417L470.686 92.9544C471.714 91.8533 473.256 91.3394 474.724 91.7799L504.234 99.7814L474.724 89.7979C473.035 89.2106 471.2 89.7244 470.099 91.1192L450.499 115.417Z" fill="#EFC036"/>
<path d="M496.159 64.9862L473.255 94.3495L438.166 81.7967C438.166 80.9158 438.68 80.1083 439.487 79.8881L494.03 64.0319C494.837 63.8851 495.645 64.2521 496.159 64.9862Z" fill="#FFDF4F"/>
<path d="M440.369 82.6778L470.833 93.4688C472.375 93.9826 473.916 93.5422 474.871 92.2943L494.691 67.1152L475.972 94.2763C474.944 95.8913 473.035 96.4051 471.347 95.5976L440.369 82.6778Z" fill="#EFC036"/>
<path d="M188.389 259.226C188.389 259.226 202.189 254.968 204.245 255.702C206.227 256.436 209.971 269.43 209.09 269.797C208.135 270.164 203.437 265.906 203.437 265.906C203.437 265.906 202.41 268.182 200.648 267.521C198.886 266.86 196.831 263.851 196.831 263.851C196.831 263.851 196.39 265.392 194.555 264.805C192.72 264.218 190.15 260.914 190.15 260.914L188.389 259.226Z" fill="white"/>
<path d="M152.492 242.122C152.492 242.122 144.564 230.01 142.509 229.349C140.453 228.689 129.368 236.25 129.809 237.131C130.323 238.012 136.636 237.718 136.636 237.718C136.636 237.718 135.975 240.14 137.737 240.728C139.499 241.388 143.022 240.361 143.022 240.361C143.022 240.361 142.362 241.829 144.124 242.563C145.885 243.297 149.996 242.343 149.996 242.343L152.492 242.122Z" fill="white"/>
<path d="M195.583 248.51L184.865 272.808C184.571 273.542 183.69 273.835 182.956 273.542L144.564 256.585C143.83 256.291 143.536 255.41 143.83 254.676L154.547 230.378C154.621 230.231 154.694 230.084 154.841 229.937C155.208 229.497 155.869 229.423 156.456 229.644L194.849 246.601C195.436 246.821 195.729 247.408 195.729 247.996C195.729 248.216 195.656 248.363 195.583 248.51Z" fill="#FCD26D"/>
<path d="M145.885 254.969L167.908 251.886C169.009 251.739 170.11 252.179 170.771 253.134L183.617 271.632L171.652 251.959C170.991 250.784 169.67 250.197 168.422 250.491L145.885 254.969Z" fill="#EFC036"/>
<path d="M195.656 248.142L168.789 253.868L154.915 230.157C155.355 229.643 156.016 229.496 156.53 229.716L194.922 246.674C195.436 246.894 195.73 247.554 195.656 248.142Z" fill="#FFDF4F"/>
<path d="M155.722 231.625L167.834 252.179C168.422 253.207 169.523 253.721 170.697 253.427L193.821 248.582L170.33 255.042C169.009 255.483 167.687 254.895 167.1 253.574L155.722 231.625Z" fill="#EFC036"/>
<path d="M173.56 94.2775L258.64 31.1464C262.09 28.5771 266.862 28.5771 270.312 31.2198L354.144 94.2775H173.56Z" fill="#FCD26D"/>
<path d="M350.988 215.621H176.643C173.34 215.621 170.697 212.978 170.697 209.675V99.3425C170.697 96.0392 173.34 93.3965 176.643 93.3965H350.988C354.291 93.3965 356.934 96.0392 356.934 99.3425V209.675C356.934 212.978 354.291 215.621 350.988 215.621Z" fill="#FCD26D"/>
<path d="M348.566 101.544L328.966 116.666L328.745 116.886L312.889 129.146L301.364 138.028L277.506 156.527L272.882 160.124L270.312 158.582C266.348 156.16 261.283 156.16 257.319 158.656L254.75 160.197L250.712 157.114L226.047 138.101L214.522 129.219L198.593 116.886L195.656 114.611L178.625 101.471H348.566V101.544Z" fill="white"/>
<path d="M350.4 207.4L272.881 160.052L270.312 158.51C266.348 156.088 261.283 156.088 257.319 158.583L254.749 160.125L178.552 207.4L250.712 157.042L257.025 152.637C261.43 149.407 267.449 149.407 271.78 152.637L277.359 156.528L350.4 207.4Z" fill="#EFC036"/>
<path d="M348.566 46.1953H178.625V101.545H348.566V46.1953Z" fill="white"/>
<path d="M328.966 65.6484H195.656V74.5308H328.966V65.6484Z" fill="#D4EFFF"/>
<path d="M328.966 86.8633H195.656V95.7457H328.966V86.8633Z" fill="#D4EFFF"/>
<path d="M328.966 108.004V116.666L328.745 116.886H198.593L195.656 114.611V108.004H328.966Z" fill="#D4EFFF"/>
<path d="M312.816 129.146L301.364 138.029H226.047L214.522 129.146H312.816Z" fill="#D4EFFF"/>
<path d="M377.195 187.066C383.508 184.937 380.131 174.073 389.087 167.466C398.483 160.492 401.786 169.815 401.786 169.815C401.786 169.815 409.714 164.236 418.01 171.504C423.075 175.981 429.314 187.066 421.239 202.335C414.266 215.548 431.59 221.054 419.698 228.762C409.568 235.369 381.232 223.844 381.232 223.844C381.232 223.844 348.565 196.903 377.195 187.066Z" fill="#404B67"/>
<path d="M386.369 200.28L380.842 227.172L394.36 229.95L399.887 203.058L386.369 200.28Z" fill="#FBAF7B"/>
<path d="M399.951 203.069L397.969 212.686C393.565 215.622 388.426 218.999 382.774 217.898L386.151 201.454C386.591 201.087 386.958 200.794 387.399 200.5L399.951 203.069Z" fill="#FB8862"/>
<path d="M392.684 172.752C392.684 172.752 376.094 186.479 377.562 205.345C377.635 206.667 378.443 207.768 379.544 208.355C383.655 210.484 394.005 215.035 398.63 210.631C404.503 205.052 416.321 190.37 411.623 183.69C407.072 177.156 392.684 172.752 392.684 172.752Z" fill="#FBAF7B"/>
<path d="M402.227 198.225C402.227 198.225 412.357 196.463 414.266 203.07C416.101 209.677 401.199 211.732 400.906 205.712C400.612 199.766 402.227 198.225 402.227 198.225Z" fill="#FBAF7B"/>
<path d="M384.315 182.294C384.315 182.294 388.133 175.834 390.041 178.844C391.95 181.854 392.684 186.552 402.374 185.304C409.715 184.35 404.503 200.573 404.503 200.573C404.503 200.573 409.054 197.636 412.651 200.353C412.651 200.353 418.67 183.248 412.945 179.138C407.219 175.027 392.831 168.86 390.041 171.65C387.178 174.293 384.315 182.294 384.315 182.294Z" fill="#404B67"/>
<path d="M387.398 188.754C386.811 189.635 386.004 190.148 385.636 189.855C385.196 189.561 385.343 188.68 385.93 187.799C386.517 186.918 387.325 186.405 387.692 186.698C388.132 186.992 387.986 187.873 387.398 188.754Z" fill="#404B67"/>
<path d="M396.722 194.994C396.134 195.875 395.327 196.389 394.96 196.095C394.519 195.801 394.666 194.92 395.253 194.04C395.841 193.159 396.648 192.645 397.015 192.938C397.382 193.159 397.309 194.113 396.722 194.994Z" fill="#404B67"/>
<path d="M384.021 198.004C384.315 198.077 393.051 201.528 393.051 201.528C393.051 201.528 383.875 210.997 384.315 198.151L384.021 198.004Z" fill="white"/>
<path d="M429.755 258.638C423.956 263.116 417.863 267.227 411.476 271.044C410.816 271.411 410.228 271.779 409.568 272.146C399.291 278.092 388.279 283.23 376.754 287.635C375.58 288.075 374.332 288.516 373.084 288.956C372.129 289.323 371.249 289.617 370.294 289.91C370.368 289.91 370.441 289.984 370.441 289.984C370.294 289.984 370.147 289.984 370.001 289.984C368.9 290.351 367.798 290.718 366.697 291.085L366.844 287.928L367.064 285.506L368.239 270.604L369.12 259.226L369.707 252.032L370.368 243.149L371.322 228.247C371.836 224.724 375.58 222.448 378.589 221.2C380.645 220.319 382.333 219.879 382.48 219.879C382.553 220.099 384.903 230.67 396.207 221.053H396.354L404.796 222.962C407.145 223.476 409.201 224.871 410.669 226.779C411.036 227.22 411.917 228.541 413.238 230.523C416.982 236.616 424.396 248.288 429.755 258.638Z" fill="#F77B55"/>
<path d="M382.333 220.027C382.333 220.027 353.851 211.658 350.401 207.474C346.951 203.216 325.662 176.789 325.662 176.789L308.778 188.314L334.398 230.964C347.318 244.765 377.195 255.483 378.59 255.042C380.058 254.675 382.333 220.027 382.333 220.027Z" fill="#F77B55"/>
<path d="M308.778 188.24L290.72 176.201C289.839 175.613 289.912 174.219 290.94 173.778C294.904 171.943 301.804 170.401 303.493 170.548C305.842 170.768 315.311 173.044 315.311 173.044L314.431 168.786C314.21 167.685 314.871 166.658 315.899 166.364C317.367 165.997 318.908 166.584 319.789 167.832L325.589 176.568L308.778 188.24Z" fill="#FBAF7B"/>
<path d="M402.887 204.904C402.887 204.904 405.897 206.005 405.97 204.023C406.044 202.922 404.355 202.628 404.355 202.628C404.355 202.628 409.788 200.205 411.036 202.995C412.283 205.711 407.659 208.941 402.887 204.904Z" fill="#FB8862"/>
<path d="M401.273 239.406C400.685 239.406 400.172 238.893 400.172 238.305C400.025 229.129 403.915 226.34 404.136 226.266C404.649 225.899 405.31 226.046 405.677 226.56C406.044 227.074 405.897 227.735 405.384 228.102C405.31 228.175 402.3 230.524 402.374 238.305C402.374 238.893 401.933 239.406 401.273 239.406Z" fill="#D06848"/>
<path d="M411.403 271.045C410.742 271.412 410.155 271.779 409.494 272.146C405.163 261.869 400.318 250.271 400.318 242.636C400.318 242.049 400.832 241.535 401.419 241.535C402.007 241.535 402.521 242.049 402.521 242.636C402.521 249.757 407.219 260.988 411.403 271.045Z" fill="#D06848"/>
</svg>
