<svg width="528" height="306" viewBox="0 0 528 306" fill="none" xmlns="http://www.w3.org/2000/svg">
<path d="M431 295C431 203.861 357.157 130 266.041 130C174.925 130 101 203.861 101 295" stroke="#D4EFFF" stroke-miterlimit="10"/>
<path d="M408 299C408 220.565 344.451 157 266.035 157C187.62 157 124 220.565 124 299" stroke="#D4EFFF" stroke-miterlimit="10"/>
<path d="M217.307 290.402C215.986 290.769 214.664 291.209 213.27 291.576C210.847 292.237 208.351 292.898 205.855 293.485C204.534 293.779 203.213 294.146 201.891 294.439C192.055 296.715 182.071 298.55 171.867 299.872C160.93 296.275 150.726 289.594 145 278.216C145 278.216 150.139 275.353 158.213 273.738V273.812C158.874 275.06 160.049 275.573 161.15 275.573C162.618 275.573 164.086 274.619 164.453 272.857C169.959 271.389 175.905 271.536 181.851 272.711C194.404 275.206 207.177 282.547 217.307 290.402Z" fill="#9CC77B"/>
<path d="M162.544 281.374C160.562 280.933 158.801 280.493 158.36 280.346C157.993 280.126 157.553 280.199 157.186 280.419C156.745 280.786 156.598 281.52 156.965 281.961C157.259 282.401 157.259 282.401 162.031 283.429C169.812 285.264 186.696 289.081 201.891 294.293C203.213 294 204.534 293.633 205.855 293.339C189.779 287.687 170.986 283.356 162.544 281.374Z" fill="white"/>
<path d="M232.503 285.483C231.549 285.85 230.668 286.143 229.713 286.437C229.787 286.437 229.86 286.51 229.86 286.51C229.713 286.51 229.566 286.51 229.42 286.51C228.319 286.877 227.217 287.244 226.116 287.611C223.18 288.566 220.244 289.52 217.307 290.328C215.986 290.695 214.665 291.135 213.27 291.502C202.772 287.685 191.027 281.812 181.851 272.636C172.675 263.46 166.068 250.981 165.848 234.023C165.848 234.023 173.85 233.583 184.787 236.519L184.934 240.337C185.008 243.42 188.898 244.668 190.807 242.245L193.083 239.309C204.461 243.787 217.307 252.008 227.584 267.204C230.594 271.608 233.31 276.674 235.806 282.399L236.173 284.161C234.925 284.528 233.677 285.042 232.503 285.483Z" fill="#82B55B"/>
<path d="M226.41 282.032C200.13 266.616 176.345 243.492 175.171 241.951C174.95 241.51 174.437 241.29 173.996 241.364C173.409 241.51 173.042 242.098 173.115 242.685C173.409 244.226 199.469 268.965 226.263 284.454C227.437 285.115 228.539 285.776 229.713 286.436C230.667 286.143 231.548 285.775 232.503 285.482C230.447 284.381 228.465 283.206 226.41 282.032Z" fill="white"/>
<path d="M315.866 290.402C317.187 290.769 318.508 291.209 319.903 291.576C322.326 292.237 324.822 292.898 327.317 293.485C328.639 293.779 329.96 294.146 331.281 294.439C341.118 296.715 351.102 298.55 361.305 299.872C372.243 296.275 382.447 289.594 388.173 278.216C388.173 278.216 383.034 275.353 374.959 273.738V273.812C374.299 275.06 373.124 275.573 372.023 275.573C370.555 275.573 369.087 274.619 368.72 272.857C363.214 271.389 357.268 271.536 351.322 272.711C338.769 275.206 325.996 282.547 315.866 290.402Z" fill="#9CC77B"/>
<path d="M370.628 281.374C372.61 280.933 374.372 280.493 374.813 280.346C375.18 280.126 375.62 280.199 375.987 280.419C376.428 280.786 376.575 281.52 376.208 281.961C375.914 282.401 375.914 282.401 371.142 283.429C363.361 285.264 346.477 289.081 331.282 294.293C329.96 294 328.639 293.633 327.318 293.339C343.394 287.687 362.187 283.356 370.628 281.374Z" fill="white"/>
<path d="M300.67 285.483C301.624 285.85 302.505 286.143 303.46 286.437C303.386 286.437 303.313 286.51 303.313 286.51C303.46 286.51 303.606 286.51 303.753 286.51C304.854 286.877 305.955 287.244 307.057 287.611C309.993 288.566 312.929 289.52 315.866 290.328C317.187 290.695 318.508 291.135 319.903 291.502C330.4 287.685 342.146 281.812 351.322 272.636C360.498 263.46 367.104 250.981 367.325 234.023C367.325 234.023 359.323 233.583 348.385 236.519L348.239 240.337C348.165 243.42 344.275 244.668 342.366 242.245L340.09 239.309C328.712 243.787 315.866 252.008 305.588 267.204C302.579 271.608 299.863 276.674 297.367 282.399L297 284.161C298.248 284.528 299.495 285.042 300.67 285.483Z" fill="#82B55B"/>
<path d="M306.763 282.032C333.043 266.616 356.828 243.492 358.002 241.951C358.222 241.51 358.736 241.29 359.177 241.364C359.764 241.51 360.131 242.098 360.058 242.685C359.764 244.226 333.704 268.965 306.91 284.454C305.735 285.115 304.634 285.776 303.46 286.436C302.506 286.143 301.625 285.775 300.67 285.482C302.726 284.381 304.708 283.206 306.763 282.032Z" fill="white"/>
<path d="M322.983 126.191L293.715 145.592L268.185 135.574L264.441 141.831L283.772 153.791L294.61 157.466L322.983 145.057V126.191Z" fill="#292949"/>
<path d="M317.167 286.51L309.22 290.118L305.252 286.51L309.22 282.902H317.167V286.51Z" fill="#3B3631"/>
<path d="M235.767 172.355L239.726 173.716L236.231 178.822L231.095 178.922L228.778 175.553L235.767 172.355Z" fill="#EACAB0"/>
<path d="M322.155 126H208.969V278.001H322.155V126Z" fill="#434F6C"/>
<path opacity="0.1" d="M322.155 126L211.692 292.071H322.155V126Z" fill="#272525"/>
<path d="M326.569 126H205V155.934H326.569V126Z" fill="#6E778D"/>
<path d="M276.137 139.865H217.04V142.075H276.137V139.865Z" fill="#4396CA"/>
<path d="M299.996 138.371H294.285V143.559H299.996V138.371Z" fill="#EFC036"/>
<path d="M312.203 138.371H306.492V143.559H312.203V138.371Z" fill="#3E96CC"/>
<path d="M326.569 160.033H205V189.967H326.569V160.033Z" fill="#6E778D"/>
<path d="M276.137 173.898H217.04V176.108H276.137V173.898Z" fill="#4396CA"/>
<path d="M299.996 172.404H294.285V177.592H299.996V172.404Z" fill="#EFC036"/>
<path d="M312.203 172.404H306.492V177.592H312.203V172.404Z" fill="#3E96CC"/>
<path d="M326.569 194.066H205V224H326.569V194.066Z" fill="#6E778D"/>
<path d="M276.137 207.93H217.04V210.139H276.137V207.93Z" fill="#4396CA"/>
<path d="M299.996 206.441H294.285V211.629H299.996V206.441Z" fill="#EFC036"/>
<path d="M312.203 206.441H306.492V211.629H312.203V206.441Z" fill="#3E96CC"/>
<path d="M326.569 228.105H205V258.039H326.569V228.105Z" fill="#6E778D"/>
<path d="M276.137 241.963H217.04V244.173H276.137V241.963Z" fill="#4396CA"/>
<path d="M299.996 240.475H294.285V245.662H299.996V240.475Z" fill="#EFC036"/>
<path d="M312.203 240.475H306.492V245.662H312.203V240.475Z" fill="#3E96CC"/>
<path d="M326.569 262.137H205V292.07H326.569V262.137Z" fill="#6E778D"/>
<path d="M276.137 275.998H217.04V278.208H276.137V275.998Z" fill="#4396CA"/>
<path d="M299.996 274.508H294.285V279.696H299.996V274.508Z" fill="#EFC036"/>
<path d="M312.203 274.508H306.492V279.696H312.203V274.508Z" fill="#3E96CC"/>
<path d="M498 294.75C498 166.741 394.173 63 266.058 63C137.942 63 34 166.741 34 294.75" stroke="#D4EFFF" stroke-miterlimit="10"/>
<path d="M521 292H7C3.13401 292 0 295.134 0 299C0 302.866 3.134 306 6.99999 306H521C524.866 306 528 302.866 528 299C528 295.134 524.866 292 521 292Z" fill="#D4EFFF"/>
<path d="M46.1201 270C67.9354 270 85.6201 252.315 85.6201 230.5C85.6201 208.685 67.9354 191 46.1201 191C24.3049 191 6.62012 208.685 6.62012 230.5C6.62012 252.315 24.3049 270 46.1201 270Z" fill="#A9DBF5"/>
<path d="M81.9202 257.701L77.2202 227.201C76.7202 225.001 75.3202 223.401 73.6202 222.501V222.401L33.5202 207.501V207.601C31.6202 207.201 29.5202 207.501 27.7202 208.801L4.22021 228.801C0.620208 231.401 -0.979793 236.301 0.620207 239.601C2.32021 242.901 7.02021 244.301 11.1202 242.601L29.7202 232.701L60.1202 243.901L67.6202 263.601C69.6202 267.601 74.0202 269.701 77.5202 268.301C81.0202 266.801 82.9202 262.001 81.9202 257.701Z" fill="#FFFFFD"/>
<path d="M78.6202 265.301C75.2202 266.701 70.7202 264.601 68.7202 260.601L61.2201 241.001L30.9202 229.701L12.3201 239.601C8.22015 241.301 3.42015 240.001 1.82015 236.601C1.12015 235.201 1.02015 233.601 1.32015 232.001C-0.0798509 234.401 -0.379849 237.201 0.720151 239.401C2.42015 242.701 7.12015 244.101 11.2202 242.401L29.8201 232.501L60.1202 243.901L67.6202 263.601C69.6202 267.601 74.0202 269.701 77.5202 268.301C79.7202 267.401 81.4202 265.001 81.9202 262.301C81.1201 263.601 80.0202 264.801 78.6202 265.301Z" fill="#F4F4ED"/>
<path d="M38.4202 235.6C37.3202 238.5 34.1202 240 31.2202 238.9C28.3202 237.8 26.8202 234.6 27.9202 231.7C29.0202 228.8 32.2202 227.3 35.1202 228.4C38.0202 229.5 39.5202 232.7 38.4202 235.6Z" fill="#F4F4ED"/>
<path d="M36.4202 234.9C35.7202 236.7 33.7202 237.6 31.9202 236.9C30.1202 236.2 29.2202 234.2 29.9202 232.4C30.6202 230.6 32.6202 229.7 34.4202 230.4C36.2202 231.1 37.1202 233.1 36.4202 234.9Z" fill="#4BA9EF"/>
<path d="M62.1201 244.401C61.0201 247.301 57.8201 248.801 54.9201 247.701C52.0201 246.601 50.5201 243.401 51.6201 240.501C52.7201 237.601 55.9201 236.101 58.8201 237.201C61.7201 238.301 63.2201 241.501 62.1201 244.401Z" fill="#F4F4ED"/>
<path d="M60.1202 243.7C59.4202 245.5 57.4202 246.4 55.6202 245.7C53.8202 245 52.9202 243 53.6202 241.2C54.3202 239.4 56.3202 238.5 58.1202 239.2C59.8202 239.9 60.7202 241.9 60.1202 243.7Z" fill="#4BA9EF"/>
<path d="M40.6202 221.1C39.0202 225.4 34.3202 227.5 30.0202 225.9C25.7202 224.3 23.6202 219.6 25.2202 215.3C26.8202 211 31.5202 208.9 35.8202 210.5C40.0202 212.1 42.1202 216.9 40.6202 221.1Z" fill="#EAEADC"/>
<path d="M37.9202 219.001C38.0202 218.601 37.8203 218.201 37.5203 218.001L35.9202 217.401C35.5202 217.301 35.3203 216.801 35.5203 216.401L36.1203 214.801C36.2203 214.401 36.0203 214.001 35.7203 213.801L33.6203 213.001C33.2203 212.901 32.8203 213.101 32.6203 213.401L32.0202 215.001C31.9202 215.401 31.4202 215.601 31.0202 215.401L29.4203 214.801C29.0203 214.701 28.6203 214.901 28.4203 215.201L27.6203 217.301C27.5203 217.701 27.7202 218.101 28.0202 218.301L29.6203 218.901C30.0203 219.001 30.2202 219.501 30.0202 219.901L29.4203 221.501C29.3203 221.901 29.5202 222.301 29.8202 222.501L31.9203 223.301C32.3203 223.401 32.7203 223.201 32.9203 222.901L33.5203 221.301C33.6203 220.901 34.1203 220.701 34.5203 220.901L36.1203 221.501C36.5203 221.601 36.9203 221.401 37.1203 221.101L37.9202 219.001Z" fill="#BCBBAD"/>
<path d="M74.0875 235.557C76.5711 231.77 75.5145 226.687 71.7275 224.203C67.9406 221.72 62.8574 222.776 60.3738 226.563C57.8903 230.35 58.9469 235.433 62.7338 237.917C66.5207 240.4 71.6039 239.344 74.0875 235.557Z" fill="#EAEADC"/>
<path d="M70.0202 228.001C69.7202 228.801 68.8202 229.301 67.9202 228.901C67.1202 228.601 66.6202 227.701 67.0202 226.801C67.3202 226.001 68.2202 225.501 69.1202 225.901C69.9202 226.301 70.3202 227.201 70.0202 228.001Z" fill="#3886CD"/>
<path d="M67.3202 235.2C67.0202 236 66.1202 236.5 65.2202 236.1C64.4202 235.8 63.9202 234.9 64.3202 234C64.6202 233.2 65.5202 232.7 66.4202 233.1C67.2202 233.4 67.6202 234.4 67.3202 235.2Z" fill="#3886CD"/>
<path d="M70.2202 233.901C69.4202 233.601 68.9202 232.701 69.3202 231.801C69.6202 231.001 70.5202 230.501 71.4202 230.901C72.2202 231.201 72.7202 232.101 72.3202 233.001C71.9202 233.801 71.0202 234.201 70.2202 233.901Z" fill="#3886CD"/>
<path d="M63.0203 231.201C62.2203 230.901 61.7203 230.001 62.1203 229.101C62.4203 228.301 63.3203 227.801 64.2203 228.201C65.0203 228.501 65.5203 229.401 65.1203 230.301C64.8203 231.101 63.9203 231.501 63.0203 231.201Z" fill="#3886CD"/>
<path d="M60.0742 222.894L43.6785 216.777L40.0786 226.427L56.4744 232.544L60.0742 222.894Z" fill="#4BA9EF"/>
<g opacity="0.1">
<path opacity="0.1" d="M64.3435 213.41L33.5046 227.488L34.626 229.944L65.4648 215.866L64.3435 213.41Z" fill="#FFFFFD"/>
<path opacity="0.1" d="M65.7065 217.699L34.8677 231.777L36.8196 236.053L67.6584 221.974L65.7065 217.699Z" fill="#FFFFFD"/>
</g>
<path d="M118.5 160C140.315 160 158 142.315 158 120.5C158 98.6848 140.315 81 118.5 81C96.6848 81 79 98.6848 79 120.5C79 142.315 96.6848 160 118.5 160Z" fill="#A9DBF5"/>
<path d="M143.6 121.698C146.2 126.898 145.6 133.598 141.8 137.998C139.5 140.598 136.4 142.298 133.2 143.498C132.4 143.798 133 144.898 133.7 144.698C138.9 142.698 143.9 139.198 145.7 133.598C146.8 130.198 146.6 126.598 145.5 123.298C145.3 122.598 145 121.898 144.7 121.198C144.4 120.398 143.2 120.898 143.6 121.698Z" fill="#EAEADC"/>
<path d="M135.2 143.098C136 144.998 134.9 147.298 132.6 148.298C130.3 149.298 127.8 148.598 126.9 146.798C126 144.998 127.2 142.598 129.5 141.598C131.9 140.598 134.4 141.298 135.2 143.098Z" fill="#EAEADC"/>
<path opacity="0.1" d="M133.3 141.398C133.4 141.498 133.4 141.598 133.5 141.698C134.3 143.598 133.2 145.898 130.9 146.898C129.6 147.498 128.3 147.498 127.2 147.098C128.2 148.698 130.5 149.298 132.7 148.398C135 147.398 136.2 144.998 135.3 143.198C134.9 142.298 134.2 141.798 133.3 141.398Z" fill="#173144"/>
<path d="M129 92.0988C122.9 88.9988 115.4 89.2988 106.6 93.0988C106.5 93.0988 106.4 93.1988 106.3 93.1988C106.2 93.1988 106.1 93.2988 106 93.2988C97.3002 97.2988 92.0002 102.699 90.2002 109.299C87.0002 121.499 97.1002 133.499 97.5002 133.999L98.6002 133.099C98.5002 132.999 88.5002 121.199 91.6002 109.599C93.2002 103.299 98.4002 98.1987 106.8 94.3987C115.3 90.6987 122.5 90.2988 128.3 93.1988C139 98.6988 141.1 113.999 141.1 114.099L142.5 113.899C142.4 113.299 140.2 97.8988 129 92.0988Z" fill="#EAEADC"/>
<path d="M99.5 101.099C99.9 100.699 100.4 100.399 100.9 99.9992C101.4 99.5992 101.9 99.2992 102.5 98.8992C102.7 98.7992 102.8 98.6992 103 98.5992C103.1 98.4992 103.5 98.2992 103.2 98.4992C103.6 98.2992 104 97.9992 104.4 97.7992C108.4 95.4992 112.7 93.8992 117.3 93.1992C120.5 92.6992 119.8 87.6992 116.5 88.1992C111.5 88.9992 106.7 90.6992 102.3 93.1992C100.2 94.3992 98.1 95.6992 96.3 97.1992C93.8 99.2992 97 103.199 99.5 101.099Z" fill="#4BA9EF"/>
<path d="M104 144.399C104.3 144.999 104.1 145.599 103.4 145.699L98.4001 146.599C97.7001 146.699 96.9001 146.299 96.6001 145.799L87.5001 129.599C87.2001 128.999 87.3001 128.099 87.7001 127.599L91.1001 123.799C91.5001 123.299 92.2001 123.399 92.5001 123.999L104 144.399Z" fill="#EAEADC"/>
<path d="M92.4001 122.199L105.4 145.299C109.1 142.799 110.3 137.899 108.1 133.899L103.5 125.699C101.3 121.799 96.4001 120.299 92.4001 122.199Z" fill="#4BA9EF"/>
<path d="M106 147.199L105.4 147.499C104.6 147.899 103.6 147.699 103.2 146.899L89.9002 123.399C89.5002 122.599 89.7002 121.599 90.5002 121.199L91.1002 120.899C91.9002 120.499 92.9002 120.699 93.3002 121.499L106.6 144.999C107.1 145.699 106.8 146.699 106 147.199Z" fill="#F4A700"/>
<path d="M145.8 125.701C146 126.301 146.6 126.501 147.2 126.101L151.2 123.001C151.7 122.601 152 121.701 151.8 121.101L145.8 103.501C145.6 102.901 144.9 102.301 144.2 102.301H139.1C138.4 102.301 138.1 102.801 138.3 103.401L145.8 125.701Z" fill="#EAEADC"/>
<path d="M137.1 102.301L145.6 127.401C141.3 128.501 136.8 126.101 135.3 121.801L132.3 112.901C130.8 108.701 133 104.001 137.1 102.301Z" fill="#4BA9EF"/>
<path d="M146.6 129.1L147.3 128.9C148.2 128.6 148.6 127.7 148.3 126.8L139.6 101.2C139.3 100.3 138.4 99.9001 137.5 100.2L136.8 100.4C135.9 100.7 135.5 101.6 135.8 102.5L144.5 128.1C144.8 128.9 145.7 129.4 146.6 129.1Z" fill="#F4A700"/>
<path d="M430.323 162.877C451.573 157.948 464.805 136.727 459.877 115.477C454.949 94.2263 433.727 80.9946 412.477 85.9227C391.227 90.8507 377.995 112.072 382.923 133.323C387.851 154.573 409.073 167.805 430.323 162.877Z" fill="#A9DBF5"/>
<path d="M432.707 114.196L432.307 113.796L439.207 106.896C440.707 105.396 440.707 103.096 439.207 101.596L435.707 98.0961C434.007 96.3961 434.007 93.6961 435.707 92.0961L443.307 84.4961L443.707 84.8961L436.107 92.4961C434.607 93.9961 434.607 96.2961 436.107 97.7961L439.607 101.296C441.307 102.996 441.307 105.696 439.607 107.296L432.707 114.196Z" fill="#FFFFFD"/>
<path d="M429.207 117.296C428.607 116.696 428.607 115.596 429.207 114.996L431.507 112.696C432.107 112.096 433.207 112.096 433.807 112.696C434.407 113.296 434.407 114.396 433.807 114.996L431.507 117.296C430.907 117.896 429.907 117.896 429.207 117.296Z" fill="#E5E5DA"/>
<path d="M427.507 140.597C419.607 148.497 408.907 149.597 402.907 143.697C397.007 137.797 398.107 127.097 406.007 119.097C413.907 111.197 425.707 108.997 431.607 114.997C437.507 120.897 435.407 132.697 427.507 140.597Z" fill="#FFFFFD"/>
<path d="M405.307 141.196C399.707 135.596 400.407 125.696 407.207 117.896C406.807 118.296 406.307 118.696 405.907 119.096C398.007 126.996 396.907 137.696 402.807 143.696C408.707 149.596 419.407 148.496 427.407 140.596C427.807 140.196 428.207 139.796 428.607 139.296C420.907 146.096 411.007 146.796 405.307 141.196Z" fill="#F4F4ED"/>
<path d="M423.007 125.396L430.607 132.996C433.407 127.496 433.707 121.496 430.907 117.496L423.007 125.396Z" fill="#4BA9EF"/>
<path d="M421.107 123.497L413.507 115.897C419.007 113.097 425.007 112.797 429.007 115.597L421.107 123.497Z" fill="#4BA9EF"/>
<path d="M423.107 126.498C421.707 127.898 419.807 128.398 418.907 127.498C418.007 126.598 418.507 124.698 419.907 123.298C421.307 121.898 423.207 121.398 424.107 122.298C425.007 123.098 424.607 124.998 423.107 126.498Z" fill="#F4A700"/>
<path d="M488.5 270C510.315 270 528 252.315 528 230.5C528 208.685 510.315 191 488.5 191C466.685 191 449 208.685 449 230.5C449 252.315 466.685 270 488.5 270Z" fill="#A9DBF5"/>
<path d="M508 210.901L462.5 231.701C455.3 235.001 452.2 243.501 455.4 250.701C458.7 257.901 467.2 261.001 474.4 257.801C480.1 255.201 483.2 249.401 482.7 243.501L502.8 234.301C506.9 238.501 513.4 240.001 519 237.401C526.2 234.101 529.3 225.601 526.1 218.401C522.9 211.401 515 208.201 508 210.901Z" fill="#FFFFFD"/>
<path d="M518.7 234.301C513 236.901 506.6 235.501 502.5 231.201L482.4 240.401C482.9 246.301 479.8 252.101 474.1 254.701C466.9 258.001 458.4 254.801 455.1 247.601C454.7 246.601 454.3 245.701 454.1 244.701C454.1 246.701 454.5 248.701 455.4 250.601C458.7 257.801 467.2 260.901 474.4 257.701C480.1 255.101 483.2 249.301 482.7 243.401L502.8 234.201C506.9 238.401 513.4 239.901 519 237.301C525.2 234.401 528.4 227.701 527 221.301C527.1 226.701 524 231.901 518.7 234.301Z" fill="#F4F4ED"/>
<path d="M477.3 239.9C479.6 244.9 477.4 250.8 472.4 253C467.4 255.3 461.5 253.1 459.3 248.1C457 243.1 459.2 237.2 464.2 235C469.1 232.7 475 234.9 477.3 239.9Z" fill="#EAEADC"/>
<path d="M473.2 240.3C473 239.9 472.5 239.7 472 239.9L470.1 240.8C469.7 241 469.1 240.8 468.9 240.4L468 238.5C467.8 238.1 467.3 237.9 466.8 238.1L464.4 239.2C464 239.4 463.8 239.9 464 240.4L464.9 242.3C465.1 242.7 464.9 243.3 464.5 243.5L462.6 244.4C462.2 244.6 462 245.1 462.2 245.6L463.3 248C463.5 248.4 464 248.6 464.5 248.4L466.4 247.5C466.8 247.3 467.4 247.5 467.6 247.9L468.5 249.8C468.7 250.2 469.2 250.4 469.7 250.2L472.1 249.1C472.5 248.9 472.7 248.4 472.5 247.9L471.6 246C471.4 245.6 471.6 245 472 244.8L473.9 243.9C474.3 243.7 474.5 243.2 474.3 242.7L473.2 240.3Z" fill="#BCBBAD"/>
<path d="M522.2 219.301C524.5 224.301 522.3 230.201 517.3 232.401C512.3 234.701 506.4 232.501 504.2 227.501C501.9 222.501 504.1 216.601 509.1 214.401C514.1 212.101 519.9 214.301 522.2 219.301Z" fill="#EAEADC"/>
<path d="M513.6 219.101C513.9 219.901 513.6 220.801 512.8 221.201C512 221.501 511.1 221.201 510.7 220.401C510.4 219.601 510.7 218.701 511.5 218.301C512.3 217.901 513.3 218.301 513.6 219.101Z" fill="#3886CD"/>
<path d="M516.6 226.101C516.9 226.901 516.6 227.801 515.8 228.201C515 228.501 514.1 228.201 513.7 227.401C513.4 226.601 513.7 225.701 514.5 225.301C515.3 224.901 516.2 225.301 516.6 226.101Z" fill="#3886CD"/>
<path d="M517.7 223.202C516.9 223.502 516 223.202 515.6 222.402C515.3 221.602 515.6 220.702 516.4 220.302C517.2 220.002 518.1 220.302 518.5 221.102C518.9 221.902 518.5 222.902 517.7 223.202Z" fill="#3886CD"/>
<path d="M510.8 226.202C510 226.502 509.1 226.202 508.7 225.402C508.4 224.602 508.7 223.702 509.5 223.302C510.3 223.002 511.2 223.302 511.6 224.102C512 224.902 511.6 225.802 510.8 226.202Z" fill="#3886CD"/>
<path d="M494.2 223L479.8 229.6C479.4 229.8 478.9 229.6 478.7 229.2C478.5 228.8 478.7 228.3 479.1 228.1L493.5 221.5C493.9 221.3 494.4 221.5 494.6 221.9C494.8 222.3 494.7 222.8 494.2 223Z" fill="#EAEADC"/>
<path d="M495.8 226.401L481.4 233.001C481 233.201 480.5 233.001 480.3 232.601C480.1 232.201 480.3 231.701 480.7 231.501L495.1 224.901C495.5 224.701 496 224.901 496.2 225.301C496.4 225.701 496.2 226.201 495.8 226.401Z" fill="#EAEADC"/>
<path d="M497.4 229.801L483 236.401C482.6 236.601 482.1 236.401 481.9 236.001C481.7 235.601 481.9 235.101 482.3 234.901L496.7 228.301C497.1 228.101 497.6 228.301 497.8 228.701C498 229.101 497.8 229.601 497.4 229.801Z" fill="#EAEADC"/>
<g opacity="0.3">
<path opacity="0.3" d="M272.5 33.4L271.3 30.5L270.2 33.4L267.2 34.6L270.2 35.8L271.3 38.7L272.5 35.8L275.5 34.6L272.5 33.4Z" fill="#FFFFFD"/>
<g opacity="0.3">
<g opacity="0.3">
<path opacity="0.3" d="M143.7 150.199L142.5 147.299L141.3 150.199L138.3 151.399L141.3 152.599L142.5 155.499L143.7 152.599L146.7 151.399L143.7 150.199Z" fill="#FFFFFD"/>
<path opacity="0.3" d="M175.2 101.099L173.2 96.1992L171.2 101.099L166.1 103.199L171.2 105.199L173.2 110.199L175.2 105.199L180.4 103.199L175.2 101.099Z" fill="#FFFFFD"/>
<path opacity="0.3" d="M136.2 100.598L135.5 98.8984L134.8 100.598L133 101.398L134.8 102.098L135.5 103.898L136.2 102.098L138.1 101.398L136.2 100.598Z" fill="#FFFFFD"/>
<path opacity="0.3" d="M143.2 182.698L142.5 180.898L141.8 182.698L140 183.398L141.8 184.198L142.5 185.898L143.2 184.198L145 183.398L143.2 182.698Z" fill="#FFFFFD"/>
<path opacity="0.3" d="M86.5002 188.198L85.8002 186.398L85.0002 188.198L83.2002 188.898L85.0002 189.698L85.8002 191.398L86.5002 189.698L88.3002 188.898L86.5002 188.198Z" fill="#FFFFFD"/>
<path opacity="0.3" d="M95.0001 217.5L93.0001 212.5L91.0001 217.5L85.9001 219.5L91.0001 221.6L93.0001 226.5L95.0001 221.6L100.2 219.5L95.0001 217.5Z" fill="#FFFFFD"/>
<path opacity="0.3" d="M98.1003 278.199L97.0003 275.299L95.8003 278.199L92.8003 279.399L95.8003 280.599L97.0003 283.499L98.1003 280.599L101.1 279.399L98.1003 278.199Z" fill="#FFFFFD"/>
<path opacity="0.3" d="M213.7 97.9L212.5 95L211.4 97.9L208.4 99.1L211.4 100.3L212.5 103.2L213.7 100.3L216.7 99.1L213.7 97.9Z" fill="#FFFFFD"/>
<path opacity="0.3" d="M160.6 73.8992L159.9 72.1992L159.2 73.8992L157.4 74.6992L159.2 75.3992L159.9 77.1992L160.6 75.3992L162.5 74.6992L160.6 73.8992Z" fill="#FFFFFD"/>
<path opacity="0.3" d="M241.4 56.9992L240.7 55.1992L240 56.9992L238.1 57.6992L240 58.4992L240.7 60.1992L241.4 58.4992L243.2 57.6992L241.4 56.9992Z" fill="#FFFFFD"/>
</g>
<g opacity="0.3">
<path opacity="0.3" d="M396.1 150.199L397.3 147.299L398.5 150.199L401.5 151.399L398.5 152.599L397.3 155.499L396.1 152.599L393.1 151.399L396.1 150.199Z" fill="#FFFFFD"/>
<path opacity="0.3" d="M364.6 101.099L366.6 96.1992L368.6 101.099L373.7 103.199L368.6 105.199L366.6 110.199L364.6 105.199L359.4 103.199L364.6 101.099Z" fill="#FFFFFD"/>
<path opacity="0.3" d="M403.6 100.598L404.3 98.8984L405 100.598L406.8 101.398L405 102.098L404.3 103.898L403.6 102.098L401.7 101.398L403.6 100.598Z" fill="#FFFFFD"/>
<path opacity="0.3" d="M396.6 182.698L397.3 180.898L398 182.698L399.8 183.398L398 184.198L397.3 185.898L396.6 184.198L394.8 183.398L396.6 182.698Z" fill="#FFFFFD"/>
<path opacity="0.3" d="M453.3 188.198L454 186.398L454.8 188.198L456.6 188.898L454.8 189.698L454 191.398L453.3 189.698L451.5 188.898L453.3 188.198Z" fill="#FFFFFD"/>
<path opacity="0.3" d="M444.8 217.5L446.8 212.5L448.8 217.5L453.9 219.5L448.8 221.6L446.8 226.5L444.8 221.6L439.6 219.5L444.8 217.5Z" fill="#FFFFFD"/>
<path opacity="0.3" d="M441.7 278.199L442.8 275.299L444 278.199L447 279.399L444 280.599L442.8 283.499L441.7 280.599L438.7 279.399L441.7 278.199Z" fill="#FFFFFD"/>
<path opacity="0.3" d="M326.1 97.9L327.3 95L328.4 97.9L331.4 99.1L328.4 100.3L327.3 103.2L326.1 100.3L323.1 99.1L326.1 97.9Z" fill="#FFFFFD"/>
<path opacity="0.3" d="M379.2 73.8992L379.9 72.1992L380.6 73.8992L382.4 74.6992L380.6 75.3992L379.9 77.1992L379.2 75.3992L377.3 74.6992L379.2 73.8992Z" fill="#FFFFFD"/>
<path opacity="0.3" d="M298.4 56.9992L299.1 55.1992L299.8 56.9992L301.7 57.6992L299.8 58.4992L299.1 60.1992L298.4 58.4992L296.6 57.6992L298.4 56.9992Z" fill="#FFFFFD"/>
</g>
</g>
</g>
<path d="M265.139 56.5548C272.494 53.8871 274.234 43.723 268.232 37.8807C286.33 34.3993 288.919 9.97621 275.455 1.65289C270.936 0.181917 266.159 -0.315334 261.436 0.193587C256.713 0.702508 252.149 2.20616 248.043 4.60644C243.937 7.00672 240.382 10.2497 237.608 14.1237C234.834 17.9978 232.904 22.4159 231.944 27.0897C230.473 26.4869 228.9 26.1744 227.31 26.1693C225.605 26.1728 223.917 26.5137 222.343 27.1725C220.769 27.8314 219.339 28.7952 218.136 30.009C216.933 31.2229 215.979 32.6629 215.33 34.247C214.68 35.8311 214.348 37.5281 214.351 39.2412C214.35 40.7645 214.629 42.275 215.175 43.6963C207.78 44.8392 201.087 48.7451 196.435 54.6324C191.783 60.5197 189.516 67.9543 190.086 75.4489C190.657 82.9435 194.023 89.9454 199.512 95.0537C205.001 100.162 212.207 103 219.689 103H231.878C276.876 99.4919 277.925 62.3304 265.139 56.5548Z" fill="#D4EAFC"/>
<path d="M319.812 53.4659C320.885 50.005 320.974 46.3102 320.068 42.801C319.162 39.2919 317.298 36.109 314.687 33.6138C312.076 31.1187 308.824 29.4112 305.299 28.6853C301.773 27.9594 298.117 28.2442 294.744 29.5073C294.023 23.0027 291.463 16.8437 287.369 11.7627C283.275 6.68174 277.819 2.89254 271.65 0.845703C285.17 9.23054 282.57 33.8341 264.396 37.3412C270.423 43.2267 268.676 53.4659 261.289 56.1534C274.13 61.9717 273.076 99.4078 227.888 102.942H316.652C322.936 102.977 328.997 100.59 333.593 96.271C338.189 91.9515 340.974 86.0255 341.378 79.7052C341.781 73.3849 339.773 67.1481 335.765 62.2705C331.756 57.3929 326.049 54.2432 319.812 53.4659Z" fill="#A9DBF5"/>
</svg>
