<svg width="528" height="306" viewBox="0 0 528 306" fill="none" xmlns="http://www.w3.org/2000/svg">
<path d="M389.454 102.706C402.813 97.8609 405.972 79.4026 395.073 68.7927C427.938 62.4704 432.64 18.1172 408.19 3.00171C399.983 0.330367 391.308 -0.572658 382.73 0.351561C374.152 1.27578 365.865 4.00647 358.409 8.36546C350.952 12.7245 344.495 18.6138 339.457 25.6492C334.42 32.6846 330.915 40.708 329.172 49.1959C326.5 48.1011 323.643 47.5336 320.757 47.5245C317.66 47.5308 314.595 48.1499 311.736 49.3463C308.877 50.5428 306.281 52.2931 304.096 54.4975C301.911 56.7019 300.179 59.3171 299 62.1938C297.82 65.0705 297.217 68.1524 297.223 71.2635C297.22 74.0299 297.727 76.7729 298.718 79.3541C285.288 81.4297 273.134 88.5228 264.686 99.2144C256.239 109.906 252.121 123.408 253.157 137.018C254.193 150.629 260.307 163.344 270.274 172.621C280.242 181.898 293.329 187.052 306.916 187.052H329.052C410.77 180.681 412.675 113.194 389.454 102.706Z" fill="#D4EAFC"/>
<path d="M488.743 97.0963C490.692 90.8112 490.853 84.1013 489.208 77.7285C487.563 71.3558 484.178 65.5755 479.437 61.0442C474.696 56.5129 468.789 53.4121 462.387 52.0938C455.985 50.7756 449.344 51.2928 443.219 53.5867C441.909 41.7741 437.26 30.5891 429.825 21.3618C422.39 12.1346 412.482 5.25326 401.279 1.53613C425.833 16.7633 421.111 61.4443 388.106 67.8133C399.051 78.5016 395.879 97.0964 382.464 101.977C405.783 112.543 403.87 180.529 321.806 186.946H483.004C494.417 187.01 505.423 182.676 513.77 174.832C522.117 166.988 527.175 156.226 527.908 144.748C528.641 133.27 524.994 121.944 517.714 113.086C510.434 104.228 500.07 98.508 488.743 97.0963Z" fill="#A9DBF5"/>
<path d="M67.9791 197.166C74.634 194.753 76.2077 185.557 70.778 180.271C87.1511 177.122 89.4935 155.026 77.3128 147.495C73.2243 146.165 68.9024 145.715 64.6292 146.175C60.3559 146.636 56.2273 147.996 52.5127 150.168C48.7981 152.339 45.5811 155.273 43.0714 158.778C40.5617 162.283 38.8159 166.28 37.9477 170.508C36.6164 169.963 35.1931 169.68 33.7554 169.676C32.2126 169.679 30.6855 169.987 29.2613 170.583C27.8371 171.179 26.5438 172.051 25.4551 173.15C24.3664 174.248 23.5037 175.551 22.9162 176.984C22.3287 178.417 22.028 179.952 22.0311 181.502C22.0298 182.88 22.2824 184.247 22.7759 185.533C16.0854 186.567 10.0303 190.1 5.82185 195.427C1.61343 200.753 -0.43791 207.479 0.0782457 214.26C0.594401 221.04 3.63998 227.375 8.60567 231.997C13.5714 236.618 20.091 239.186 26.8602 239.186H37.8877C78.5982 236.012 79.5471 202.391 67.9791 197.166Z" fill="#D4EAFC"/>
<path d="M117.443 194.371C118.414 191.24 118.494 187.897 117.674 184.722C116.855 181.548 115.168 178.668 112.806 176.41C110.445 174.153 107.502 172.608 104.312 171.952C101.123 171.295 97.8149 171.553 94.7636 172.695C94.111 166.81 91.795 161.238 88.091 156.641C84.3871 152.045 79.451 148.616 73.8698 146.765C86.1021 154.351 83.7497 176.61 67.3073 179.783C72.7599 185.107 71.1796 194.371 64.4965 196.802C76.1135 202.066 75.1605 235.935 34.2776 239.133H114.584C120.27 239.164 125.752 237.005 129.911 233.097C134.069 229.19 136.589 223.828 136.954 218.11C137.319 212.392 135.502 206.749 131.876 202.337C128.249 197.924 123.086 195.074 117.443 194.371Z" fill="#A9DBF5"/>
<g clip-path="url(#clip0)">
<path d="M77 279.379L113.212 245.949H403.053L435 279.379H77Z" fill="#434F6C"/>
<path d="M398.644 249.768H113.501C111.204 249.721 109.018 248.77 107.421 247.124C105.823 245.478 104.943 243.269 104.972 240.978V63.1315C104.953 61.9961 105.158 60.868 105.577 59.8118C105.995 58.7556 106.618 57.7918 107.41 56.9756C108.202 56.1593 109.148 55.5066 110.193 55.0547C111.238 54.6028 112.362 54.3606 113.501 54.3418H398.644C399.783 54.3606 400.907 54.6028 401.952 55.0547C402.997 55.5066 403.943 56.1593 404.735 56.9756C405.527 57.7918 406.15 58.7556 406.568 59.8118C406.986 60.868 407.192 61.9961 407.173 63.1315V240.978C407.202 243.269 406.322 245.478 404.724 247.124C403.126 248.77 400.941 249.721 398.644 249.768Z" fill="#6E778D"/>
<path d="M387.44 68.0664H124.524C120.193 68.0664 116.681 71.5662 116.681 75.8835V234.602C116.681 238.919 120.193 242.419 124.524 242.419H387.44C391.771 242.419 395.282 238.919 395.282 234.602V75.8835C395.282 71.5662 391.771 68.0664 387.44 68.0664Z" fill="#D4EFFF"/>
<path d="M103.563 138.636C100.841 138.636 98.23 137.559 96.3052 135.64C94.3804 133.721 93.2991 131.119 93.2991 128.406V121.201H114.007V128.406C114.007 129.765 113.736 131.11 113.209 132.363C112.682 133.616 111.91 134.752 110.937 135.704C109.965 136.657 108.812 137.407 107.546 137.91C106.28 138.413 104.926 138.66 103.563 138.636Z" fill="#EFC036"/>
<path d="M146.677 138.636H146.424C143.591 138.725 140.835 137.704 138.747 135.792C136.66 133.879 135.407 131.228 135.257 128.406V121.201H157.845V128.406C157.695 131.228 156.442 133.879 154.355 135.792C152.267 137.704 149.511 138.725 146.677 138.636Z" fill="#EFC036"/>
<path d="M189.937 138.636H189.684C188.254 138.724 186.82 138.528 185.467 138.06C184.113 137.592 182.866 136.862 181.797 135.91C180.728 134.959 179.86 133.806 179.241 132.518C178.622 131.23 178.265 129.832 178.191 128.406V121.201H201.718V128.406C201.646 129.858 201.281 131.281 200.644 132.59C200.007 133.898 199.111 135.065 198.011 136.02C196.911 136.975 195.629 137.699 194.242 138.149C192.854 138.598 191.39 138.764 189.937 138.636Z" fill="#EFC036"/>
<path d="M233.883 138.636H233.63C230.703 138.835 227.817 137.87 225.602 135.952C223.388 134.035 222.025 131.322 221.812 128.406V121.201H245.7V128.406C245.487 131.322 244.125 134.035 241.91 135.952C239.695 137.87 236.809 138.835 233.883 138.636Z" fill="#EFC036"/>
<path d="M277.937 138.636H277.72C276.281 138.739 274.836 138.554 273.47 138.093C272.104 137.632 270.843 136.904 269.763 135.951C268.683 134.998 267.804 133.84 267.178 132.544C266.552 131.249 266.192 129.842 266.119 128.406V121.201H289.538V128.406C289.464 129.842 289.104 131.249 288.479 132.544C287.853 133.84 286.974 134.998 285.894 135.951C284.813 136.904 283.553 137.632 282.187 138.093C280.821 138.554 279.376 138.739 277.937 138.636Z" fill="#EFC036"/>
<path d="M321.304 138.636H321.088C319.649 138.739 318.204 138.554 316.838 138.093C315.471 137.632 314.211 136.904 313.131 135.951C312.05 134.998 311.171 133.84 310.546 132.544C309.92 131.249 309.56 129.842 309.487 128.406V121.201H332.905V128.406C332.832 129.842 332.472 131.249 331.846 132.544C331.221 133.84 330.342 134.998 329.262 135.951C328.181 136.904 326.921 137.632 325.555 138.093C324.188 138.554 322.743 138.739 321.304 138.636Z" fill="#EFC036"/>
<path d="M365.178 138.636H364.961C362.091 138.784 359.279 137.789 357.144 135.87C355.01 133.952 353.727 131.267 353.577 128.406V121.201H376.562V128.406C376.413 131.267 375.129 133.952 372.995 135.87C370.86 137.789 368.048 138.784 365.178 138.636Z" fill="#EFC036"/>
<path d="M408.365 138.636H408.148C406.783 138.655 405.427 138.406 404.159 137.901C402.891 137.397 401.736 136.648 400.759 135.698C399.781 134.747 399.002 133.614 398.466 132.363C397.929 131.111 397.645 129.767 397.631 128.406V121.201H418.881V128.406C418.867 129.767 418.584 131.111 418.047 132.363C417.511 133.614 416.731 134.747 415.754 135.698C414.777 136.648 413.622 137.397 412.353 137.901C411.085 138.406 409.73 138.655 408.365 138.636Z" fill="#EFC036"/>
<path d="M124.632 138.636H124.415C123.045 138.66 121.684 138.414 120.41 137.913C119.136 137.411 117.973 136.663 116.99 135.713C116.006 134.762 115.22 133.628 114.677 132.374C114.134 131.12 113.845 129.771 113.826 128.406V121.201H135.257V128.406C135.234 129.773 134.94 131.122 134.393 132.376C133.847 133.631 133.058 134.765 132.071 135.715C131.084 136.665 129.919 137.412 128.643 137.913C127.367 138.415 126.004 138.66 124.632 138.636Z" fill="#F4EFE9"/>
<path d="M168.036 138.636H167.855C166.523 138.622 165.207 138.346 163.983 137.824C162.758 137.302 161.649 136.544 160.719 135.593C159.789 134.643 159.056 133.519 158.563 132.285C158.069 131.052 157.825 129.733 157.845 128.406V121.201H178.191V128.406C178.21 129.746 177.962 131.076 177.459 132.318C176.957 133.561 176.212 134.692 175.266 135.644C174.321 136.597 173.195 137.352 171.953 137.866C170.712 138.379 169.38 138.641 168.036 138.636Z" fill="#F4EFE9"/>
<path d="M211.838 138.636H211.621C210.284 138.627 208.962 138.355 207.731 137.835C206.501 137.315 205.385 136.559 204.448 135.608C203.511 134.658 202.772 133.532 202.273 132.296C201.773 131.06 201.523 129.738 201.538 128.406V121.201H221.92V128.406C221.935 129.738 221.685 131.06 221.186 132.296C220.686 133.532 219.947 134.658 219.01 135.608C218.073 136.559 216.958 137.315 215.727 137.835C214.496 138.355 213.174 138.627 211.838 138.636Z" fill="#F4EFE9"/>
<path d="M256.072 138.636H255.856C254.519 138.627 253.197 138.355 251.966 137.835C250.735 137.315 249.62 136.559 248.683 135.608C247.746 134.658 247.007 133.532 246.507 132.296C246.008 131.06 245.758 129.738 245.773 128.406V121.201H266.155V128.406C266.17 129.738 265.92 131.06 265.421 132.296C264.921 133.532 264.182 134.658 263.245 135.608C262.308 136.559 261.192 137.315 259.962 137.835C258.731 138.355 257.409 138.627 256.072 138.636Z" fill="#F4EFE9"/>
<path d="M299.548 138.636C298.226 138.613 296.921 138.33 295.708 137.802C294.496 137.275 293.4 136.514 292.483 135.564C291.567 134.613 290.847 133.491 290.367 132.263C289.886 131.035 289.653 129.724 289.682 128.406V121.201H309.595V128.406C309.624 129.739 309.385 131.065 308.893 132.305C308.401 133.545 307.666 134.674 306.73 135.627C305.794 136.58 304.677 137.337 303.444 137.854C302.21 138.371 300.886 138.637 299.548 138.636Z" fill="#F4EFE9"/>
<path d="M343.386 138.636C342.033 138.641 340.693 138.38 339.441 137.869C338.19 137.357 337.052 136.605 336.092 135.655C335.132 134.705 334.37 133.576 333.848 132.332C333.326 131.088 333.055 129.754 333.05 128.406V121.201H353.902V128.406C353.898 129.769 353.621 131.118 353.088 132.374C352.554 133.63 351.776 134.767 350.797 135.72C349.818 136.672 348.658 137.42 347.386 137.921C346.113 138.422 344.753 138.665 343.386 138.636Z" fill="#F4EFE9"/>
<path d="M387.259 138.636H387.043C385.677 138.655 384.322 138.406 383.054 137.901C381.786 137.397 380.63 136.648 379.653 135.698C378.676 134.747 377.897 133.614 377.36 132.363C376.824 131.111 376.54 129.767 376.526 128.406V121.201H397.776V128.406C397.738 131.151 396.61 133.769 394.638 135.687C392.667 137.605 390.014 138.665 387.259 138.636Z" fill="#F4EFE9"/>
<mask id="mask0" style="mask-type:alpha" maskUnits="userSpaceOnUse" x="93" y="67" width="326" height="55">
<path d="M398.644 72.3529C398.077 70.9615 397.107 69.7697 395.859 68.9293C394.61 68.0889 393.139 67.6379 391.633 67.6338H121.199C119.426 67.6283 117.691 68.1406 116.208 69.1073C114.724 70.074 113.557 71.4528 112.851 73.0733L93.1184 121.236H418.773L398.644 72.3529Z" fill="#FCD26D"/>
</mask>
<g mask="url(#mask0)">
<path d="M398.644 72.3529C398.077 70.9615 397.107 69.7697 395.859 68.9293C394.61 68.0889 393.139 67.6379 391.633 67.6338H121.199C119.426 67.6283 117.691 68.1406 116.208 69.1073C114.724 70.074 113.557 71.4528 112.851 73.0733L93.1184 121.236H418.773L398.644 72.3529Z" fill="#FCD26D"/>
<path d="M266.191 60.7178H245.7V147.75H266.191V60.7178Z" fill="white"/>
<path d="M219.029 144.94L198.755 141.986L210.609 56.1787L229.763 58.232L219.029 144.94Z" fill="white"/>
<path d="M173.529 141.338L153.688 136.222L176.999 52L193.153 57.1153L173.529 141.338Z" fill="white"/>
<path d="M292.537 144.94L312.812 141.986L298.645 55.7822L281.37 58.6281L292.537 144.94Z" fill="white"/>
<path d="M383.248 141.013L402.474 133.989L372.442 52.2881L355.023 58.8083L383.248 141.013Z" fill="white"/>
<path d="M128.463 141.013L109.201 133.989L139.269 52.2881L156.688 58.8083L128.463 141.013Z" fill="white"/>
<path d="M338.037 141.338L357.878 136.222L334.532 52.3604L316.317 57.0434L338.037 141.338Z" fill="white"/>
</g>
<path d="M256 63.2756C257.757 63.2756 259.18 61.8564 259.18 60.1056C259.18 58.3548 257.757 56.9355 256 56.9355C254.244 56.9355 252.82 58.3548 252.82 60.1056C252.82 61.8564 254.244 63.2756 256 63.2756Z" fill="#434F6C"/>
<path d="M239.629 204.249H272.154C274.071 204.249 275.91 203.49 277.265 202.139C278.621 200.788 279.382 198.955 279.382 197.044C279.382 195.134 278.621 193.301 277.265 191.95C275.91 190.599 274.071 189.84 272.154 189.84H239.629C239.379 189.84 239.131 189.889 238.901 189.986C238.671 190.082 238.462 190.223 238.287 190.401C238.112 190.579 237.974 190.79 237.882 191.021C237.79 191.253 237.745 191.5 237.749 191.749C237.794 192.214 238.012 192.645 238.36 192.959C238.707 193.272 239.16 193.444 239.629 193.442H272.154C273.081 193.488 273.955 193.888 274.594 194.559C275.233 195.23 275.589 196.119 275.588 197.044C275.589 197.969 275.233 198.859 274.594 199.53C273.955 200.201 273.081 200.601 272.154 200.647H239.629C239.254 200.778 238.93 201.022 238.701 201.344C238.472 201.667 238.349 202.053 238.349 202.448C238.349 202.843 238.472 203.229 238.701 203.552C238.93 203.874 239.254 204.118 239.629 204.249Z" fill="#434F6C"/>
<path d="M275.262 193.442C275.569 193.441 275.867 193.343 276.114 193.162C276.361 192.98 276.544 192.725 276.636 192.434L286.61 159.761H231.244L237.496 192.182C237.526 192.367 237.594 192.543 237.695 192.701C237.796 192.859 237.929 192.995 238.085 193.099C238.241 193.204 238.416 193.276 238.601 193.31C238.786 193.344 238.976 193.34 239.159 193.298C239.342 193.264 239.516 193.194 239.672 193.091C239.828 192.989 239.962 192.857 240.066 192.703C240.17 192.549 240.243 192.376 240.279 192.193C240.316 192.011 240.316 191.824 240.279 191.641L234.677 162.499H282.707L273.925 191.497C273.864 191.674 273.84 191.862 273.855 192.049C273.87 192.236 273.923 192.417 274.011 192.583C274.099 192.748 274.22 192.894 274.367 193.011C274.514 193.128 274.683 193.213 274.865 193.262C274.979 193.357 275.116 193.419 275.262 193.442Z" fill="#434F6C"/>
<path d="M284.623 162.606C284.914 162.603 285.198 162.511 285.437 162.344C285.675 162.177 285.858 161.942 285.96 161.669L289.14 152.808H296.368C296.708 152.754 297.017 152.581 297.24 152.32C297.463 152.059 297.586 151.728 297.586 151.385C297.586 151.042 297.463 150.71 297.24 150.45C297.017 150.189 296.708 150.016 296.368 149.962H287.116L283.285 160.769C283.223 160.944 283.195 161.129 283.205 161.315C283.215 161.501 283.261 161.682 283.342 161.85C283.423 162.017 283.536 162.167 283.675 162.291C283.814 162.415 283.977 162.509 284.153 162.57C284.305 162.615 284.465 162.627 284.623 162.606Z" fill="#434F6C"/>
<path d="M296.296 153.817H303.994C304.617 153.817 305.214 153.57 305.655 153.131C306.095 152.692 306.343 152.096 306.343 151.475C306.343 150.851 306.096 150.251 305.657 149.807C305.217 149.362 304.62 149.107 303.994 149.098H296.296C295.67 149.107 295.072 149.362 294.633 149.807C294.193 150.251 293.947 150.851 293.947 151.475C293.947 152.096 294.194 152.692 294.635 153.131C295.075 153.57 295.673 153.817 296.296 153.817Z" fill="#434F6C"/>
<path d="M272.841 218.406C276.434 218.406 279.346 215.503 279.346 211.922C279.346 208.341 276.434 205.438 272.841 205.438C269.248 205.438 266.336 208.341 266.336 211.922C266.336 215.503 269.248 218.406 272.841 218.406Z" fill="#434F6C"/>
<path d="M242.267 218.406C245.86 218.406 248.772 215.503 248.772 211.922C248.772 208.341 245.86 205.438 242.267 205.438C238.674 205.438 235.762 208.341 235.762 211.922C235.762 215.503 238.674 218.406 242.267 218.406Z" fill="#434F6C"/>
<path d="M269.805 211.921C269.805 212.52 269.983 213.105 270.317 213.603C270.65 214.1 271.124 214.488 271.679 214.717C272.234 214.946 272.844 215.006 273.433 214.889C274.022 214.773 274.563 214.484 274.988 214.061C275.412 213.638 275.701 213.099 275.818 212.512C275.935 211.925 275.875 211.316 275.646 210.763C275.416 210.211 275.027 209.738 274.527 209.405C274.028 209.073 273.441 208.896 272.841 208.896C272.039 208.905 271.272 209.227 270.705 209.792C270.137 210.358 269.815 211.122 269.805 211.921Z" fill="#D4EFFF"/>
<path d="M238.906 211.921C238.906 212.52 239.084 213.105 239.417 213.603C239.751 214.1 240.225 214.488 240.78 214.717C241.334 214.946 241.945 215.006 242.534 214.889C243.123 214.773 243.664 214.484 244.088 214.061C244.513 213.638 244.802 213.099 244.919 212.512C245.036 211.925 244.976 211.316 244.746 210.763C244.516 210.211 244.127 209.738 243.628 209.405C243.129 209.073 242.542 208.896 241.941 208.896C241.139 208.905 240.373 209.227 239.805 209.792C239.238 210.358 238.915 211.122 238.906 211.921Z" fill="#D4EFFF"/>
<path d="M268.758 192.685C269.09 192.68 269.411 192.558 269.662 192.341C269.914 192.123 270.08 191.824 270.131 191.496L275.19 162.678C275.221 162.495 275.216 162.309 275.175 162.129C275.133 161.949 275.057 161.778 274.95 161.628C274.842 161.477 274.706 161.349 274.549 161.251C274.392 161.153 274.217 161.087 274.034 161.056C273.661 160.993 273.277 161.079 272.966 161.294C272.655 161.51 272.442 161.838 272.371 162.209L267.348 191.028C267.317 191.21 267.322 191.396 267.364 191.577C267.405 191.757 267.482 191.927 267.589 192.077C267.696 192.228 267.833 192.356 267.99 192.454C268.147 192.552 268.322 192.618 268.505 192.649L268.758 192.685Z" fill="#434F6C"/>
<path d="M261.638 192.038C262 192.038 262.347 191.9 262.61 191.652C262.872 191.404 263.029 191.065 263.047 190.705L264.927 162.102C264.936 161.918 264.909 161.733 264.847 161.559C264.786 161.385 264.69 161.224 264.565 161.087C264.441 160.95 264.291 160.839 264.124 160.759C263.956 160.68 263.775 160.634 263.589 160.625C263.218 160.605 262.852 160.728 262.569 160.97C262.287 161.212 262.108 161.553 262.072 161.922L260.192 190.525C260.178 190.712 260.201 190.9 260.26 191.079C260.32 191.257 260.415 191.422 260.54 191.563C260.665 191.704 260.816 191.819 260.986 191.9C261.156 191.982 261.341 192.028 261.529 192.038H261.638Z" fill="#434F6C"/>
<path d="M246.857 192.685H247.073C247.259 192.659 247.438 192.596 247.6 192.5C247.761 192.404 247.901 192.276 248.012 192.125C248.123 191.974 248.203 191.802 248.247 191.62C248.29 191.438 248.297 191.249 248.266 191.064L243.712 162.246C243.65 161.875 243.445 161.544 243.142 161.322C242.838 161.1 242.459 161.005 242.086 161.057C241.9 161.083 241.721 161.146 241.56 161.243C241.399 161.339 241.258 161.466 241.147 161.617C241.036 161.768 240.957 161.94 240.913 162.122C240.869 162.304 240.863 162.493 240.894 162.678L245.447 191.497C245.506 191.827 245.679 192.127 245.937 192.344C246.194 192.562 246.519 192.682 246.857 192.685Z" fill="#434F6C"/>
<path d="M254.41 192.037C254.595 192.028 254.776 191.983 254.944 191.903C255.111 191.824 255.262 191.713 255.386 191.575C255.51 191.438 255.606 191.278 255.668 191.104C255.73 190.93 255.757 190.745 255.747 190.56L254.337 161.958C254.31 161.582 254.135 161.232 253.851 160.983C253.568 160.734 253.197 160.605 252.82 160.625C252.634 160.634 252.453 160.68 252.285 160.759C252.118 160.838 251.968 160.95 251.844 161.087C251.719 161.224 251.624 161.384 251.562 161.559C251.5 161.733 251.473 161.917 251.482 162.102L252.892 190.704C252.92 191.08 253.094 191.43 253.378 191.68C253.662 191.929 254.032 192.057 254.41 192.037Z" fill="#434F6C"/>
<path d="M236.015 172.548H281.515C281.889 172.548 282.247 172.4 282.511 172.137C282.776 171.873 282.924 171.516 282.924 171.143C282.924 170.771 282.776 170.413 282.511 170.15C282.247 169.886 281.889 169.738 281.515 169.738H236.015C235.641 169.738 235.283 169.886 235.018 170.15C234.754 170.413 234.605 170.771 234.605 171.143C234.605 171.516 234.754 171.873 235.018 172.137C235.283 172.4 235.641 172.548 236.015 172.548Z" fill="#434F6C"/>
<path d="M237.677 182.635H277.72C278.094 182.635 278.452 182.487 278.716 182.224C278.981 181.96 279.129 181.603 279.129 181.23C279.129 180.857 278.981 180.5 278.716 180.237C278.452 179.973 278.094 179.825 277.72 179.825H237.677C237.303 179.825 236.945 179.973 236.68 180.237C236.416 180.5 236.268 180.857 236.268 181.23C236.268 181.603 236.416 181.96 236.68 182.224C236.945 182.487 237.303 182.635 237.677 182.635Z" fill="#434F6C"/>
<path d="M416.713 305.964H95.359C92.9497 305.969 90.5632 305.5 88.336 304.584C86.1088 303.669 84.0847 302.324 82.3794 300.628C80.6741 298.931 79.3213 296.916 78.3982 294.698C77.4751 292.48 77 290.102 77 287.7V279.379H435V287.7C435 292.538 433.075 297.178 429.646 300.602C426.218 304.026 421.567 305.955 416.713 305.964Z" fill="#6E778D"/>
<path d="M194.201 249.66C194.201 250.076 194.119 250.488 193.959 250.873C193.799 251.257 193.565 251.607 193.27 251.901C192.974 252.195 192.624 252.429 192.238 252.588C191.852 252.748 191.439 252.83 191.021 252.83H154.881C154.462 252.834 154.046 252.756 153.658 252.598C153.27 252.44 152.918 252.207 152.622 251.912C152.325 251.616 152.091 251.265 151.933 250.878C151.775 250.492 151.696 250.077 151.701 249.66C151.696 249.242 151.775 248.827 151.933 248.441C152.091 248.054 152.325 247.703 152.622 247.407C152.918 247.112 153.27 246.879 153.658 246.721C154.046 246.563 154.462 246.485 154.881 246.489H191.021C191.864 246.489 192.673 246.823 193.27 247.418C193.866 248.012 194.201 248.819 194.201 249.66Z" fill="#03436B"/>
<path d="M365.756 249.66C365.756 250.079 365.673 250.494 365.511 250.881C365.349 251.268 365.111 251.619 364.812 251.914C364.513 252.209 364.158 252.441 363.768 252.599C363.378 252.756 362.96 252.834 362.54 252.83H326.364C325.943 252.834 325.526 252.756 325.136 252.599C324.746 252.441 324.391 252.209 324.092 251.914C323.793 251.619 323.555 251.268 323.393 250.881C323.231 250.494 323.147 250.079 323.147 249.66C323.147 249.24 323.231 248.825 323.393 248.438C323.555 248.051 323.793 247.7 324.092 247.405C324.391 247.11 324.746 246.878 325.136 246.72C325.526 246.563 325.943 246.485 326.364 246.489H362.504C362.924 246.485 363.342 246.563 363.732 246.72C364.122 246.878 364.477 247.11 364.776 247.405C365.075 247.7 365.312 248.051 365.474 248.438C365.637 248.825 365.72 249.24 365.72 249.66H365.756Z" fill="#03436B"/>
<path d="M213.897 274.624L225.824 263.601H287.586L298.103 274.624H213.897Z" fill="#4396CA"/>
<path d="M266.661 256.864H246.676V257.909H266.661V256.864Z" fill="white"/>
<path d="M123.331 271.13H100.961V272.175H123.331V271.13Z" fill="white"/>
<path d="M139.883 256.864H119.898V257.909H139.883V256.864Z" fill="white"/>
<path d="M131.354 263.385H111.369V264.429H131.354V263.385Z" fill="white"/>
<path d="M178.769 256.864H158.784V257.909H178.769V256.864Z" fill="white"/>
<path d="M168.65 263.385H148.665V264.429H168.65V263.385Z" fill="white"/>
<path d="M195.249 271.13H172.878V272.175H195.249V271.13Z" fill="white"/>
<path d="M216.608 256.864H196.623V257.909H216.608V256.864Z" fill="white"/>
<path d="M206.489 263.385H186.503V264.429H206.489V263.385Z" fill="white"/>
<path d="M159.579 272.751H137.209V273.796H159.579V272.751Z" fill="white"/>
<path d="M414.762 271.13H392.391V272.175H414.762V271.13Z" fill="white"/>
<path d="M395.861 256.864H375.875V257.909H395.861V256.864Z" fill="white"/>
<path d="M404.39 263.385H384.404V264.429H404.39V263.385Z" fill="white"/>
<path d="M356.975 256.864H336.989V257.909H356.975V256.864Z" fill="white"/>
<path d="M367.094 263.385H347.108V264.429H367.094V263.385Z" fill="white"/>
<path d="M342.844 271.13H320.473V272.175H342.844V271.13Z" fill="white"/>
<path d="M319.136 256.864H299.151V257.909H319.136V256.864Z" fill="white"/>
<path d="M329.255 263.385H309.27V264.429H329.255V263.385Z" fill="white"/>
<path d="M378.514 272.751H356.143V273.796H378.514V272.751Z" fill="white"/>
</g>
<defs>
<clipPath id="clip0">
<rect width="358" height="254" fill="white" transform="translate(77 52)"/>
</clipPath>
</defs>
</svg>
