<svg width="528" height="306" viewBox="0 0 528 306" fill="none" xmlns="http://www.w3.org/2000/svg">
<g clip-path="url(#clip0)">
<path d="M73.9334 118.627C81.1713 116.003 82.8828 106.006 76.9775 100.259C94.7848 96.8349 97.3324 72.8125 84.0847 64.6258C79.6381 63.1789 74.9377 62.6898 70.2901 63.1904C65.6425 63.691 61.1523 65.17 57.1123 67.5309C53.0724 69.8918 49.5736 73.0815 46.8441 76.892C44.1146 80.7025 42.2158 85.0481 41.2716 89.6453C39.8237 89.0523 38.2757 88.7449 36.712 88.74C35.0341 88.7434 33.3732 89.0787 31.8243 89.7267C30.2754 90.3747 28.8688 91.3228 27.6848 92.5167C26.5007 93.7106 25.5624 95.1271 24.9235 96.6851C24.2845 98.2432 23.9574 99.9124 23.9608 101.597C23.9595 103.096 24.2341 104.581 24.7709 105.979C17.4944 107.104 10.9088 110.945 6.33179 116.736C1.75476 122.527 -0.476267 129.839 0.0850993 137.211C0.646465 144.583 3.95881 151.47 9.35945 156.494C14.7601 161.519 21.8507 164.31 29.2129 164.31H41.2063C85.4827 160.86 86.5148 124.308 73.9334 118.627Z" fill="#D4EAFC"/>
<path d="M127.73 115.589C128.786 112.185 128.873 108.551 127.982 105.099C127.09 101.647 125.256 98.5168 122.687 96.0625C120.119 93.6083 116.918 91.9288 113.449 91.2149C109.981 90.5009 106.383 90.781 103.064 92.0234C102.354 85.6255 99.8354 79.5676 95.807 74.5699C91.7786 69.5723 86.4102 65.8453 80.3401 63.832C93.6439 72.0793 91.0855 96.2792 73.2028 99.7288C79.1331 105.518 77.4143 115.589 70.1458 118.232C82.7804 123.955 81.744 160.777 37.28 164.253H124.62C130.804 164.287 136.767 161.94 141.29 157.692C145.812 153.443 148.553 147.614 148.95 141.398C149.347 135.181 147.371 129.047 143.427 124.249C139.482 119.451 133.867 116.353 127.73 115.589Z" fill="#A9DBF5"/>
<path d="M315.63 246.163L286.257 242.275L256.933 246.163L254.917 257.632H317.645L315.63 246.163Z" fill="#525C71"/>
<path d="M317.645 257.875H254.917L248.87 292.092H323.692L317.645 257.875Z" fill="#525C71"/>
<path d="M355.896 302.772L352.344 297.349C348.265 294.565 324.268 293.03 324.268 293.03L323.692 291.59H248.87L248.582 293.269C248.582 293.269 224.585 294.805 220.313 297.589L216.762 303.011C215.274 303.971 216.762 305.603 219.114 305.603H353.496C355.848 305.363 357.336 303.731 355.896 302.772Z" fill="#6E778D"/>
<path d="M423.132 72.1641H286.152V273.137H423.132C426.713 273.137 430.147 271.712 432.678 269.175C435.21 266.638 436.632 263.198 436.632 259.61V85.6915C436.632 82.1038 435.21 78.6631 432.678 76.1262C430.147 73.5893 426.713 72.1641 423.132 72.1641Z" fill="#6E778D"/>
<path d="M149.127 72.1641C145.546 72.1641 142.112 73.5893 139.581 76.1262C137.049 78.6631 135.626 82.1038 135.626 85.6915V259.61C135.626 263.198 137.049 266.638 139.581 269.175C142.112 271.712 145.546 273.137 149.127 273.137H286.152V72.1641H149.127Z" fill="#6E778D"/>
<path d="M347.881 89.4746H148.707V91.0583V255.232H303.583H347.881H422.992V89.4746H347.881Z" fill="#A9DBF5"/>
<path d="M443.865 61.9973C451.977 59.0564 453.895 47.8513 447.277 41.4107C467.235 37.5727 470.091 10.6483 455.243 1.47256C450.259 -0.149062 444.991 -0.697239 439.781 -0.136196C434.572 0.424847 429.54 2.0825 425.012 4.72861C420.484 7.37471 416.562 10.9498 413.503 15.2206C410.444 19.4914 408.316 24.362 407.257 29.5145C405.635 28.8499 403.9 28.5054 402.147 28.4999C400.266 28.5037 398.405 28.8796 396.669 29.6058C394.933 30.3321 393.356 31.3947 392.029 32.7328C390.702 34.071 389.65 35.6586 388.934 37.4048C388.218 39.1511 387.852 41.022 387.855 42.9106C387.854 44.5899 388.162 46.255 388.763 47.8219C380.608 49.0819 373.227 53.3877 368.097 59.878C362.967 66.3683 360.466 74.5644 361.095 82.8265C361.725 91.0887 365.437 98.8077 371.49 104.439C377.543 110.071 385.49 113.199 393.742 113.199H407.184C456.809 109.332 457.966 68.3645 443.865 61.9973Z" fill="#F77B55"/>
<path d="M504.16 58.5914C505.344 54.776 505.442 50.7028 504.443 46.8342C503.444 42.9657 501.388 39.4568 498.509 36.7061C495.629 33.9554 492.042 32.0731 488.155 31.2728C484.267 30.4726 480.234 30.7866 476.515 32.1791C475.719 25.0083 472.896 18.2185 468.381 12.6171C463.866 7.01577 457.849 2.83849 451.046 0.582031C465.957 9.82561 463.089 36.949 443.046 40.8153C449.693 47.3036 447.766 58.5914 439.62 61.5541C453.781 67.9683 452.619 109.238 402.784 113.134H500.675C507.606 113.173 514.29 110.542 519.358 105.78C524.427 101.019 527.499 94.4857 527.944 87.5181C528.389 80.5505 526.175 73.6748 521.753 68.2977C517.332 62.9205 511.039 59.4483 504.16 58.5914Z" fill="#F77B55"/>
<path fill-rule="evenodd" clip-rule="evenodd" d="M412.532 113.084C412.532 113.084 414.582 123.106 423.92 123.106C433.259 123.106 435.651 123.106 443.281 123.106C450.911 123.106 462.642 119.234 462.642 105.909C462.642 90.6483 462.642 87.915 462.642 72.6543H428.817V113.084H412.532Z" fill="#FFD740"/>
<path fill-rule="evenodd" clip-rule="evenodd" d="M412.398 83.8477L443.831 44.7849C444.172 44.3293 444.742 44.1016 445.311 44.1016C445.881 44.1016 446.45 44.3293 446.792 44.7849L478.224 83.8477C478.68 84.4172 478.794 85.2144 478.452 85.8977C478.11 86.581 477.427 87.0366 476.744 87.0366H413.992C413.195 87.0366 412.626 86.581 412.284 85.8977C411.829 85.1005 411.942 84.4172 412.398 83.8477Z" fill="#FFD740"/>
<path d="M330.28 212.872H228.361C224.721 212.872 221.839 209.915 221.839 206.35V122.631C221.839 118.991 224.796 116.109 228.361 116.109H330.28C333.92 116.109 336.801 119.067 336.801 122.631V206.35C336.801 209.915 333.92 212.872 330.28 212.872Z" fill="#FFFAF5"/>
<path d="M222.218 179.884C222.218 179.884 237.082 157.437 263.699 162.67C290.392 167.902 298.127 177.836 311.928 175.789C325.73 173.741 334.223 166.158 334.223 166.158V205.743C334.223 209.307 330.887 212.189 326.716 212.189H229.877C225.782 212.189 222.446 209.307 222.37 205.819L222.218 179.884Z" fill="#9CC77B"/>
<path d="M259.301 142.462C260.697 136.508 257.003 130.551 251.049 129.155C245.096 127.759 239.138 131.453 237.742 137.406C236.347 143.36 240.041 149.317 245.994 150.713C251.947 152.109 257.905 148.415 259.301 142.462Z" fill="#FFD740"/>
<path d="M325.73 137.721C322.697 134.687 317.843 134.232 314.128 136.052C312.156 130.517 308.44 125.132 301.843 125.663C295.321 126.194 292.364 132.033 290.847 137.721C287.662 135.825 283.643 135.294 280.458 137.569C278.107 139.237 276.742 142.043 276.818 144.773C276.211 148.792 279.093 152.887 282.733 154.859C286.904 157.058 291.605 156.527 295.624 154.48C297.975 157.437 299.264 159.181 304.876 159.181C307.378 159.181 309.805 157.968 311.246 155.845C311.246 155.845 311.246 155.845 311.246 155.769C311.701 155.086 312.156 154.252 312.156 154.252C312.156 154.252 319.208 159.105 326.109 152.887C330.28 149.171 329.901 141.74 325.73 137.721Z" fill="#A9DBF5"/>
<path d="M330.28 215.981H228.361C223.053 215.981 218.73 211.658 218.73 206.35V122.631C218.73 117.322 223.053 113 228.361 113H330.28C335.588 113 339.911 117.322 339.911 122.631V206.35C339.911 211.658 335.588 215.981 330.28 215.981ZM228.285 119.218C226.389 119.218 224.872 120.735 224.872 122.631V206.35C224.872 208.246 226.389 209.763 228.285 209.763H330.204C332.1 209.763 333.617 208.246 333.617 206.35V122.631C333.617 120.735 332.1 119.218 330.204 119.218H228.285Z" fill="#6E778D"/>
<path d="M346.812 225.688H244.893C241.253 225.688 238.371 222.731 238.371 219.167V135.447C238.371 131.807 241.329 128.926 244.893 128.926H346.812C350.452 128.926 353.334 131.883 353.334 135.447V219.167C353.334 222.807 350.376 225.688 346.812 225.688Z" fill="#FFFAF5"/>
<path d="M238.75 192.776C238.75 192.776 253.613 170.33 280.23 175.562C306.924 180.795 314.659 190.729 328.46 188.681C342.262 186.634 350.755 179.051 350.755 179.051V218.635C350.755 222.199 347.418 225.081 343.248 225.081H246.409C242.314 225.081 238.977 222.199 238.902 218.711L238.75 192.776Z" fill="#9CC77B"/>
<path d="M275.683 155.74C277.263 149.833 273.755 143.764 267.849 142.184C261.942 140.603 255.873 144.111 254.293 150.018C252.713 155.925 256.22 161.994 262.127 163.574C268.034 165.154 274.103 161.646 275.683 155.74Z" fill="#FFD740"/>
<path d="M342.262 150.537C339.228 147.504 334.375 147.049 330.659 148.869C328.688 143.333 324.972 137.949 318.374 138.48C311.853 139.01 308.895 144.85 307.379 150.537C304.194 148.641 300.175 148.11 296.99 150.385C294.639 152.054 293.274 154.859 293.35 157.589C292.743 161.609 295.625 165.704 299.265 167.675C303.435 169.874 308.137 169.344 312.156 167.296C314.507 170.254 315.796 171.998 321.408 171.998C323.91 171.998 326.337 170.784 327.778 168.661C327.778 168.661 327.778 168.661 327.778 168.585C328.233 167.903 328.688 167.069 328.688 167.069C328.688 167.069 335.74 171.922 342.641 165.704C346.812 161.988 346.357 154.556 342.262 150.537Z" fill="#A9DBF5"/>
<path d="M346.812 228.873H244.892C239.584 228.873 235.262 224.551 235.262 219.242V135.447C235.262 130.139 239.584 125.816 244.892 125.816H346.812C352.12 125.816 356.442 130.139 356.442 135.447V219.167C356.442 224.475 352.12 228.873 346.812 228.873ZM244.817 132.035C242.921 132.035 241.404 133.551 241.404 135.447V219.167C241.404 221.062 242.921 222.579 244.817 222.579H346.812C348.708 222.579 350.224 221.062 350.224 219.167V135.447C350.224 133.551 348.708 132.035 346.812 132.035H244.817Z" fill="#6E778D"/>
<path d="M162.292 203.308L159.307 204.131L158.435 200.971C157.902 199.039 155.886 197.895 153.954 198.428L119.189 208.021C117.258 208.554 116.114 210.571 116.647 212.502L117.519 215.662L75.9063 227.145C74.3261 227.581 73.3091 229.374 73.7451 230.954L74.9079 235.168L89.7823 289.071L90.6059 292.056L97.8354 294.974L96.5757 290.409L180.152 267.346C181.732 266.91 182.749 265.118 182.313 263.538L166.276 205.42C165.664 203.889 164.048 202.823 162.292 203.308Z" fill="#F2A631"/>
<path d="M106.717 199.448L79.741 217.43L97.7222 244.406L124.698 226.425L106.717 199.448Z" fill="#9CC77B"/>
<path d="M105.956 203.248L83.6782 218.098L98.5279 240.376L120.806 225.526L105.956 203.248Z" fill="white"/>
<path d="M99.2176 239.04L90.2316 225.647C90.2316 225.647 97.6361 223.037 103.794 225.495C109.952 227.953 110.478 216.848 114.122 217.732L119.306 225.56L99.2176 239.04Z" fill="#A9DBF5"/>
<path d="M106.566 212.26C107.529 213.695 107.135 215.693 105.701 216.656C104.266 217.618 102.268 217.225 101.305 215.79C100.342 214.355 100.735 212.357 102.17 211.394C103.605 210.432 105.603 210.825 106.566 212.26Z" fill="#A9DBF5"/>
<path d="M152.14 198.933L113.29 211.979L126.335 250.829L165.186 237.784L152.14 198.933Z" fill="#9CC77B"/>
<path d="M150.134 203.258L117.845 214.1L128.687 246.389L160.976 235.546L150.134 203.258Z" fill="white"/>
<path d="M129.939 244.923L123.459 225.549C123.459 225.549 133.25 224.737 139.958 229.877C146.667 235.016 151.02 221.345 155.276 223.76L159.128 234.979L129.939 244.923Z" fill="#A9DBF5"/>
<path d="M147.804 214.486C148.561 216.544 147.29 218.784 145.231 219.541C143.173 220.298 140.933 219.027 140.176 216.969C139.419 214.91 140.69 212.67 142.748 211.913C144.855 211.331 147.223 212.379 147.804 214.486Z" fill="#A9DBF5"/>
<path d="M170.2 208.683L167.215 209.506L166.343 206.346C165.81 204.414 163.794 203.27 161.862 203.803L127.097 213.396C125.166 213.929 124.022 215.946 124.555 217.877L125.427 221.037L83.8142 232.52C82.234 232.956 81.217 234.749 81.6531 236.329L97.6903 294.446C98.1263 296.026 99.9185 297.043 101.499 296.607L187.884 272.769C189.465 272.333 190.482 270.541 190.046 268.961L174.008 210.844C173.524 209.088 171.78 208.246 170.2 208.683Z" fill="#FFD740"/>
<path d="M41.6 210.5L45.4 204.4L41.3 201.8C41.4 201.2 41.5 200.6 41.5 200L46 198.3L43.4 191.6L38.9 193.3C38.7 193.1 38.5 192.9 38.3 192.7L40.1 188.2L33.4 185.6L31.6 190.1C31.3 190.1 31 190.1 30.7 190.2L28.5 185.8L22 189L24.2 193.4C23.8 193.8 23.4 194.3 23.1 194.8L18.3 193.9L17 201L21.8 201.9C21.9 202.5 22.1 203 22.3 203.6L18.7 206.9L23.5 212.2L27.1 208.9C27.3 209 27.5 209.1 27.7 209.2C28 209.3 28.4 209.4 28.7 209.5L29.1 214.4L36.3 213.8L35.9 208.9C36.4 208.6 36.9 208.3 37.4 208L41.6 210.5ZM29.4 205.3C26.5 204.1 25.2 200.8 26.4 197.9C27.6 195 30.9 193.7 33.8 194.9C36.7 196.1 38 199.4 36.8 202.3C35.5 205.1 32.2 206.5 29.4 205.3Z" fill="#A9DBF5"/>
<path d="M81.5 198.7L84.1 194.6L81.3 192.9C81.4 192.5 81.4 192.1 81.4 191.7L84.4 190.5L82.7 186L79.6 187.2C79.5 187.1 79.3 186.9 79.2 186.8L80.4 183.8L75.9 182L74.7 185C74.5 185 74.3 185 74.1 185.1L72.6 182.2L68.3 184.3L69.8 187.2C69.5 187.5 69.3 187.8 69.1 188.1L65.9 187.5L65 192.2L68.2 192.8C68.3 193.2 68.4 193.6 68.5 193.9L66.1 196.1L69.3 199.7L71.7 197.5C71.8 197.6 72 197.7 72.1 197.7C72.3 197.8 72.6 197.8 72.8 197.9L73.1 201.2L77.9 200.8L77.6 197.5C78 197.3 78.3 197.1 78.6 196.9L81.5 198.7ZM73.3 195.2C71.4 194.4 70.5 192.2 71.3 190.3C72.1 188.4 74.3 187.5 76.2 188.3C78.1 189.1 79 191.3 78.2 193.2C77.4 195.1 75.2 196 73.3 195.2Z" fill="#A9DBF5"/>
</g>
<defs>
<clipPath id="clip0">
<rect width="528" height="306" fill="white"/>
</clipPath>
</defs>
</svg>
