<svg width="42" height="44" viewBox="0 0 42 44" fill="none" xmlns="http://www.w3.org/2000/svg">
<path opacity="0.3" d="M7.6134 32.8905V30.7002C7.6134 29.8606 7.10825 29.3131 6.24227 29.3131C5.80928 29.3131 5.34021 29.4591 5.01546 29.9336C4.76289 29.5321 4.40206 29.3131 3.86082 29.3131C3.5 29.3131 3.13917 29.4226 2.85052 29.8241V29.3861H2.09278V32.8905H2.85052V30.9558C2.85052 30.3352 3.17526 30.0431 3.68041 30.0431C4.18557 30.0431 4.43814 30.3717 4.43814 30.9558V32.8905H5.19588V30.9558C5.19588 30.3352 5.5567 30.0431 6.02577 30.0431C6.53093 30.0431 6.78351 30.3717 6.78351 30.9558V32.8905H7.6134ZM18.8351 29.4226H17.6082V28.3639H16.8505V29.4226H16.1649V30.1162H16.8505V31.7223C16.8505 32.5254 17.1753 33 18.0412 33C18.366 33 18.7268 32.8905 18.9794 32.7445L18.7629 32.0874C18.5464 32.2334 18.2938 32.2699 18.1134 32.2699C17.7526 32.2699 17.6082 32.0509 17.6082 31.6858V30.1162H18.8351V29.4226ZM25.2216 29.3496C24.7887 29.3496 24.5 29.5686 24.3196 29.8606V29.4226H23.5979V32.927H24.3196V30.9558C24.3196 30.3717 24.5722 30.0431 25.0412 30.0431C25.1856 30.0431 25.366 30.0796 25.5103 30.1162L25.7268 29.3861C25.6186 29.3496 25.4021 29.3496 25.2216 29.3496ZM15.5515 29.6781C15.1907 29.4226 14.6856 29.3131 14.1443 29.3131C13.2784 29.3131 12.701 29.7511 12.701 30.4447C12.701 31.0288 13.134 31.3573 13.8918 31.4668L14.2526 31.5033C14.6495 31.5763 14.866 31.6858 14.866 31.8684C14.866 32.1239 14.5773 32.3064 14.0722 32.3064C13.567 32.3064 13.1701 32.1239 12.9175 31.9414L12.5567 32.5254C12.9536 32.8175 13.4948 32.9635 14.0361 32.9635C15.0464 32.9635 15.6237 32.4889 15.6237 31.8319C15.6237 31.2113 15.1546 30.8827 14.433 30.7732L14.0722 30.7367C13.7474 30.7002 13.4948 30.6272 13.4948 30.4082C13.4948 30.1527 13.7474 30.0066 14.1443 30.0066C14.5773 30.0066 15.0103 30.1892 15.2268 30.2987L15.5515 29.6781ZM35.6495 29.3496C35.2165 29.3496 34.9278 29.5686 34.7474 29.8606V29.4226H33.9897V32.927H34.7474V30.9558C34.7474 30.3717 35 30.0431 35.4691 30.0431C35.6134 30.0431 35.7938 30.0796 35.9381 30.1162L36.1546 29.3861C36.0103 29.3496 35.7938 29.3496 35.6495 29.3496ZM25.9794 31.1748C25.9794 32.2334 26.701 33 27.8196 33C28.3247 33 28.6856 32.8905 29.0464 32.5985L28.6856 31.9779C28.3969 32.1969 28.1082 32.3064 27.7835 32.3064C27.1701 32.3064 26.7371 31.8684 26.7371 31.1748C26.7371 30.5177 27.1701 30.0796 27.7835 30.0431C28.1082 30.0431 28.3969 30.1527 28.6856 30.3717L29.0464 29.7511C28.6856 29.4591 28.3247 29.3496 27.8196 29.3496C26.7371 29.3496 25.9794 30.1161 25.9794 31.1748ZM33.0155 31.1748V29.4226H32.2577V29.8606C32.0052 29.5321 31.6443 29.3496 31.1753 29.3496C30.201 29.3496 29.4433 30.1161 29.4433 31.1748C29.4433 32.2334 30.201 33 31.1753 33C31.6804 33 32.0412 32.8175 32.2577 32.4889V32.927H33.0155V31.1748ZM30.2371 31.1748C30.2371 30.5542 30.634 30.0431 31.2835 30.0431C31.8969 30.0431 32.3299 30.5177 32.3299 31.1748C32.3299 31.7954 31.8969 32.3064 31.2835 32.3064C30.634 32.2699 30.2371 31.7588 30.2371 31.1748ZM21.1804 29.3496C20.1701 29.3496 19.4485 30.0796 19.4485 31.1748C19.4485 32.2699 20.1701 33 21.2165 33C21.7216 33 22.2268 32.854 22.6237 32.5254L22.2629 31.9779C21.9742 32.1969 21.6134 32.3429 21.2526 32.3429C20.7835 32.3429 20.3144 32.1239 20.2062 31.5033H22.768C22.768 31.3938 22.768 31.3208 22.768 31.2113C22.8041 30.0796 22.1546 29.3496 21.1804 29.3496ZM21.1443 30.0066C21.6134 30.0066 21.9381 30.2987 22.0103 30.8462H20.2062C20.3144 30.3352 20.6392 30.0066 21.1443 30.0066ZM39.9794 31.1748V28.0354H39.2216V29.8606C38.9691 29.5321 38.6082 29.3496 38.1392 29.3496C37.1649 29.3496 36.4072 30.1161 36.4072 31.1748C36.4072 32.2334 37.1649 33 38.1392 33C38.6443 33 39.0052 32.8175 39.2216 32.4889V32.927H39.9794V31.1748ZM37.201 31.1748C37.201 30.5542 37.5979 30.0431 38.2474 30.0431C38.8608 30.0431 39.2938 30.5177 39.2938 31.1748C39.2938 31.7954 38.8608 32.3064 38.2474 32.3064C37.5979 32.2699 37.201 31.7588 37.201 31.1748ZM11.8351 31.1748V29.4226H11.0773V29.8606C10.8247 29.5321 10.4639 29.3496 9.99484 29.3496C9.02062 29.3496 8.26289 30.1161 8.26289 31.1748C8.26289 32.2334 9.02062 33 9.99484 33C10.5 33 10.8608 32.8175 11.0773 32.4889V32.927H11.8351V31.1748ZM9.0567 31.1748C9.0567 30.5542 9.45361 30.0431 10.1031 30.0431C10.7165 30.0431 11.1495 30.5177 11.1495 31.1748C11.1495 31.7954 10.7165 32.3064 10.1031 32.3064C9.45361 32.2699 9.0567 31.7588 9.0567 31.1748ZM19.8454 23.8374C19.9536 23.9104 20.0619 24.0199 20.1701 24.0929C18.1134 25.4801 15.6237 26.2832 12.9897 26.2832C5.80928 26.2832 0 20.406 0 13.1416C0 5.87721 5.80928 0 12.9897 0C15.6598 0 18.1134 0.803097 20.1701 2.19027C20.0619 2.26327 19.9536 2.37279 19.8454 2.4458C16.7784 5.14712 15.0464 9.01659 15.0464 13.1416C15.0103 17.2666 16.7784 21.1361 19.8454 23.8374ZM29.0103 0C26.3402 0 23.8866 0.803097 21.8299 2.19027C21.9381 2.26327 22.0464 2.37279 22.1546 2.4458C25.2216 5.14712 26.9536 9.01659 26.9536 13.1416C26.9536 17.2301 25.1856 21.1361 22.1546 23.8374C22.0464 23.9104 21.9381 24.0199 21.8299 24.0929C23.8866 25.4801 26.3763 26.2832 29.0103 26.2832C36.1907 26.2832 42 20.406 42 13.1416C42 5.91372 36.1907 0 29.0103 0ZM21 2.84735C20.8196 2.99336 20.6753 3.10288 20.4948 3.24889C17.7526 5.65819 16.0206 9.19912 16.0206 13.1416C16.0206 17.0841 17.7526 20.6615 20.4948 23.0708C20.6392 23.2168 20.8196 23.3628 21 23.4723C21.1804 23.3263 21.3247 23.2168 21.5052 23.0708C24.2474 20.6615 25.9794 17.1206 25.9794 13.1416C25.9794 9.19912 24.2474 5.62168 21.5052 3.21239C21.3247 3.10288 21.1443 2.95686 21 2.84735Z" fill="#404B67"/>
<path d="M2.34973 36.7088V42.9998H1.71973V36.7088H2.34973Z" fill="#C1C6D0"/>
<path d="M5.63937 36.7088C6.33537 36.7088 6.93237 36.8348 7.43037 37.0868C7.92837 37.3388 8.30937 37.7018 8.57337 38.1758C8.83737 38.6498 8.96937 39.2138 8.96937 39.8678C8.96937 40.5158 8.83737 41.0768 8.57337 41.5508C8.30937 42.0188 7.92837 42.3788 7.43037 42.6308C6.93237 42.8768 6.33537 42.9998 5.63937 42.9998H3.77637V36.7088H5.63937ZM5.63937 42.4778C6.51537 42.4778 7.18137 42.2498 7.63737 41.7938C8.09937 41.3318 8.33037 40.6898 8.33037 39.8678C8.33037 39.0398 8.09937 38.3948 7.63737 37.9328C7.18137 37.4648 6.51537 37.2308 5.63937 37.2308H4.40637V42.4778H5.63937Z" fill="#C1C6D0"/>
<path d="M12.3126 39.8498C12.3126 39.2318 12.4476 38.6798 12.7176 38.1938C12.9876 37.7018 13.3566 37.3208 13.8246 37.0508C14.2926 36.7748 14.8146 36.6368 15.3906 36.6368C16.0926 36.6368 16.6926 36.8048 17.1906 37.1408C17.6946 37.4708 18.0606 37.9388 18.2886 38.5448H17.5506C17.3706 38.1188 17.0946 37.7858 16.7226 37.5458C16.3566 37.3058 15.9126 37.1858 15.3906 37.1858C14.9286 37.1858 14.5116 37.2938 14.1396 37.5098C13.7736 37.7258 13.4856 38.0378 13.2756 38.4458C13.0656 38.8478 12.9606 39.3158 12.9606 39.8498C12.9606 40.3838 13.0656 40.8518 13.2756 41.2538C13.4856 41.6558 13.7736 41.9648 14.1396 42.1808C14.5116 42.3968 14.9286 42.5048 15.3906 42.5048C15.9126 42.5048 16.3566 42.3878 16.7226 42.1538C17.0946 41.9138 17.3706 41.5838 17.5506 41.1638H18.2886C18.0606 41.7638 17.6946 42.2288 17.1906 42.5588C16.6866 42.8888 16.0866 43.0538 15.3906 43.0538C14.8146 43.0538 14.2926 42.9188 13.8246 42.6488C13.3566 42.3728 12.9876 41.9918 12.7176 41.5058C12.4476 41.0198 12.3126 40.4678 12.3126 39.8498Z" fill="#C1C6D0"/>
<path d="M21.8839 37.9958C22.2559 37.9958 22.5889 38.0738 22.8829 38.2298C23.1829 38.3858 23.4169 38.6258 23.5849 38.9498C23.7589 39.2678 23.8459 39.6578 23.8459 40.1198V42.9998H23.2249V40.1918C23.2249 39.6578 23.0899 39.2498 22.8199 38.9678C22.5559 38.6858 22.1929 38.5448 21.7309 38.5448C21.2569 38.5448 20.8789 38.6948 20.5969 38.9948C20.3149 39.2948 20.1739 39.7358 20.1739 40.3178V42.9998H19.5439V36.3398H20.1739V38.9228C20.3299 38.6288 20.5579 38.4008 20.8579 38.2388C21.1639 38.0768 21.5059 37.9958 21.8839 37.9958Z" fill="#C1C6D0"/>
<path d="M29.6853 40.2908C29.6853 40.5068 29.6793 40.6718 29.6673 40.7858H25.5903C25.6083 41.1578 25.6983 41.4758 25.8603 41.7398C26.0223 42.0038 26.2353 42.2048 26.4993 42.3428C26.7633 42.4748 27.0513 42.5408 27.3633 42.5408C27.7713 42.5408 28.1133 42.4418 28.3893 42.2438C28.6713 42.0458 28.8573 41.7788 28.9473 41.4428H29.6133C29.4933 41.9228 29.2353 42.3158 28.8393 42.6218C28.4493 42.9218 27.9573 43.0718 27.3633 43.0718C26.9013 43.0718 26.4873 42.9698 26.1213 42.7658C25.7553 42.5558 25.4673 42.2618 25.2573 41.8838C25.0533 41.4998 24.9513 41.0528 24.9513 40.5428C24.9513 40.0328 25.0533 39.5858 25.2573 39.2018C25.4613 38.8178 25.7463 38.5238 26.1123 38.3198C26.4783 38.1158 26.8953 38.0138 27.3633 38.0138C27.8313 38.0138 28.2393 38.1158 28.5873 38.3198C28.9413 38.5238 29.2113 38.7998 29.3973 39.1478C29.5893 39.4898 29.6853 39.8708 29.6853 40.2908ZM29.0463 40.2728C29.0523 39.9068 28.9773 39.5948 28.8213 39.3368C28.6713 39.0788 28.4643 38.8838 28.2003 38.7518C27.9363 38.6198 27.6483 38.5538 27.3363 38.5538C26.8683 38.5538 26.4693 38.7038 26.1393 39.0038C25.8093 39.3038 25.6263 39.7268 25.5903 40.2728H29.0463Z" fill="#C1C6D0"/>
<path d="M30.5499 40.5428C30.5499 40.0328 30.6519 39.5888 30.8559 39.2108C31.0599 38.8268 31.3419 38.5328 31.7019 38.3288C32.0619 38.1188 32.4729 38.0138 32.9349 38.0138C33.5409 38.0138 34.0389 38.1638 34.4289 38.4638C34.8249 38.7638 35.0799 39.1718 35.1939 39.6878H34.5189C34.4349 39.3338 34.2519 39.0578 33.9699 38.8598C33.6939 38.6558 33.3489 38.5538 32.9349 38.5538C32.6049 38.5538 32.3079 38.6288 32.0439 38.7788C31.7799 38.9288 31.5699 39.1538 31.4139 39.4538C31.2639 39.7478 31.1889 40.1108 31.1889 40.5428C31.1889 40.9748 31.2639 41.3408 31.4139 41.6408C31.5699 41.9408 31.7799 42.1658 32.0439 42.3158C32.3079 42.4658 32.6049 42.5408 32.9349 42.5408C33.3489 42.5408 33.6939 42.4418 33.9699 42.2438C34.2519 42.0398 34.4349 41.7578 34.5189 41.3978H35.1939C35.0799 41.9018 34.8249 42.3068 34.4289 42.6128C34.0329 42.9188 33.5349 43.0718 32.9349 43.0718C32.4729 43.0718 32.0619 42.9698 31.7019 42.7658C31.3419 42.5558 31.0599 42.2618 30.8559 41.8838C30.6519 41.4998 30.5499 41.0528 30.5499 40.5428Z" fill="#C1C6D0"/>
<path d="M39.0124 42.9998L36.9874 40.7948V42.9998H36.3574V36.3398H36.9874V40.2818L38.9674 38.0858H39.8494L37.5184 40.5338L39.8674 42.9998H39.0124Z" fill="#C1C6D0"/>
</svg>
