<svg width="45" height="30" viewBox="0 0 45 30" fill="none" xmlns="http://www.w3.org/2000/svg">
<g opacity="0.3">
<path d="M2.07533 19.8807H3.95558L3.63325 21.4874H3.71383C3.99139 20.9255 4.30477 20.4909 4.65395 20.1836C5.00314 19.8763 5.4553 19.7227 6.01042 19.7227C6.3417 19.7227 6.62374 19.7841 6.85653 19.907C7.09828 20.0212 7.29525 20.188 7.44746 20.4075C7.59968 20.6182 7.7116 20.8728 7.78322 21.1713C7.85485 21.461 7.89067 21.7771 7.89067 22.1195C7.89067 22.857 7.80113 23.5242 7.62206 24.1213C7.45194 24.7095 7.21915 25.2143 6.92368 25.6357C6.62821 26.0572 6.27903 26.382 5.87611 26.6103C5.48216 26.8385 5.06134 26.9527 4.61366 26.9527C4.12122 26.9527 3.71383 26.821 3.3915 26.5576C3.07813 26.2942 2.89906 25.9738 2.85429 25.5962H2.78714L2.00818 29.4285H0.12793L2.07533 19.8807ZM4.15703 25.4382C4.97181 25.4382 5.48663 24.9246 5.70152 23.8974L5.88955 22.9755C5.90745 22.8789 5.92536 22.756 5.94327 22.6068C5.96117 22.4575 5.97013 22.3302 5.97013 22.2249C5.97013 21.9176 5.88955 21.6761 5.72838 21.5005C5.57617 21.3249 5.36129 21.2371 5.08373 21.2371C4.84198 21.2371 4.62262 21.2986 4.42564 21.4215C4.22866 21.5444 4.05854 21.6937 3.91529 21.8693C3.76308 22.0449 3.62877 22.2556 3.51238 22.5014C3.40493 22.7385 3.32435 22.9843 3.27063 23.2389L3.05574 24.2925C2.98412 24.6436 3.05127 24.9246 3.2572 25.1353C3.46313 25.3372 3.76307 25.4382 4.15703 25.4382Z" fill="#404B67"/>
<path d="M14.0822 26.7946C13.7419 26.7946 13.4599 26.7069 13.236 26.5313C13.0122 26.3557 12.9003 26.1054 12.9003 25.7806C12.9003 25.7104 12.9048 25.6357 12.9137 25.5567C12.9227 25.4777 12.9316 25.4206 12.9406 25.3855L12.9809 25.188H12.9003C12.6227 25.7499 12.3094 26.1845 11.9602 26.4918C11.611 26.799 11.1588 26.9527 10.6037 26.9527C10.2724 26.9527 9.9859 26.8956 9.74416 26.7815C9.51136 26.6586 9.31886 26.4918 9.16665 26.281C9.01444 26.0615 8.90252 25.8069 8.8309 25.5172C8.75927 25.2187 8.72345 24.8982 8.72345 24.5558C8.72345 23.8184 8.80851 23.1555 8.97863 22.5673C9.1577 21.9702 9.39497 21.461 9.69044 21.0396C9.9859 20.6182 10.3306 20.2933 10.7246 20.0651C11.1275 19.8368 11.5528 19.7227 12.0005 19.7227C12.4929 19.7227 12.8958 19.8544 13.2092 20.1177C13.5315 20.3811 13.7151 20.7016 13.7598 21.0791H13.827L14.0687 19.8807H15.949L14.8343 25.3197H15.6266L15.3312 26.7946H14.0822ZM11.5304 25.4382C11.7721 25.4382 11.9915 25.3767 12.1885 25.2538C12.3855 25.1309 12.5556 24.9817 12.6988 24.8061C12.851 24.6305 12.9809 24.4241 13.0883 24.1871C13.2047 23.9413 13.2898 23.691 13.3435 23.4364L13.5584 22.3829C13.63 22.058 13.5629 21.7859 13.3569 21.5664C13.151 21.3469 12.851 21.2371 12.4571 21.2371C11.6423 21.2371 11.1275 21.7508 10.9126 22.778L10.7246 23.6998C10.7067 23.7964 10.6888 23.9193 10.6709 24.0686C10.6529 24.2178 10.644 24.3451 10.644 24.4505C10.644 24.7578 10.7201 24.9992 10.8723 25.1748C11.0335 25.3504 11.2528 25.4382 11.5304 25.4382Z" fill="#404B67"/>
<path d="M19.425 26.9527C19.04 26.9527 18.6774 26.9 18.3372 26.7946C18.0059 26.6805 17.7149 26.5049 17.4642 26.2679C17.2135 26.022 17.0165 25.7104 16.8733 25.3328C16.73 24.9553 16.6584 24.4988 16.6584 23.9632C16.6584 23.3486 16.7524 22.7824 16.9404 22.2644C17.1284 21.7464 17.3881 21.2986 17.7194 20.9211C18.0596 20.5436 18.458 20.2494 18.9147 20.0387C19.3713 19.828 19.8682 19.7227 20.4054 19.7227C20.7367 19.7227 21.0456 19.7666 21.3321 19.8544C21.6276 19.9334 21.8828 20.0519 22.0977 20.2099C22.3215 20.368 22.505 20.5567 22.6483 20.7762C22.7916 20.9957 22.8856 21.2415 22.9303 21.5137L21.3456 22.1063C21.265 21.8342 21.1531 21.6191 21.0098 21.461C20.8755 21.2942 20.6382 21.2108 20.298 21.2108C19.519 21.2108 19.0311 21.6937 18.8341 22.6594L18.5923 23.8315C18.5476 24.0335 18.5252 24.2178 18.5252 24.3846C18.5252 24.7095 18.6058 24.9729 18.7669 25.1748C18.937 25.368 19.2101 25.4645 19.5862 25.4645C19.7653 25.4645 19.9219 25.4382 20.0562 25.3855C20.1905 25.3328 20.3069 25.2582 20.4054 25.1616C20.5129 25.0651 20.6114 24.9509 20.7009 24.8192C20.7904 24.6875 20.8845 24.5383 20.9829 24.3715L22.42 25.0299C22.1066 25.6709 21.6947 26.1537 21.1844 26.4786C20.683 26.7946 20.0965 26.9527 19.425 26.9527Z" fill="#404B67"/>
<path d="M27.6328 23.4101H27.5523C27.2926 23.8842 26.9971 24.231 26.6659 24.4505C26.3435 24.6612 25.9541 24.7666 25.4974 24.7666C24.8975 24.7666 24.4454 24.6129 24.141 24.3056C23.8365 23.9896 23.6843 23.5769 23.6843 23.0677C23.6843 22.8921 23.6933 22.7209 23.7112 22.5541C23.7291 22.3873 23.7515 22.238 23.7783 22.1063L24.235 19.8807H26.1152L25.6854 22.001C25.6675 22.08 25.6541 22.1722 25.6452 22.2775C25.6362 22.3829 25.6317 22.4838 25.6317 22.5804C25.6317 23.0106 25.8914 23.2257 26.4107 23.2257C26.8405 23.2257 27.1762 23.1248 27.418 22.9228C27.6597 22.7121 27.8298 22.3741 27.9283 21.9088L28.3447 19.8807H30.2249L28.8147 26.7946H26.9345L27.6328 23.4101Z" fill="#404B67"/>
<path d="M33.8047 26.9527C32.8019 26.9527 32.0543 26.6893 31.5618 26.1625C31.0694 25.627 30.8232 24.8982 30.8232 23.9764C30.8232 23.4233 30.9127 22.8921 31.0918 22.3829C31.2709 21.8649 31.526 21.4127 31.8573 21.0264C32.1886 20.6313 32.5915 20.3153 33.066 20.0782C33.5406 19.8412 34.0688 19.7227 34.6508 19.7227C34.9194 19.7227 35.2015 19.7534 35.4969 19.8148C35.7924 19.8763 36.061 19.9817 36.3028 20.1309C36.5535 20.2714 36.7594 20.4645 36.9206 20.7104C37.0907 20.9562 37.1757 21.2679 37.1757 21.6454C37.1757 22.0054 37.0907 22.3302 36.9206 22.6199C36.7504 22.9009 36.4863 23.1467 36.1282 23.3574C35.77 23.5594 35.3089 23.7218 34.7448 23.8447C34.1808 23.9588 33.5048 24.0291 32.7169 24.0554C32.6989 24.1344 32.69 24.1959 32.69 24.2398C32.69 24.2837 32.69 24.3232 32.69 24.3583C32.69 24.6919 32.7795 24.9597 32.9586 25.1616C33.1466 25.3636 33.4734 25.4645 33.939 25.4645C34.2434 25.4645 34.5255 25.4031 34.7851 25.2802C35.0537 25.1485 35.3447 24.8895 35.6581 24.5032L36.8131 25.3987C36.3744 25.9694 35.9133 26.3732 35.4298 26.6103C34.9552 26.8385 34.4136 26.9527 33.8047 26.9527ZM34.5434 21.1318C34.1405 21.1318 33.7958 21.2635 33.5092 21.5269C33.2317 21.7815 33.0526 22.1327 32.972 22.5804L32.9183 22.8833C33.4197 22.857 33.8271 22.8131 34.1405 22.7516C34.4628 22.6902 34.7135 22.6155 34.8926 22.5277C35.0716 22.4312 35.1925 22.3258 35.2552 22.2117C35.3179 22.0975 35.3492 21.9702 35.3492 21.8298C35.3492 21.6805 35.3223 21.562 35.2686 21.4742C35.2149 21.3776 35.1478 21.3074 35.0672 21.2635C34.9866 21.2108 34.8971 21.1757 34.7986 21.1581C34.709 21.1406 34.624 21.1318 34.5434 21.1318Z" fill="#404B67"/>
<path d="M39.978 21.3557H38.0305L38.326 19.8807H44.1279L43.8325 21.3557H41.8582L40.7569 26.7946H38.8767L39.978 21.3557Z" fill="#404B67"/>
<path fill-rule="evenodd" clip-rule="evenodd" d="M22.9423 1.24355C16.2488 1.24355 10.8227 6.66969 10.8227 13.3632C10.8227 14.8299 11.0829 16.2345 11.5593 17.5341H10.2431C9.81204 16.221 9.5791 14.8187 9.5791 13.3632C9.5791 5.9829 15.562 0 22.9423 0C30.3226 0 36.3055 5.9829 36.3055 13.3632C36.3055 14.8187 36.0725 16.221 35.6415 17.5341H34.3253C34.8016 16.2345 35.0619 14.8299 35.0619 13.3632C35.0619 6.66969 29.6358 1.24355 22.9423 1.24355ZM22.8819 3.35757C23.2029 3.35757 23.5204 3.37388 23.8337 3.40578L21.773 17.5434H13.3248C12.8333 16.1921 12.5604 14.7533 12.5604 13.306C12.5604 7.26218 17.3189 3.35757 22.8819 3.35757ZM19.8977 6.3422L21.2656 6.09349L21.5143 7.95882L20.2707 8.20753L19.8977 6.3422ZM19.2759 8.45624L18.6541 6.96398L17.6593 7.58575L18.281 8.95366L19.2759 8.45624ZM17.4106 9.57543L16.5401 8.45624L15.9183 9.07801L16.7888 10.0729L17.4106 9.57543ZM15.0478 10.3216L16.0427 10.9433L15.7939 11.4408L14.7991 10.819L15.0478 10.3216ZM15.1722 12.6843L14.3017 12.4356L14.1773 12.933L15.0478 13.1817L15.1722 12.6843ZM24.3743 3.97935L24.0012 6.34209L25.7422 6.83951L26.2396 4.47677L24.3743 3.97935ZM27.9806 7.95871L26.4883 7.08822L27.3588 4.97419L28.9754 6.09338L27.9806 7.95871ZM29.7216 6.83951L28.478 8.33177L29.4729 9.32661L30.7164 7.95871L29.7216 6.83951ZM31.2138 8.95355L29.9703 9.94839L30.592 10.9432L31.7112 9.94839L31.2138 8.95355ZM30.9651 11.6894L32.0843 10.9432L32.333 11.9381L31.2138 12.6842L30.9651 11.6894ZM32.4574 12.8086L31.3382 13.306L31.4625 14.3008L32.4574 13.679V12.8086ZM23.1307 10.8189L23.3795 9.57532L24.3743 9.82403L24.1256 11.0676L23.1307 10.8189ZM24.9961 10.0727L24.4986 11.3163L25.3691 11.6894L25.8666 10.6945L24.9961 10.0727ZM25.6178 11.9381L26.2396 11.0676L26.737 11.6894L26.1153 12.4355L25.6178 11.9381ZM27.1101 12.1868L26.4883 12.8086L26.737 13.306L27.3588 12.8086L27.1101 12.1868ZM26.8614 13.679L27.4832 13.306L27.6075 13.8034L26.9858 14.1765L26.8614 13.679ZM27.1101 14.6739V15.0469L27.7319 14.7982V14.3008L27.1101 14.6739Z" fill="#404B67"/>
</g>
</svg>
