<svg width="40" height="40" viewBox="0 0 40 40" fill="none" xmlns="http://www.w3.org/2000/svg">
<path d="M40 0H0V40H40V0Z" fill="#F8FAFD"/>
<path d="M39.1311 20H0.888672V39.1111H39.1311V20Z" fill="#C1C6D0"/>
<path d="M15.8183 5.59552L12.0607 14.5854H9.59605L7.73746 7.4137C7.61625 6.96925 7.53544 6.80764 7.19201 6.62582C6.62635 6.32279 5.71726 6.03996 4.90918 5.85814L4.96979 5.59552H8.92938C9.43443 5.59552 9.87888 5.93895 10.0001 6.50461L10.9698 11.6965L13.394 5.57531H15.8183V5.59552ZM25.4344 11.6561C25.4546 9.29248 22.1617 9.15107 22.1819 8.10057C22.1819 7.77733 22.5051 7.4339 23.1718 7.35309C23.495 7.31269 24.4243 7.27228 25.4546 7.75713L25.8587 5.85814C25.293 5.65612 24.5859 5.4541 23.6769 5.4541C21.3738 5.4541 19.7577 6.66622 19.7577 8.4238C19.7375 9.71673 20.9092 10.444 21.7981 10.8682C22.7072 11.3127 23.0102 11.5955 23.0102 11.9794C23.0102 12.5854 22.2829 12.848 21.6163 12.8682C20.4445 12.8884 19.7779 12.545 19.2324 12.3026L18.8082 14.2622C19.3536 14.5046 20.3637 14.7268 21.394 14.747C23.8385 14.7268 25.4344 13.5147 25.4344 11.6561ZM31.5152 14.5854H33.6567L31.7779 5.59552H29.7981C29.3536 5.59552 28.9698 5.85814 28.8082 6.26218L25.3132 14.5854H27.7577L28.2425 13.2521H31.2324L31.5152 14.5854ZM28.9092 11.3935L30.1415 8.01976L30.8486 11.3935H28.9092ZM19.1314 5.59552L17.2122 14.5854H14.889L16.8082 5.59552H19.1314Z" fill="#C1C6D0"/>
<path d="M9.31317 31.0912C9.57579 31.2528 9.97983 31.374 10.4041 31.374C10.9293 31.374 11.2324 31.1316 11.2324 30.7478C11.2324 30.4043 11.0101 30.2023 10.4243 30.0003C9.6768 29.7377 9.19195 29.3336 9.19195 28.6872C9.19195 27.9397 9.81822 27.374 10.8081 27.374C11.293 27.374 11.6566 27.475 11.899 27.5962L11.697 28.2629C11.5354 28.1821 11.2122 28.0407 10.7879 28.0407C10.2627 28.0407 10.0404 28.3235 10.0404 28.5861C10.0404 28.9296 10.3031 29.0912 10.9091 29.3336C11.697 29.6366 12.0808 30.0407 12.0808 30.6872C12.0808 31.4144 11.5354 32.0407 10.3637 32.0407C9.87882 32.0407 9.37377 31.8993 9.13135 31.7579L9.31317 31.0912Z" fill="#F8FAFD"/>
<path d="M15.2928 29.9803H13.5757V31.3137H15.4949V32.0005H12.7676V27.4551H15.414V28.1419H13.5959V29.3137H15.2928V29.9803Z" fill="#F8FAFD"/>
<path d="M19.4144 31.8592C19.2124 31.9602 18.7881 32.0612 18.2427 32.0612C16.8083 32.0612 15.9194 31.1521 15.9194 29.7784C15.9194 28.2834 16.9699 27.3945 18.3437 27.3945C18.8891 27.3945 19.273 27.4955 19.4346 27.5966L19.2528 28.2632C19.0305 28.1622 18.7275 28.0814 18.3639 28.0814C17.4346 28.0814 16.7679 28.6673 16.7679 29.7582C16.7679 30.7481 17.3538 31.3945 18.3437 31.3945C18.6669 31.3945 19.0305 31.3339 19.2528 31.2329L19.4144 31.8592Z" fill="#F8FAFD"/>
<path d="M20.8685 27.4551V30.1015C20.8685 30.9904 21.2321 31.3945 21.7978 31.3945C22.4039 31.3945 22.7473 30.9904 22.7473 30.1015V27.4551H23.5756V30.0409C23.5756 31.4349 22.8483 32.0611 21.7574 32.0611C20.7069 32.0611 20.02 31.4753 20.02 30.0409V27.4551H20.8685Z" fill="#F8FAFD"/>
<path d="M24.4645 27.5151C24.7878 27.4545 25.2322 27.4141 25.7171 27.4141C26.3635 27.4141 26.808 27.5151 27.111 27.7777C27.3534 27.9797 27.4948 28.303 27.4948 28.6868C27.4948 29.2726 27.0908 29.6767 26.6666 29.8181V29.8383C26.9898 29.9595 27.1918 30.2828 27.2928 30.707C27.4342 31.2727 27.5554 31.7979 27.6565 31.9797H26.808C26.7474 31.8383 26.6262 31.4747 26.5049 30.909C26.3635 30.3232 26.1615 30.1211 25.6969 30.1211H25.2726V31.9797H24.4443V27.5151H24.4645ZM25.2928 29.5151H25.7777C26.3433 29.5151 26.6868 29.212 26.6868 28.7676C26.6868 28.2827 26.3433 28.0403 25.7979 28.0403C25.5352 28.0403 25.3736 28.0605 25.2928 28.0807V29.5151Z" fill="#F8FAFD"/>
<path d="M30.7676 29.9803H29.0505V31.3137H30.9696V32.0005H28.2222V27.4551H30.8686V28.1419H29.0505V29.3137H30.7676V29.9803Z" fill="#F8FAFD"/>
</svg>
