<svg width="32" height="36" viewBox="0 0 32 36" fill="none" xmlns="http://www.w3.org/2000/svg">
    <path opacity="0.3" d="M9.53821 31.4873L9.46955 32.6613C9.44666 33.0615 9.42123 33.4074 9.39435 33.7038C9.35221 34.1921 9.30353 35.3639 8.67724 35.3639C8.66961 35.3639 8.66126 35.3639 8.65254 35.3639C8.59623 35.3632 8.52466 35.4116 8.52466 35.4899V36.2055C8.52466 36.2206 8.52466 36.2305 8.52466 36.2437C8.52466 36.3264 8.57915 36.3829 8.65363 36.3829C8.66453 36.3829 8.69867 36.3829 8.70957 36.3829C9.18111 36.3811 9.59488 36.3308 9.95162 35.7858C10.0635 35.6151 10.1616 35.423 10.2317 35.2053C10.3025 34.9879 10.3589 34.7433 10.3999 34.4745C10.4402 34.2057 10.4733 33.9094 10.5002 33.5851C10.5256 33.262 10.5514 32.911 10.5765 32.5298L10.607 31.9893H12.0971V36.2525C12.0971 36.3242 12.1589 36.3899 12.2348 36.3829H13.1201C13.2124 36.3829 13.2585 36.319 13.2585 36.2441V31.3514C13.2593 31.1487 13.0914 30.9699 12.8549 30.9699H9.92401C9.69878 30.9699 9.56545 31.1689 9.55564 31.3342C9.55237 31.3812 9.54111 31.4318 9.53821 31.4873ZM0.377445 36.3833H2.38383C3.37521 36.4185 4.18532 35.723 4.21765 34.6846C4.21874 34.5957 4.22382 34.4896 4.19948 34.3732C4.02402 33.5235 3.35922 32.9392 2.51315 32.9392H1.1614V31.9742H3.46857C3.55576 31.9764 3.60843 31.9132 3.60625 31.8277V31.1403C3.60807 31.0463 3.57356 30.9681 3.46857 30.9703H0.405417C0.0922724 30.9703 0 31.2023 0 31.3514V36.0025C0 36.2122 0.163475 36.3833 0.377445 36.3833ZM24.7672 36.221V34.411H26.0364C26.9145 34.411 27.7373 33.685 27.7231 32.6613C27.7231 32.4152 27.6621 32.1842 27.5727 31.9815C27.362 31.5049 26.9777 31.1862 26.5236 31.0463C26.3376 30.989 26.1353 30.9717 25.9358 30.9703H23.9977C23.7914 30.9703 23.6188 31.1142 23.6097 31.3415C23.6087 31.3727 23.6054 31.4061 23.6058 31.4414V36.2529C23.6058 36.3275 23.661 36.3833 23.7373 36.3836H24.6385C24.6854 36.3836 24.7301 36.3554 24.7515 36.3142C24.7639 36.2882 24.7672 36.2584 24.7672 36.221ZM26.5091 32.691C26.5087 33.0685 26.2115 33.4001 25.8076 33.3997L24.7672 33.3986V31.9819H25.7596C26.2097 31.968 26.5098 32.3131 26.5091 32.691ZM21.7505 35.2559L22.0484 36.2599C22.0738 36.3521 22.1225 36.3833 22.1799 36.3833H23.1466C23.237 36.3829 23.2955 36.3065 23.2737 36.2151L21.6895 31.394C21.615 31.159 21.5031 30.9703 21.2328 30.9703L20.547 30.9721C20.4107 30.9633 20.2912 31.0103 20.1986 31.134C20.1514 31.1965 20.1107 31.282 20.0776 31.394L18.4944 36.2088C18.4592 36.3161 18.5482 36.3833 18.619 36.3833H19.5483C19.5777 36.3833 19.6413 36.3877 19.6805 36.3036C19.6889 36.2849 19.698 36.2584 19.7034 36.2364L20.0013 35.2559H21.7505ZM20.2763 34.2986L20.5666 33.3204L20.8568 32.2188H20.9026L21.1852 33.3204L21.4755 34.2986H20.2763ZM17.061 33.5033V33.4647C17.2252 33.3641 17.3628 33.233 17.4711 33.0722C17.5804 32.9113 17.6604 32.7207 17.7105 32.5019L18.0618 31.1234C18.0749 31.0621 18.0338 30.9703 17.9339 30.9703H17.0991C17.0711 30.9692 17.0421 30.9743 17.0112 30.9871C16.981 30.9985 16.9592 31.0297 16.9465 31.0786L16.6029 32.3785C16.5622 32.5364 16.5073 32.6627 16.4401 32.7553C16.3722 32.8496 16.297 32.919 16.2149 32.9638C16.1328 33.009 16.0492 33.0387 15.9649 33.0527C15.8799 33.0655 15.7993 33.0722 15.7241 33.0707H15.1207V31.0991C15.1207 31.0158 15.0517 30.9703 14.9932 30.9703H14.097C14.021 30.9703 13.9597 31.0257 13.9597 31.094V36.2599C13.9597 36.3315 14.0265 36.3833 14.097 36.3833H14.983C15.056 36.3833 15.1203 36.3333 15.1203 36.2599V33.9663H15.739C15.9159 33.9637 16.0663 33.9806 16.1887 34.0166C16.3108 34.0515 16.4125 34.1158 16.4942 34.2098C16.5745 34.3038 16.6417 34.4389 16.694 34.6152L17.1648 36.2907C17.1903 36.3594 17.2371 36.3833 17.2862 36.3833H18.1729C18.2852 36.3888 18.3179 36.2797 18.3059 36.229L17.8322 34.4374C17.8031 34.3218 17.7697 34.216 17.7352 34.1224C17.6996 34.0269 17.6549 33.9421 17.6004 33.8661C17.5467 33.79 17.4755 33.7221 17.389 33.6615C17.3029 33.6024 17.1932 33.5495 17.061 33.5033ZM8.2711 36.2055V35.4946C8.2711 35.4418 8.23186 35.3639 8.14177 35.3639H6.06637C5.93995 35.3639 5.68928 35.275 5.68928 34.9497V33.92H7.8951C7.98738 33.92 8.02661 33.8404 8.02661 33.7934V33.07C8.02661 32.9943 7.9743 32.9389 7.88166 32.9389H5.68928V32.3616C5.68928 32.1163 5.8909 31.9815 6.06637 31.9815H8.13559C8.23223 31.9815 8.2711 31.9063 8.2711 31.8508V31.1014C8.2711 31.0272 8.21624 30.9706 8.12615 30.9703L5.97155 30.96C5.16217 30.9563 4.52789 31.6415 4.52789 32.3991V34.9625C4.52789 35.7487 5.18506 36.3833 5.9414 36.3833H8.13959C8.21733 36.3833 8.26928 36.3256 8.2711 36.2525C8.27146 36.2393 8.2711 36.2217 8.2711 36.2055ZM30.4644 31.9819V36.2599C30.4644 36.3333 30.3998 36.3833 30.3267 36.3833H29.4411C29.3706 36.3833 29.303 36.3315 29.303 36.2599V31.9819H27.9131C27.8423 31.9819 27.7907 31.914 27.7907 31.8431V31.1094C27.7907 31.0356 27.8405 30.9703 27.9131 30.9703C29.2347 30.9703 30.556 30.9703 31.8776 30.9703C31.9502 30.9703 32 31.0356 32 31.1094V31.8431C32 31.914 31.9484 31.9819 31.8776 31.9819H30.4644ZM3.01012 34.6229C3.02319 35.0488 2.69043 35.3566 2.26903 35.3566H1.1614V33.92H2.27666C2.67045 33.92 2.99704 34.1965 3.01012 34.6229Z" fill="#404B67"/>
    <path opacity="0.3" fill-rule="evenodd" clip-rule="evenodd" d="M20.2507 22.7694L18.4801 25.9674V24.5592L20.2507 22.7694ZM23.7614 10.2032L19.7312 14.2766C19.6146 14.3945 19.6146 14.5876 19.7312 14.7055L21.7078 16.7031L24.4793 16.9987H18.7798C18.6153 16.9987 18.4801 17.1353 18.4801 17.302V20.0076L20.2751 22.3155L16.2456 18.2421C16.129 18.1242 15.9383 18.1242 15.8217 18.2421L13.8992 20.1853L13.5414 23.0723V17.3116C13.5414 17.1449 13.4062 17.0083 13.2417 17.0083H10.3627L8.2397 18.7598L12.2695 14.6864C12.3861 14.5685 12.3861 14.3754 12.2695 14.2575L10.2519 12.218L7.51787 11.9551H13.2173C13.3823 11.9551 13.517 11.8189 13.517 11.6518V8.90067L11.7399 6.64454L15.7704 10.7184C15.8867 10.8362 16.0781 10.8362 16.1947 10.7184L18.1753 8.7156L18.4685 5.89066V11.6514C18.4685 11.8181 18.6033 11.9547 18.7682 11.9547H21.6058L23.7614 10.2032ZM24.7793 19.8079V17.302L25.7933 20.8327L24.7793 19.8079ZM30.2474 16.3304L25.9186 11.9547L24.1858 10.2032L27.3412 11.9547C27.5061 11.9547 27.6409 11.8181 27.6409 11.6514V5.89066C27.6409 5.72395 27.5061 5.58772 27.3412 5.58772H21.2705L22.2564 4.59075L21.2705 5.58772H18.7682L22.2564 4.59075C22.373 4.47287 22.373 4.28009 22.2564 4.16221L18.2262 0.0884054C18.1096 -0.0294685 17.9185 -0.0294685 17.8022 0.0884054L13.517 4.41999L11.6854 6.29386L11.6839 6.29569H11.6836L11.6865 6.29019L11.6959 6.27256L13.517 2.98641C13.517 2.8197 13.3823 2.68347 13.2173 2.68347H7.5175C7.35294 2.68347 7.21816 2.8197 7.21816 2.98641V9.15111V9.15147V11.6518L6.20789 8.13027C6.09091 8.01239 5.89983 8.01239 5.78358 8.13027L1.75375 12.2037C1.63677 12.3216 1.63677 12.5147 1.75375 12.6326L7.81539 18.7598L4.66868 17.0083C4.50376 17.0083 4.36898 17.1449 4.36898 17.3116V23.0723C4.36898 23.2391 4.50376 23.3753 4.66868 23.3753H10.743H13.2417L9.76001 24.3693C9.6434 24.4872 9.6434 24.6803 9.76001 24.7982L13.7902 28.8717C13.9065 28.9895 14.0975 28.9895 14.2142 28.8717L18.4801 24.5592V25.9674C18.4801 26.1341 18.6153 26.2707 18.7798 26.2707H24.4793C24.6442 26.2707 24.7793 26.1341 24.7793 25.9674V19.8079L25.7933 20.8327C25.9099 20.9506 26.1006 20.9506 26.2176 20.8327L30.2474 16.7593C30.364 16.6411 30.364 16.4483 30.2474 16.3304Z" fill="#404B67"/>
</svg>
