<svg width="52" height="17" viewBox="0 0 52 17" fill="none" xmlns="http://www.w3.org/2000/svg">
<path opacity="0.3" fill-rule="evenodd" clip-rule="evenodd" d="M33.6161 3.23954C34.9989 3.2178 36.0012 3.52001 36.7795 3.83309L37.1611 4.01246L37.7329 0.651168C36.8959 0.336998 35.5837 0 33.9466 0C29.77 0 26.8261 2.10352 26.8033 5.11803C26.7761 7.34549 28.9003 8.58912 30.5048 9.33161C32.1518 10.0926 32.704 10.5763 32.6964 11.2558C32.6834 12.2939 31.3832 12.7701 30.1689 12.7701C28.4763 12.7701 27.5773 12.5364 26.1891 11.958L25.6444 11.7102L25.0498 15.1813C26.0391 15.615 27.8643 15.9879 29.7591 16.0074C34.202 16.0074 37.0894 13.9289 37.1198 10.7079C37.1383 8.94569 36.011 7.60096 33.5683 6.49756C32.0898 5.7779 31.1854 5.29958 31.1941 4.5734C31.1941 3.92875 31.9615 3.23954 33.6161 3.23954ZM6.60735 0.132812C7.49116 0.166512 8.20321 0.44807 8.44889 1.39275L9.87407 8.24362C8.47389 4.65947 5.09955 1.67866 0 0.441547L0.0543547 0.132812H6.60735ZM20.8207 0.266602L18.178 15.7751H22.4046L25.0495 0.266602H20.8207ZM14.6348 0.284512L10.4952 10.8608L10.0538 9.2639C9.23741 7.33975 6.91972 4.57635 4.19873 2.83483L7.98399 15.768L12.4563 15.7604L19.1126 0.28125L14.6348 0.284512ZM45.3144 0.283203H48.58L52 15.783H48.0789C48.0789 15.783 47.6897 14.0012 47.5636 13.4599C47.2385 13.4599 45.8776 13.458 44.5962 13.4563C43.4565 13.4548 42.3797 13.4533 42.151 13.4533C41.9868 13.8719 41.2628 15.783 41.2628 15.783H36.8242L43.1 1.57032C43.5457 0.559325 44.3002 0.283203 45.3144 0.283203ZM45.0513 5.94479C45.0513 5.94479 43.7153 9.3887 43.3674 10.279H46.8787L45.8993 5.80129L45.6145 4.46416C45.5076 4.74967 45.3651 5.12021 45.2501 5.41936C45.1299 5.73186 45.0397 5.96645 45.0513 5.94479Z" fill="#404B67"/>
</svg>
