<svg width="82" height="19" viewBox="0 0 82 19" fill="none" xmlns="http://www.w3.org/2000/svg">
<path opacity="0.3" fill-rule="evenodd" clip-rule="evenodd" d="M0 2.00003C0 0.895473 0.895386 2.66442e-05 2 2.66442e-05H16C17.1046 2.66442e-05 18 0.895473 18 2.00003V16C18 17.1046 17.1046 18 16 18H2C0.895386 18 0 17.1046 0 16V2.00003ZM10.7791 12.4348L10.038 13.76C10.038 13.8291 10.0945 13.8856 10.1633 13.8856H12.5491C12.5857 13.8856 12.6188 13.8697 12.6418 13.8444C12.6621 13.822 12.6746 13.7924 12.6746 13.76V11.2077V10.1693L13.099 11.6324C13.1478 11.6812 13.2277 11.6812 13.2766 11.6324L14.9634 9.94448C15.0122 9.89547 15.0122 9.81558 14.9634 9.76675L13.1515 7.95364L12.4261 7.22787L13.7469 7.95364C13.7838 7.95364 13.817 7.93753 13.8401 7.91195C13.8601 7.88961 13.8723 7.86013 13.8723 7.82797V5.44088C13.8723 5.37185 13.8159 5.3154 13.7469 5.3154H11.2059H10.1586L11.6185 4.90225C11.6514 4.86941 11.6621 4.82248 11.6508 4.78042C11.6453 4.75998 11.6345 4.74069 11.6185 4.7247L9.93164 3.03665C9.88281 2.98782 9.80286 2.98782 9.75415 3.03665L7.96057 4.83151L7.19434 5.60647L7.19824 5.59915L7.96057 4.23751C7.96057 4.19381 7.93799 4.15518 7.90393 4.13266C7.88416 4.11959 7.86047 4.11197 7.83508 4.11197H5.44922C5.38037 4.11197 5.32397 4.16842 5.32397 4.23751V6.79208V7.82809L4.90112 6.36892C4.88208 6.34988 4.85828 6.33828 4.83337 6.33407C4.79456 6.32754 4.75317 6.33914 4.72351 6.36892L3.03674 8.05679C2.98779 8.10562 2.98779 8.1857 3.03674 8.23452L5.57397 10.7734L4.25684 10.0476C4.18774 10.0476 4.13135 10.1042 4.13135 10.1733V12.5604C4.13135 12.6294 4.18774 12.6859 4.25684 12.6859H6.79944H7.84521L6.38794 13.0978C6.33911 13.1466 6.33911 13.2267 6.38794 13.2755L8.07483 14.9634C8.10571 14.9944 8.14929 15.0057 8.18945 14.9974C8.21252 14.9926 8.2345 14.9812 8.25232 14.9634L10.038 13.1765L10.7791 12.4348ZM12.2485 7.22787L10.5616 8.91574C10.5128 8.96457 10.5128 9.04458 10.5616 9.09347L11.3889 9.92117L12.5491 10.0437H10.1633C10.0945 10.0437 10.038 10.1003 10.038 10.1693V11.2904L10.7893 12.2468L9.10266 10.5589C9.05383 10.51 8.974 10.51 8.92517 10.5589L8.12048 11.3641L7.9707 12.5604V10.1733C7.9707 10.1042 7.91418 10.0476 7.84521 10.0476H6.64014L5.75159 10.7734L7.43835 9.08554C7.48718 9.03671 7.48718 8.95669 7.43835 8.9078L6.59387 8.06271L5.44946 7.95376H7.83508C7.90405 7.95376 7.96057 7.89737 7.96057 7.82809V6.68814L7.21667 5.75326L8.90369 7.44131C8.95239 7.49014 9.03247 7.49014 9.0813 7.44131L9.9104 6.61148L10.0331 5.44088V7.82797C10.0331 7.89706 10.0895 7.95364 10.1586 7.95364H11.3462L12.2485 7.22787ZM39.1823 0.972134L39.0513 3.13626C39.0077 3.87411 38.9592 4.51181 38.908 5.05807C38.9026 5.11813 38.8972 5.1838 38.8915 5.25406C38.8103 6.2369 38.6553 8.1185 37.541 8.1185H37.4939C37.3866 8.11715 37.2501 8.20651 37.2501 8.35067V9.67001V9.74044C37.2501 9.89273 37.354 9.99697 37.496 9.99697H37.6027C38.5015 9.99362 39.2903 9.90084 39.9702 8.89627C40.1836 8.58151 40.3705 8.2275 40.5042 7.82608C40.6392 7.42532 40.7466 6.97451 40.8248 6.47897C40.9017 5.98349 40.9647 5.43716 41.016 4.83944C41.0406 4.5364 41.0654 4.22006 41.0901 3.88986C41.114 3.57095 41.1378 3.23916 41.1614 2.89395L41.2195 1.89749H44.0602V9.75668C44.0602 9.8887 44.1779 10.0099 44.3226 9.99697H46.0103C46.1862 9.99697 46.274 9.87918 46.274 9.74112V0.721645C46.2755 0.347988 45.9556 0.0183372 45.5048 0.0183372H39.9176C39.4883 0.0183372 39.2341 0.38522 39.2155 0.689846C39.2128 0.727688 39.2072 0.766811 39.2013 0.8074L39.2006 0.811794C39.1931 0.86282 39.1853 0.916164 39.1823 0.972134ZM21.7195 9.99765H25.5442C27.434 10.0626 28.9783 8.78054 29.0399 6.86618C29.0405 6.81411 29.042 6.75888 29.0421 6.70083C29.0425 6.57614 29.0369 6.43856 29.0052 6.29214C28.6708 4.72573 27.4036 3.64871 25.7906 3.64871H23.2139V1.86972H27.6119C27.7782 1.87381 27.8785 1.75735 27.8744 1.59964V0.332424C27.8779 0.159145 27.8121 0.0149192 27.6119 0.0190086H21.7728C21.1759 0.0190086 21 0.446804 21 0.721645V9.29568C21 9.68222 21.3116 9.99765 21.7195 9.99765ZM68.2124 9.69845V6.36184H70.632C72.3058 6.36184 73.8743 5.02359 73.8473 3.13626C73.8473 2.68277 73.7308 2.25692 73.5605 1.88327C73.1589 1.0046 72.4263 0.417019 71.5605 0.159145C71.2061 0.0535545 70.8203 0.0216941 70.4402 0.0190086H66.7457C66.3523 0.0190086 66.0234 0.284389 66.0061 0.703396C66.0055 0.72073 66.0044 0.73843 66.0033 0.756496L66.0024 0.771511C66.0012 0.79269 66 0.814297 65.9993 0.836391C65.9987 0.853176 65.9983 0.870266 65.9984 0.887539V9.75735C65.9984 9.8948 66.1038 9.99765 66.2491 9.99832H67.9673C68.0565 9.99832 68.1417 9.94619 68.1826 9.87039C68.2062 9.82235 68.2124 9.76748 68.2124 9.69845ZM71.533 3.19113C71.5322 3.88699 70.9657 4.49826 70.1957 4.49759L68.2124 4.49557V1.88394H70.1042C70.9623 1.85824 71.5343 2.49453 71.533 3.19113ZM62.4619 7.91946L63.0298 9.77023C63.0782 9.94015 63.171 9.99765 63.2804 9.99765H65.1232C65.2955 9.99697 65.4071 9.85617 65.3655 9.68765L62.3456 0.800198C62.2036 0.36697 61.9902 0.0190086 61.4751 0.0190086L60.1676 0.0223655C59.908 0.00613016 59.6802 0.0928001 59.5035 0.320949C59.4135 0.436001 59.3359 0.593716 59.2729 0.800198L56.255 9.67611C56.1879 9.87381 56.3575 9.99765 56.4926 9.99765H58.2639H58.272C58.3309 9.99807 58.4447 9.99874 58.516 9.8508C58.532 9.81625 58.5493 9.76748 58.5597 9.72689L59.1276 7.91946H62.4619ZM59.6517 6.15475L60.2051 4.35141L60.7583 2.32058H60.8456L61.3844 4.35141L61.9376 6.15475H59.6517ZM53.5225 4.6885V4.6174C53.8354 4.43191 54.0979 4.19027 54.3043 3.89376C54.5127 3.59726 54.665 3.24594 54.7606 2.84249L55.4303 0.301296C55.4552 0.188259 55.377 0.0190086 55.1865 0.0190086H53.5951C53.5419 0.0169944 53.4865 0.0264549 53.4276 0.0501365C53.3971 0.0612449 53.3711 0.0826682 53.3499 0.113735C53.3309 0.141262 53.3157 0.176418 53.3043 0.218716L52.6492 2.61502C52.5717 2.90609 52.467 3.139 52.339 3.3096C52.2095 3.48355 52.0662 3.61148 51.9097 3.69406C51.7531 3.77731 51.5939 3.83218 51.4332 3.85788C51.2711 3.88156 51.1174 3.89376 50.974 3.89108H49.8239V0.256618C49.8239 0.102932 49.6923 0.0190086 49.5807 0.0190086H47.8723C47.7277 0.0190086 47.6106 0.121242 47.6106 0.247158V9.77023C47.6106 9.90225 47.738 9.99765 47.8723 9.99765H49.5614C49.6389 9.99765 49.7113 9.96908 49.7601 9.92044C49.7991 9.88168 49.8231 9.83023 49.8231 9.77023V5.54208H51.0024C51.3397 5.53738 51.6263 5.56851 51.8597 5.63485C52.0924 5.69912 52.2864 5.81759 52.4421 5.99093C52.5952 6.16421 52.7233 6.4133 52.823 6.73825L53.7205 9.82705C53.7689 9.95364 53.8583 9.99765 53.9518 9.99765H55.6422C55.8562 10.0078 55.9185 9.80679 55.8956 9.71334L54.9926 6.41061C54.9373 6.19735 54.8735 6.00241 54.8077 5.8298C54.7399 5.65377 54.6547 5.4974 54.5508 5.35733C54.4484 5.21719 54.3126 5.09195 54.1477 4.98025C53.9836 4.87124 53.7745 4.77377 53.5225 4.6885ZM36.7667 9.67001V8.35946C36.7667 8.26199 36.692 8.1185 36.5203 8.1185H32.564C32.323 8.1185 31.8452 7.95468 31.8452 7.35495V5.45681H36.05C36.226 5.45681 36.3008 5.3099 36.3008 5.22329V3.88974C36.3008 3.75027 36.201 3.64804 36.0244 3.64804H31.8452V2.58389C31.8452 2.13174 32.2295 1.88327 32.564 1.88327H36.5084C36.6926 1.88327 36.7667 1.74453 36.7667 1.6423V0.260647C36.7667 0.20602 36.75 0.156582 36.719 0.116848C36.6725 0.0571555 36.5936 0.0194358 36.4905 0.0190086L32.3833 2.66442e-05C30.8403 -0.00668722 29.6312 1.25644 29.6312 2.65298V7.37863C29.6312 8.82791 30.884 9.99765 32.3258 9.99765H36.5161C36.6643 9.99765 36.7633 9.89138 36.7667 9.75668C36.7675 9.73233 36.7667 9.69979 36.7667 9.67001ZM79.0729 1.88394V9.77023C79.0729 9.90561 78.9496 9.99765 78.8103 9.99765H77.1221C77.0459 9.99765 76.9716 9.96701 76.9214 9.91641C76.8995 9.89431 76.8822 9.86843 76.8713 9.83963C76.8633 9.81802 76.8589 9.79477 76.8589 9.77023V1.88394H74.2094C74.0743 1.88394 73.9761 1.75869 73.9761 1.62808V0.275539C73.9761 0.256313 73.9779 0.237392 73.9816 0.219082C73.9838 0.207851 73.9867 0.196865 73.9902 0.186123C74.0216 0.0907859 74.1025 0.0190086 74.2094 0.0190086H81.7666C81.9052 0.0190086 82 0.139492 82 0.275539V1.62808C82 1.70767 81.9635 1.78524 81.9044 1.83377C81.8665 1.86483 81.8193 1.88394 81.7666 1.88394H79.0729ZM26.738 6.75247C26.7629 7.53769 26.1287 8.10495 25.3253 8.10495H23.2139V5.45681H25.3398C26.0906 5.45681 26.7131 5.96652 26.738 6.75247ZM21 17.7358V13H22.1345V15.795C22.1783 15.7337 22.2229 15.6718 22.2682 15.6093L22.318 15.541L22.4077 15.4185C22.5015 15.2912 22.5983 15.1615 22.6981 15.0296C22.7896 14.9068 22.881 14.7863 22.9724 14.6682C23.0162 14.6115 23.0601 14.5555 23.1039 14.5C23.1687 14.4179 23.2335 14.3371 23.2983 14.2574C23.3818 14.1554 23.4645 14.0559 23.5464 13.9592C23.5968 13.8996 23.6469 13.841 23.6967 13.7834L23.7634 13.7066L23.803 13.6615L23.8986 13.5536L23.9642 13.4805C23.9911 13.4508 24.0177 13.4218 24.0439 13.3935C24.1084 13.3241 24.1707 13.2586 24.231 13.1974C24.2675 13.1602 24.3031 13.1247 24.3381 13.0905L24.3839 13.0463L24.4329 13H25.3625V17.7358H24.2352V14.6333C23.8059 15.1025 23.4009 15.6014 23.0203 16.1298C22.6396 16.6584 22.2858 17.1936 21.9589 17.7358H21ZM29.7751 17.7358H28.6846V16.3144H27.55V17.7358H26.4594V14.1413H27.55V15.4807H28.6846V14.1413H29.7751V17.7358ZM32.7526 14.9749H33.9823V14.1413H30.4323V14.9749H31.662V17.7358H32.7526V14.9749ZM34.4609 15.9658C34.4609 15.6469 34.5122 15.369 34.6146 15.1322C34.6597 15.0308 34.7103 14.9366 34.7666 14.8497C34.8444 14.7296 34.9327 14.6233 35.0319 14.5308C35.2026 14.3713 35.3978 14.2506 35.6174 14.1686C35.8419 14.0866 36.0713 14.0456 36.3055 14.0456C36.8521 14.0456 37.2839 14.2028 37.6011 14.5171C37.9182 14.8269 38.0769 15.2848 38.0769 15.8907C38.0769 15.9499 38.0745 16.016 38.0696 16.0889L38.0652 16.1465C38.0618 16.1922 38.0583 16.2345 38.0549 16.2734H35.5808C35.5853 16.3121 35.5925 16.3493 35.6025 16.385C35.6055 16.3952 35.6085 16.4054 35.6118 16.4153C35.6172 16.4315 35.6232 16.4474 35.6298 16.4629C35.6815 16.5858 35.7701 16.689 35.8956 16.7722C36.0811 16.8952 36.33 16.9568 36.6422 16.9568C36.7477 16.9568 36.8518 16.9523 36.9546 16.9434C37.0468 16.9355 37.1378 16.924 37.2278 16.9089C37.423 16.8725 37.5815 16.8292 37.7035 16.7791L37.85 17.6059C37.8359 17.6125 37.8208 17.619 37.8046 17.6255C37.7904 17.6312 37.7755 17.6369 37.7598 17.6425C37.7177 17.6577 37.6697 17.6728 37.6157 17.688C37.5181 17.7153 37.4083 17.7381 37.2864 17.7563C37.1692 17.7791 37.0424 17.7973 36.9058 17.8109C36.769 17.8246 36.6324 17.8314 36.4958 17.8314C36.1493 17.8314 35.8468 17.7836 35.5881 17.688C35.3345 17.5923 35.1222 17.4624 34.9514 17.2984C34.7854 17.1298 34.661 16.9317 34.5781 16.7039C34.5 16.4761 34.4609 16.2301 34.4609 15.9658ZM37.0228 15.5763C37.0201 15.5295 37.0139 15.4834 37.0042 15.4379C36.9989 15.4132 36.9926 15.3888 36.9851 15.3645C36.981 15.3508 36.9764 15.3371 36.9716 15.3235C36.9471 15.2415 36.9058 15.1686 36.8472 15.1048C36.8177 15.0699 36.7832 15.0383 36.7435 15.0102C36.7108 14.987 36.6746 14.9662 36.6349 14.9477C36.5519 14.9066 36.447 14.8861 36.3202 14.8861C36.1981 14.8861 36.0933 14.9066 36.0054 14.9477C35.9176 14.9841 35.8444 15.0342 35.7858 15.098C35.757 15.1294 35.7311 15.1635 35.7081 15.2004C35.6846 15.2385 35.6641 15.2795 35.6467 15.3235C35.6174 15.4055 35.5955 15.4898 35.5808 15.5763H37.0228ZM41.1583 15.2141C41.3096 15.401 41.3853 15.6515 41.3853 15.9658C41.3853 16.6173 41.1266 16.9431 40.6094 16.9431C40.4971 16.9431 40.3849 16.9294 40.2726 16.9021C40.248 16.8958 40.2245 16.8891 40.2019 16.8822C40.189 16.8782 40.1764 16.8741 40.1641 16.8698C40.1044 16.8492 40.0527 16.8258 40.0092 16.7996V14.9613C40.0627 14.9522 40.1311 14.9453 40.2141 14.9408C40.297 14.9317 40.3873 14.9272 40.4849 14.9272C40.7826 14.9272 41.0071 15.0228 41.1583 15.2141ZM42.479 16.2704C42.4916 16.164 42.4978 16.0534 42.4978 15.9385C42.4978 15.6515 42.4514 15.3918 42.3588 15.1595C42.2709 14.9272 42.1416 14.7312 41.9708 14.5718C41.7999 14.4077 41.5902 14.2825 41.3413 14.1959C41.0924 14.1048 40.8094 14.0592 40.4922 14.0592C40.4399 14.0592 40.3865 14.0603 40.3318 14.0624C40.2489 14.0657 40.1632 14.0715 40.075 14.0797C39.9335 14.0889 39.792 14.1025 39.6505 14.1208C39.5138 14.139 39.3821 14.1618 39.2552 14.1891C39.1283 14.2119 39.0161 14.2369 38.9185 14.2642V19H40.0092V17.6469C40.1311 17.697 40.2579 17.7358 40.3898 17.7631C40.5215 17.7904 40.663 17.8041 40.8143 17.8041C41.0875 17.8041 41.3291 17.7586 41.5389 17.6674C41.7488 17.5763 41.9244 17.4488 42.0659 17.2848L42.0868 17.2601C42.1047 17.2382 42.1222 17.2159 42.139 17.193C42.1787 17.1392 42.2152 17.0824 42.2484 17.0225C42.304 16.9224 42.3505 16.8139 42.3879 16.697C42.4309 16.5634 42.4613 16.4212 42.479 16.2704ZM46.6517 17.7358H45.5612V16.3144H44.4266V17.7358H43.3359V14.1413H44.4266V15.4807H45.5612V14.1413H46.6517V17.7358ZM47.6456 15.1322C47.5431 15.369 47.4919 15.6469 47.4919 15.9658C47.4919 16.1515 47.5111 16.3281 47.5497 16.4958C47.566 16.5667 47.5858 16.6361 47.609 16.7039C47.6919 16.9317 47.8164 17.1298 47.9823 17.2984C48.0457 17.3593 48.1147 17.4155 48.1896 17.4669C48.2393 17.5011 48.2915 17.5332 48.3462 17.5633C48.4312 17.6098 48.5221 17.6514 48.6191 17.688C48.8777 17.7836 49.1803 17.8314 49.5267 17.8314C49.5972 17.8314 49.6676 17.8296 49.738 17.826C49.8042 17.8226 49.8705 17.8176 49.9366 17.8109C50.0732 17.7973 50.2002 17.7791 50.3173 17.7563C50.3669 17.7489 50.4146 17.7407 50.4602 17.7318C50.5266 17.7188 50.5887 17.7042 50.6466 17.688C50.7443 17.6606 50.8223 17.6333 50.8809 17.6059L50.7345 16.7791C50.6124 16.8292 50.4539 16.8725 50.2587 16.9089C50.0684 16.9408 49.8732 16.9568 49.6731 16.9568C49.3608 16.9568 49.1119 16.8952 48.9265 16.7722C48.7411 16.6493 48.6362 16.4829 48.6118 16.2734H51.0858C51.0907 16.2187 51.0956 16.1572 51.1005 16.0889C51.1053 16.016 51.1078 15.9499 51.1078 15.8907C51.1078 15.2848 50.9492 14.8269 50.632 14.5171C50.3148 14.2028 49.8829 14.0456 49.3364 14.0456C49.1022 14.0456 48.8728 14.0866 48.6484 14.1686C48.4288 14.2506 48.2336 14.3713 48.0629 14.5308C47.892 14.6902 47.7529 14.8907 47.6456 15.1322ZM50.0026 15.3235C50.0317 15.4055 50.0488 15.4898 50.0537 15.5763H48.6118C48.6265 15.4898 48.6484 15.4055 48.6776 15.3235C48.696 15.2767 48.7181 15.2332 48.7438 15.1931C48.7655 15.159 48.7898 15.1273 48.8168 15.098C48.8313 15.0821 48.8467 15.0671 48.863 15.0529C48.8844 15.0345 48.9073 15.0174 48.9318 15.0019C48.964 14.9813 48.9988 14.9632 49.0364 14.9477C49.1241 14.9066 49.2291 14.8861 49.3511 14.8861C49.4779 14.8861 49.5829 14.9066 49.6658 14.9477C49.7537 14.9886 49.8243 15.041 49.8781 15.1048C49.9366 15.1686 49.9781 15.2415 50.0026 15.3235ZM55.1334 14.9749H53.9038V17.7358H52.8131V14.9749H51.5834V14.1413H55.1334V14.9749ZM60.0404 17.7358V13H55.8683V17.7358H57.0101V13.9021H58.8986V17.7358H60.0404ZM62.613 17.0251C62.7205 17.0251 62.8229 17.0228 62.9205 17.0183C63.0181 17.0137 63.0962 17.0069 63.1548 16.9978V16.2256C63.1108 16.2165 63.0449 16.2073 62.9572 16.1982C62.8693 16.1891 62.7887 16.1845 62.7156 16.1845C62.613 16.1845 62.5155 16.1914 62.4227 16.205C62.335 16.2141 62.2568 16.2346 62.1885 16.2666C62.1202 16.2984 62.0665 16.3417 62.0275 16.3964C62.0081 16.4237 61.9934 16.4543 61.9836 16.4883C61.9739 16.5225 61.969 16.5603 61.969 16.6014C61.969 16.7608 62.025 16.8725 62.1373 16.9362C62.193 16.9644 62.2581 16.9859 62.3325 17.0006C62.4147 17.0169 62.5082 17.0251 62.613 17.0251ZM62.5253 14.0456C62.8473 14.0456 63.1157 14.0797 63.3304 14.1481C63.5452 14.2165 63.7159 14.3144 63.8428 14.4419C63.9745 14.5695 64.0673 14.7244 64.121 14.9066C64.1746 15.0889 64.2014 15.2916 64.2014 15.5149V17.6333C64.0453 17.6652 63.8281 17.7016 63.5499 17.7426C63.2719 17.7882 62.9352 17.8109 62.5399 17.8109C62.291 17.8109 62.0641 17.7904 61.8591 17.7495C61.6591 17.7085 61.4858 17.6424 61.3395 17.5513C61.1931 17.4556 61.0808 17.3326 61.0028 17.1823C60.9247 17.0319 60.8856 16.8474 60.8856 16.6287C60.8856 16.4192 60.9296 16.2415 61.0173 16.0957C61.0354 16.0673 61.0544 16.0402 61.0746 16.0141C61.1052 15.9746 61.1384 15.9377 61.1741 15.9033C61.2006 15.8778 61.2285 15.8537 61.2578 15.831C61.2743 15.8182 61.2913 15.8058 61.3087 15.7939C61.3328 15.7775 61.3577 15.7619 61.3834 15.7472C61.5347 15.6606 61.7079 15.5991 61.9031 15.5626C62.0983 15.5217 62.3008 15.5012 62.5106 15.5012C62.5653 15.5012 62.6173 15.5022 62.6669 15.5042C62.7456 15.5075 62.818 15.5133 62.8839 15.5217C62.9473 15.5268 63.0037 15.5334 63.0531 15.5415C63.0911 15.5477 63.125 15.5547 63.1548 15.5626V15.467C63.1548 15.2938 63.0986 15.1549 62.9863 15.0501C62.8741 14.9453 62.679 14.893 62.4008 14.893C62.2153 14.893 62.0323 14.9066 61.8518 14.934C61.6713 14.9568 61.5151 14.9909 61.3834 15.0365L61.2443 14.2165L61.2615 14.2117L61.2949 14.2027L61.3352 14.1927C61.3645 14.1857 61.3959 14.1787 61.4294 14.1717L61.4785 14.1618C61.5762 14.139 61.681 14.1208 61.7933 14.1071C61.8575 14.0966 61.9233 14.0877 61.9907 14.0803C62.0411 14.0747 62.0924 14.07 62.1447 14.0661C62.2715 14.0524 62.3983 14.0456 62.5253 14.0456ZM67.4275 15.2141C67.5787 15.401 67.6543 15.6515 67.6543 15.9658C67.6543 16.6173 67.3958 16.9431 66.8784 16.9431C66.7662 16.9431 66.6541 16.9294 66.5417 16.9021C66.4344 16.8747 66.3466 16.8406 66.2783 16.7996V14.9613C66.3319 14.9522 66.4003 14.9453 66.4832 14.9408C66.5031 14.9386 66.5234 14.9367 66.5442 14.935C66.61 14.9298 66.6799 14.9272 66.754 14.9272C67.0518 14.9272 67.2761 15.0228 67.4275 15.2141ZM68.6571 16.697C68.7303 16.4693 68.767 16.2165 68.767 15.9385C68.767 15.6515 68.7206 15.3918 68.6278 15.1595C68.54 14.9272 68.4108 14.7312 68.2399 14.5718C68.0691 14.4077 67.8593 14.2825 67.6105 14.1959C67.3616 14.1048 67.0785 14.0592 66.7614 14.0592C66.7084 14.0592 66.6542 14.0603 66.5988 14.0625C66.5165 14.0658 66.4316 14.0716 66.3441 14.0797C66.2863 14.0835 66.2284 14.088 66.1705 14.0932C66.1333 14.0966 66.0961 14.1003 66.0588 14.1043C66.0125 14.1093 65.9661 14.1148 65.9196 14.1208C65.783 14.139 65.6512 14.1618 65.5243 14.1891C65.3975 14.2119 65.2853 14.2369 65.1876 14.2642V19H66.2783V17.6469C66.4003 17.697 66.5271 17.7358 66.6589 17.7631C66.7906 17.7904 66.9321 17.8041 67.0834 17.8041C67.3567 17.8041 67.5983 17.7586 67.8081 17.6674C68.0179 17.5763 68.1936 17.4488 68.3351 17.2848C68.4766 17.1208 68.584 16.9248 68.6571 16.697ZM73.2064 15.9317C73.2064 16.2141 73.1625 16.4738 73.0746 16.7107C72.9868 16.9431 72.86 17.1435 72.694 17.3121C72.5281 17.4761 72.328 17.6037 72.0938 17.6948C71.8645 17.7859 71.6058 17.8314 71.3179 17.8314C71.0349 17.8314 70.7762 17.7859 70.5421 17.6948C70.3127 17.6037 70.1151 17.4761 69.9492 17.3121C69.7832 17.1435 69.6539 16.9431 69.5613 16.7107C69.4685 16.4738 69.4221 16.2141 69.4221 15.9317C69.4221 15.6493 69.4685 15.3918 69.5613 15.1595C69.6588 14.9272 69.7905 14.729 69.9565 14.565C70.1273 14.401 70.3274 14.2734 70.5566 14.1823C70.7909 14.0912 71.0447 14.0456 71.3179 14.0456C71.5961 14.0456 71.8499 14.0912 72.0792 14.1823C72.3134 14.2734 72.5134 14.401 72.6793 14.565C72.8453 14.729 72.9746 14.9272 73.0673 15.1595C73.16 15.3918 73.2064 15.6493 73.2064 15.9317ZM72.0938 15.9317C72.0938 15.6173 72.0255 15.3713 71.8889 15.1936C71.7571 15.0114 71.5668 14.9203 71.3179 14.9203C71.0691 14.9203 70.8763 15.0114 70.7396 15.1936C70.603 15.3713 70.5348 15.6173 70.5348 15.9317C70.5348 16.2461 70.603 16.4966 70.7396 16.6834C70.8763 16.8656 71.0691 16.9568 71.3179 16.9568C71.5668 16.9568 71.7571 16.8656 71.8889 16.6834C72.0255 16.4966 72.0938 16.2461 72.0938 15.9317ZM75.7567 15.3986C75.7665 15.2483 75.7738 15.1071 75.7787 14.9749H76.5253V17.7358H77.6158V14.1413H74.7246V14.5513L74.7245 14.6211L74.7242 14.6574C74.7241 14.6882 74.7239 14.7191 74.7234 14.7504L74.7227 14.8098L74.7212 14.8943L74.7173 15.0501C74.7173 15.2232 74.71 15.3941 74.6953 15.5626C74.6808 15.7267 74.6564 15.8839 74.6222 16.0342C74.5929 16.1845 74.5514 16.3167 74.4977 16.4306C74.4294 16.5626 74.3269 16.672 74.1903 16.7586C74.0537 16.8406 73.861 16.9044 73.6121 16.9499L73.7584 17.7973C74.022 17.7745 74.2513 17.7312 74.4465 17.6674C74.6466 17.5991 74.8149 17.5149 74.9515 17.4146C75.093 17.3144 75.2078 17.2028 75.2955 17.0797C75.3883 16.9522 75.4639 16.8155 75.5225 16.6697C75.5479 16.6057 75.5707 16.5392 75.5908 16.4702C75.5958 16.453 75.6007 16.4357 75.6053 16.4182C75.618 16.3711 75.6294 16.3228 75.6396 16.2734C75.6584 16.1952 75.6752 16.1164 75.6896 16.0368C75.7012 15.9726 75.7114 15.9079 75.7201 15.8429C75.7396 15.6925 75.7518 15.5445 75.7567 15.3986ZM80.2726 17.0251C80.4727 17.0251 80.6288 16.9909 80.7411 16.9226C80.766 16.9071 80.7882 16.8897 80.8079 16.8703C80.8284 16.8499 80.8459 16.8275 80.8607 16.8029C80.8718 16.7843 80.8813 16.7644 80.8892 16.7434C80.8979 16.7198 80.9045 16.6947 80.9092 16.668C80.9142 16.6386 80.9167 16.6073 80.9167 16.5741C80.9167 16.492 80.8972 16.4237 80.8582 16.369C80.8191 16.3098 80.7654 16.2642 80.6971 16.2324C80.6288 16.1959 80.5483 16.1709 80.4556 16.1572C80.3677 16.1435 80.2726 16.1367 80.17 16.1367C80.0969 16.1367 80.0164 16.1413 79.9286 16.1504C79.8407 16.1595 79.7748 16.1686 79.731 16.1777V16.9978C79.7469 17.0003 79.7643 17.0026 79.7831 17.0047C79.8334 17.0105 79.8942 17.0149 79.9652 17.0183C80.0234 17.021 80.0835 17.0229 80.1453 17.024C80.1869 17.0247 80.2294 17.0251 80.2726 17.0251ZM79.731 15.4192C79.7992 15.401 79.8871 15.3873 79.9944 15.3781C80.1067 15.3645 80.2335 15.3576 80.375 15.3576C80.6044 15.3576 80.8167 15.3827 81.0118 15.4328C81.2119 15.4829 81.3851 15.5604 81.5315 15.6652C81.6237 15.7282 81.7032 15.8031 81.7703 15.8896C81.7925 15.9184 81.8134 15.9484 81.8329 15.9797C81.8479 16.0039 81.8622 16.029 81.8756 16.0547C81.9585 16.2096 82 16.3918 82 16.6014C82 16.8109 81.9609 16.9932 81.8829 17.1481C81.8511 17.2094 81.8136 17.2665 81.7704 17.3195C81.7076 17.3965 81.6329 17.4646 81.5461 17.524C81.3998 17.6196 81.2241 17.6902 81.0192 17.7358C80.8191 17.7859 80.5946 17.8109 80.3458 17.8109C80.0237 17.8109 79.7285 17.795 79.4601 17.7631C79.1917 17.7358 78.9185 17.6902 78.6403 17.6264V14.1413H79.731V15.4192Z" fill="#404B67"/>
</svg>
