<svg width="78" height="29" viewBox="0 0 78 29" fill="none" xmlns="http://www.w3.org/2000/svg">
<g opacity="0.3">
<path d="M9.71332 2.7368C11.7274 1.23137 14.1748 0.287291 16.6733 0.0576489C19.1462 -0.171993 21.6956 0.287291 23.9136 1.38447C26.4376 2.60922 28.5536 4.62497 29.9303 7.04896C30.6186 8.27372 31.1285 9.60053 31.4599 10.9784C32.6072 10.6212 33.7544 10.1874 34.7742 9.5495C35.3351 9.2178 35.8195 8.78403 36.2529 8.27372C35.3606 9.72811 34.2898 11.106 32.9641 12.2031C32.0718 12.9431 31.052 13.5555 29.9303 13.9382C28.6046 14.3975 27.1769 14.5251 25.8002 14.423C23.9646 14.2954 22.1545 13.8106 20.3954 13.2748C17.795 12.4838 15.2201 11.5397 12.5432 11.0039C10.4017 10.5956 8.15817 10.4681 6.01665 10.9784C4.0281 11.4377 2.218 12.4583 0.637357 13.7341C1.45317 12.6879 2.29449 11.6673 3.23777 10.7232C3.62019 10.366 4.0281 10.0088 4.4615 9.7026C4.58897 9.62605 4.74194 9.5495 4.79292 9.39641C5.73621 6.7938 7.46982 4.42084 9.71332 2.7368ZM16.1379 1.02725C14.1238 1.2824 12.1353 2.02236 10.5546 3.29815C9.17794 4.39532 8.13268 5.87524 7.49532 7.48273C8.08169 6.61519 8.69355 5.74766 9.43289 5.0077C10.8351 3.52779 12.5942 2.43061 14.5572 1.89478C17.0812 1.18034 19.7326 1.35895 22.3075 1.71617C20.3699 1.02725 18.2284 0.797605 16.1379 1.02725ZM13.3845 4.36981C11.6509 5.21183 10.1467 6.53865 9.10146 8.14614C11.2175 7.99304 13.3335 8.22268 15.3985 8.75852C17.7695 9.37089 20.013 10.3405 22.3585 11.0039C24.2706 11.5652 26.2846 11.8204 28.2477 11.5397C27.6613 9.0647 26.1571 6.81932 24.0921 5.31389C22.6134 4.24223 20.8543 3.57882 19.0442 3.37469C17.1067 3.17057 15.1181 3.52779 13.3845 4.36981ZM4.41051 10.2639C4.9204 10.0343 5.43028 9.80466 5.96566 9.62605C7.52081 9.11573 9.20344 9.03919 10.8351 9.2178C13.0786 9.49847 15.2456 10.2129 17.3871 10.9018C19.6051 11.5908 21.8486 12.2797 24.1941 12.4838C21.5427 11.948 18.9677 11.0549 16.4183 10.1874C14.2003 9.44744 11.9313 8.68197 9.56036 8.70748C7.72477 8.68197 5.94017 9.26883 4.41051 10.2639ZM75.9475 7.30412C76.1004 7.30412 76.2789 7.30412 76.4319 7.30412C76.2534 8.27372 76.0494 9.24331 75.871 10.2129C76.5083 10.2129 77.1457 10.2129 77.7831 10.2129C77.7321 10.4426 77.6811 10.6977 77.6556 10.9274C77.0182 10.9274 76.3809 10.9274 75.7435 10.9274C75.3611 12.9176 74.9787 14.9078 74.5963 16.898C74.5453 17.1532 74.5963 17.4594 74.8002 17.638C75.0297 17.8421 75.3356 17.8676 75.616 17.7911C75.8965 17.7145 76.1259 17.5359 76.3554 17.3573C76.4828 17.4594 76.6103 17.5359 76.7123 17.638C76.4574 17.9442 76.1769 18.2249 75.8455 18.429C75.2591 18.8117 74.5198 18.9648 73.8314 18.8627C73.449 18.8117 73.0921 18.5566 72.9391 18.1993C72.7352 17.7145 72.8372 17.1787 72.9391 16.6939C73.3215 14.7802 73.6785 12.841 74.0609 10.9274C73.5765 10.9274 73.0666 10.9274 72.5822 10.9274C72.6077 10.7998 72.6332 10.6467 72.6587 10.5191C73.2961 10.5191 73.9079 10.3405 74.3923 9.93224C75.1826 9.26883 75.5651 8.2482 75.9475 7.30412ZM63.3023 7.38067C63.7357 7.22757 64.3731 7.4317 64.4495 7.94201C64.526 8.75852 63.4043 9.34538 62.7669 8.86058C62.5375 8.70748 62.4355 8.37578 62.512 8.12062C62.6394 7.7634 62.9454 7.50824 63.3023 7.38067ZM39.7201 10.315C40.5614 10.0598 41.4282 9.98327 42.295 10.0853C42.8559 10.1619 43.4423 10.315 43.8247 10.7743C44.1816 11.208 44.1816 11.7949 44.0796 12.3052C43.6717 14.4485 43.2383 16.5918 42.8304 18.7352C42.2695 18.7352 41.7086 18.7352 41.1223 18.7352C41.1988 18.3524 41.2752 17.9697 41.3517 17.5614C40.8418 17.8932 40.3574 18.2759 39.7966 18.531C39.1592 18.8372 38.4454 18.9648 37.757 18.8627C37.2471 18.7862 36.7373 18.48 36.5333 17.9952C36.2784 17.4339 36.3548 16.796 36.5843 16.2601C36.8902 15.5202 37.5531 14.9588 38.2414 14.5761C39.4651 13.8872 40.8418 13.5555 42.193 13.2238C42.3205 12.5859 42.499 11.948 42.295 11.3101C42.193 10.9529 41.8616 10.7232 41.5302 10.6722C40.9183 10.5446 40.179 10.6467 39.7711 11.157C39.3632 11.6163 39.4906 12.3562 39.0572 12.79C38.7258 13.1472 38.0375 13.1727 37.7825 12.739C37.5531 12.3307 37.706 11.8204 37.961 11.4632C38.3944 10.8763 39.0572 10.5446 39.7201 10.315ZM39.4397 14.9333C39.0317 15.1885 38.6238 15.5202 38.3689 15.9284C38.063 16.4643 38.1394 17.2297 38.6238 17.638C38.8788 17.8676 39.2612 17.9187 39.5926 17.8676C40.3065 17.7656 40.9183 17.3318 41.5047 16.9491C41.7086 15.9029 41.9126 14.8313 42.1166 13.7851C41.1733 14.0658 40.2555 14.423 39.4397 14.9333ZM46.8075 11.106C47.5468 10.3405 48.6431 10.0088 49.6629 10.0598C50.1982 10.0853 50.7336 10.1874 51.167 10.5191C51.5749 10.7998 51.8554 11.2335 52.0848 11.6418C51.8554 11.8204 51.6004 12.0245 51.3455 12.2031C51.1415 11.6928 50.8101 11.208 50.3512 10.9274C49.8158 10.5956 49.1275 10.5701 48.5411 10.7487C48.1587 10.8763 47.7763 11.106 47.5723 11.4887C47.3684 11.8459 47.3939 12.3052 47.6743 12.6114C48.1332 13.1727 48.8725 13.4024 49.5099 13.7341C50.1982 14.0658 50.9631 14.423 51.371 15.1119C51.7024 15.6478 51.6259 16.2857 51.422 16.847C51.167 17.5614 50.5807 18.1738 49.8923 18.5055C49.1275 18.8883 48.2607 18.9903 47.4194 18.9393C46.9605 18.9138 46.5271 18.8117 46.1192 18.5821C45.6093 18.3014 45.2269 17.8676 44.9464 17.3828C45.2269 17.1787 45.4818 16.9746 45.7622 16.7449C46.0427 17.2808 46.3741 17.8421 46.935 18.1483C47.7763 18.5821 48.949 18.3524 49.5354 17.5614C49.7903 17.2297 49.8668 16.7449 49.6629 16.3622C49.4844 16.0305 49.153 15.7753 48.847 15.5967C48.1587 15.214 47.3939 14.9078 46.7565 14.372C46.3741 14.0403 46.0682 13.5555 46.0427 13.0452C45.9917 12.3052 46.2976 11.5908 46.8075 11.106ZM55.552 10.366C56.3424 10.0343 57.2602 9.95776 58.127 10.1619C58.8918 10.3405 59.4272 10.9784 59.7841 11.6418C59.5546 11.8204 59.2997 12.0245 59.0448 12.2031C58.8408 11.7183 58.5349 11.2335 58.076 10.9274C57.5661 10.5956 56.9032 10.5446 56.3169 10.7232C55.909 10.8253 55.5265 11.0549 55.2971 11.4122C55.0676 11.7694 55.0676 12.2797 55.3481 12.5859C55.7815 13.1217 56.4443 13.3513 57.0562 13.6575C57.6681 13.9637 58.3309 14.2444 58.7898 14.7547C59.0957 15.1119 59.2997 15.5712 59.2742 16.0305C59.2232 16.9746 58.6623 17.8421 57.872 18.3269C56.9542 18.8883 55.807 19.0158 54.7617 18.8627C53.8694 18.7352 53.0791 18.1228 52.6712 17.3318C52.9516 17.1277 53.2066 16.9236 53.487 16.6939C53.7674 17.2297 54.0989 17.7911 54.6342 18.0973C55.501 18.5566 56.7248 18.3014 57.2856 17.4594C57.5151 17.1022 57.5661 16.5663 57.2856 16.2091C56.9032 15.6478 56.2149 15.3926 55.6285 15.0864C55.0167 14.7547 54.3028 14.3975 53.9459 13.7596C53.64 13.2238 53.691 12.5604 53.8949 11.999C54.1753 11.2591 54.8127 10.6722 55.552 10.366ZM63.2513 10.1108C63.4553 10.0343 63.6847 10.0598 63.9142 10.0598C63.3533 12.9686 62.7924 15.8519 62.2315 18.7607C61.6707 18.7607 61.1098 18.7607 60.5489 18.7607C61.0843 16.0305 61.6197 13.2748 62.1296 10.5446C62.512 10.3915 62.8689 10.2384 63.2513 10.1108ZM65.8517 11.2335C66.5146 10.4681 67.5344 10.0853 68.5286 10.0598C69.064 10.0598 69.6504 10.0853 70.1348 10.366C70.6447 10.6467 71.0016 11.1315 71.282 11.6418C71.0271 11.8204 70.7976 12.0245 70.5427 12.2031C70.3387 11.7183 70.0328 11.2591 69.5994 10.9529C69.0895 10.6212 68.4521 10.5701 67.8658 10.6977C67.4579 10.7998 67.0755 11.0039 66.846 11.3356C66.6166 11.6673 66.5656 12.1266 66.7695 12.4838C66.999 12.841 67.3559 13.0707 67.7128 13.2493C68.4012 13.6065 69.115 13.8872 69.7778 14.2954C70.2622 14.6016 70.6701 15.1119 70.7466 15.6988C70.7976 16.2601 70.6192 16.847 70.3387 17.3063C69.9818 17.9187 69.3954 18.3524 68.7581 18.6076C67.9678 18.9138 67.0755 18.9903 66.2341 18.8627C65.3418 18.7352 64.5515 18.1228 64.1181 17.3318C64.3986 17.1277 64.6535 16.9236 64.9339 16.6939C65.2144 17.2297 65.5458 17.7656 66.0812 18.0718C66.9225 18.531 68.0952 18.3014 68.6816 17.5104C68.9365 17.1787 69.013 16.6684 68.8091 16.2857C68.5796 15.8774 68.1972 15.6222 67.7893 15.4181C67.2029 15.1119 66.6166 14.8313 66.0812 14.474C65.6223 14.1423 65.2654 13.6831 65.1889 13.1217C65.1379 12.4583 65.3928 11.7439 65.8517 11.2335ZM5.99116 14.2444C7.29136 13.8106 8.66806 13.7086 10.0193 13.7851C12.0843 13.9382 14.0728 14.4996 16.0359 15.1119C18.2794 15.8264 20.4974 16.5918 22.7919 17.1022C25.0609 17.587 27.4573 17.7656 29.7263 17.2297C31.7404 16.7705 33.576 15.7498 35.1821 14.4485C34.5702 15.1885 33.9839 15.954 33.3465 16.6684C32.6837 17.4084 31.9443 18.1228 31.0775 18.6331C30.0323 21.746 27.8907 24.4507 25.1119 26.1602C23.2253 27.3085 21.0838 27.9974 18.8913 28.1505H17.0047C16.0104 28.0739 15.0161 27.8953 14.0473 27.6146C11.345 26.8237 8.923 25.1651 7.16389 22.9453C5.83819 21.2867 4.8949 19.2965 4.41051 17.2042C2.82986 17.7145 1.22373 18.3269 0 19.4751C0.0254943 19.3475 0.0509886 19.22 0.127471 19.1179C0.688346 18.3014 1.27471 17.5359 1.96306 16.8215C3.08481 15.6988 4.436 14.7547 5.99116 14.2444ZM3.51821 15.9284C3.77315 15.8009 4.0281 15.6733 4.30853 15.5712C6.01665 14.8568 7.90323 14.6526 9.71332 14.8568C12.2373 15.1374 14.6592 15.9795 17.0812 16.7449C19.1207 17.3828 21.1603 17.9442 23.3018 18.1483C20.6759 17.6125 18.1519 16.7449 15.628 15.8774C13.41 15.1374 11.1155 14.372 8.74454 14.372C6.88346 14.3465 5.07336 14.9333 3.51821 15.9284ZM7.5973 16.6684C7.92872 18.0462 8.54058 19.3475 9.3564 20.4958C10.5546 22.1543 12.2118 23.4301 14.0983 24.17C16.7242 25.2162 19.7836 25.1141 22.333 23.8893C24.1176 23.0473 25.6472 21.7205 26.718 20.0875C25.2138 20.1896 23.7097 20.113 22.231 19.8579C20.5229 19.5772 18.8913 19.0414 17.2596 18.48C15.424 17.8421 13.6139 17.1532 11.6764 16.796C10.3762 16.5408 8.97399 16.4898 7.5973 16.6684ZM25.9787 22.6391C24.6275 23.9659 22.9194 24.9355 21.0838 25.4203C18.5853 26.0837 15.9849 25.9051 13.461 25.5479C15.3985 26.2623 17.4891 26.492 19.5541 26.2623C21.5427 26.0327 23.5312 25.3182 25.1119 24.068C26.5395 22.9708 27.6103 21.4398 28.2987 19.7813C27.6103 20.8019 26.871 21.7971 25.9787 22.6391ZM43.3148 20.3682C43.3403 20.3682 43.3913 20.3682 43.4423 20.3682C43.4677 20.3937 43.5187 20.4702 43.5442 20.5213C43.6207 20.4702 43.7227 20.4192 43.7992 20.3682C43.8757 20.4702 43.6972 20.6233 43.5952 20.6233C43.4423 20.6488 43.3658 20.4958 43.3148 20.3682ZM75.718 20.3682C75.7435 20.3682 75.7945 20.3682 75.8455 20.3682C75.871 20.3937 75.922 20.4702 75.973 20.4958C76.0749 20.4447 76.1514 20.3937 76.2534 20.3427C76.3044 20.5468 75.9985 20.6999 75.8455 20.5723C75.769 20.5213 75.7435 20.4447 75.718 20.3682ZM39.0827 20.7254C39.3122 20.6488 39.6181 20.7254 39.7201 20.9806C39.8985 21.3888 39.6181 21.9246 39.1847 21.9757C38.9553 22.0267 38.7003 21.8991 38.6238 21.6695C38.4964 21.3123 38.7003 20.8275 39.0827 20.7254ZM39.1337 20.9295C38.8533 21.0571 38.7003 21.5674 39.0062 21.746C39.3377 21.8481 39.5671 21.4398 39.5161 21.1592C39.5161 20.9806 39.2867 20.8785 39.1337 20.9295ZM49.3314 21.0571C49.4844 20.6999 49.9943 20.5723 50.2747 20.8785C50.5807 21.2867 50.2747 22.0012 49.7393 22.0012C49.4844 22.0267 49.3059 21.8481 49.2549 21.644C49.3314 21.6184 49.4079 21.5929 49.4844 21.5674C49.5354 21.6695 49.5864 21.8226 49.7393 21.7971C49.9178 21.7971 50.0198 21.6184 50.0963 21.4909C49.9688 21.4909 49.8413 21.4909 49.6884 21.4909C49.6884 21.4143 49.7138 21.3633 49.7138 21.2867C49.8413 21.2867 49.9688 21.2867 50.1218 21.2867C50.0708 21.1592 50.0453 21.0061 49.8923 20.9806C49.7393 20.9295 49.6374 21.0571 49.5609 21.1592C49.4844 21.1081 49.4079 21.0826 49.3314 21.0571ZM57.6426 20.7254C57.872 20.6744 58.127 20.7254 58.2544 20.955C58.4329 21.3378 58.2034 21.8991 57.7445 21.9757C57.5151 22.0267 57.2347 21.9246 57.1582 21.695C57.0307 21.3123 57.2347 20.8019 57.6426 20.7254ZM57.6426 20.955C57.4386 21.0571 57.3621 21.3123 57.3621 21.5164C57.3621 21.695 57.5661 21.8226 57.7191 21.746C57.9485 21.6695 58.0505 21.3888 58.025 21.1592C58.025 20.955 57.821 20.853 57.6426 20.955ZM35.7685 21.9502C35.845 21.5419 35.9469 21.1336 36.0234 20.7254C36.3548 20.7254 36.6863 20.7254 36.9922 20.7254C36.9157 21.1336 36.8137 21.5419 36.7373 21.9502C36.6608 21.9502 36.5588 21.9502 36.4823 21.9502C36.5588 21.6184 36.6353 21.2612 36.6863 20.9295C36.5333 20.9295 36.3803 20.9295 36.2274 20.9295C36.1509 21.2612 36.0744 21.6184 36.0234 21.9502C35.9724 21.9502 35.845 21.9502 35.7685 21.9502ZM37.1707 21.9502C37.2471 21.5419 37.3491 21.1336 37.4256 20.7254C37.6551 20.7254 37.91 20.6999 38.1394 20.7509C38.3689 20.8785 38.3179 21.2102 38.1394 21.3633C37.961 21.4909 37.7315 21.4654 37.5021 21.4654C37.4766 21.6184 37.4256 21.7715 37.4001 21.9246C37.3746 21.9502 37.2471 21.9502 37.1707 21.9502ZM37.6551 20.9295C37.6296 21.0571 37.6041 21.1592 37.5786 21.2867C37.7825 21.2867 38.1139 21.2867 38.063 21.0061C37.9355 20.904 37.7825 20.955 37.6551 20.9295ZM40.2555 20.7254C40.5104 20.7509 40.7908 20.6744 41.0203 20.7764C41.2243 20.904 41.1733 21.2102 40.9693 21.3123C41.2243 21.4654 41.1478 21.8481 40.8673 21.9246C40.5869 22.0012 40.281 21.9502 40.0005 21.9757C40.1025 21.5419 40.179 21.1336 40.2555 20.7254ZM40.4849 20.9295C40.4594 21.0316 40.4339 21.1336 40.4339 21.2357C40.5614 21.2357 40.6889 21.2357 40.8163 21.2102C40.9183 21.1847 40.9693 20.9806 40.8418 20.955C40.7144 20.9295 40.5869 20.9295 40.4849 20.9295ZM40.3829 21.4398C40.3574 21.5419 40.332 21.644 40.3065 21.746C40.4849 21.7205 40.8673 21.8226 40.8673 21.5164C40.7654 21.3633 40.5359 21.4654 40.3829 21.4398ZM41.9636 20.7254C42.0656 20.7254 42.1675 20.7254 42.244 20.7254C42.3205 21.1336 42.3715 21.5419 42.448 21.9502C42.397 21.9502 42.2695 21.9502 42.2185 21.9502C42.193 21.8481 42.193 21.7715 42.1675 21.6695C42.0146 21.6695 41.8616 21.6695 41.6831 21.6695C41.6322 21.7715 41.5812 21.8481 41.5302 21.9502C41.4537 21.9502 41.3517 21.9502 41.2752 21.9502C41.5047 21.5419 41.7341 21.1336 41.9636 20.7254ZM42.0656 21.0061C41.9891 21.1592 41.8871 21.3378 41.8106 21.4909C41.9126 21.4909 42.0401 21.4909 42.142 21.4909C42.1166 21.3123 42.0911 21.1592 42.0656 21.0061ZM43.0343 20.7254C43.0853 20.7254 43.2128 20.7254 43.2638 20.7254C43.2128 20.9806 43.1618 21.2357 43.1108 21.4654C43.3403 21.2102 43.5442 20.955 43.7737 20.7254C43.8502 20.7254 43.9266 20.7254 44.0031 20.7254C43.9266 21.1336 43.8247 21.5419 43.7482 21.9502C43.6717 21.9502 43.5952 21.9502 43.5187 21.9502C43.5697 21.695 43.6207 21.4398 43.6717 21.1847C43.4423 21.4398 43.2383 21.695 43.0089 21.9502C42.9579 21.9502 42.8304 21.9502 42.7794 21.9502C42.8559 21.5419 42.9579 21.1336 43.0343 20.7254ZM44.564 20.7254C44.8444 20.7254 45.1249 20.7254 45.4308 20.7254C45.3543 21.0571 45.3033 21.3888 45.2269 21.7205C45.2523 21.7205 45.3033 21.746 45.3288 21.746C45.2778 21.9246 45.2523 22.1032 45.2014 22.2819C45.1504 22.2819 45.0484 22.2819 44.9974 22.2819C45.0229 22.1798 45.0484 22.0522 45.0739 21.9502C44.8189 21.9502 44.5385 21.9502 44.2836 21.9502C44.2581 22.0522 44.2326 22.1798 44.2071 22.2819C44.1561 22.2819 44.0541 22.2819 44.0031 22.2819C44.0286 22.1032 44.0796 21.9246 44.1051 21.746C44.1306 21.746 44.2071 21.7205 44.2326 21.7205C44.3855 21.4143 44.4875 21.0826 44.564 20.7254ZM44.768 20.9295C44.6915 21.2102 44.615 21.4909 44.4875 21.746C44.6405 21.746 44.7935 21.746 44.9464 21.746C44.9974 21.4654 45.0484 21.2102 45.1249 20.9295C44.9974 20.9295 44.8699 20.9295 44.768 20.9295ZM45.8642 20.7254C46.1701 20.7254 46.4761 20.7254 46.782 20.7254C46.7565 20.8019 46.7565 20.853 46.731 20.9295C46.5016 20.9295 46.2976 20.9295 46.0682 20.9295C46.0427 21.0316 46.0172 21.1081 46.0172 21.2102C46.2211 21.2102 46.4506 21.2102 46.6545 21.2102C46.6545 21.2612 46.629 21.3633 46.6035 21.4143C46.3996 21.4143 46.1701 21.4143 45.9662 21.4143C45.9407 21.5164 45.9152 21.644 45.8897 21.746C46.1192 21.746 46.3741 21.746 46.6035 21.746C46.5781 21.8226 46.578 21.8736 46.5526 21.9502C46.2211 21.9502 45.9152 21.9502 45.5838 21.9502C45.6858 21.5419 45.7877 21.1336 45.8642 20.7254ZM47.1899 20.7254C47.4194 20.7254 47.6743 20.6999 47.9038 20.7509C48.1332 20.853 48.1077 21.2102 47.9547 21.3633C47.7763 21.5164 47.5213 21.4654 47.3174 21.4909C47.2919 21.644 47.2409 21.7971 47.2154 21.9502C47.1389 21.9502 47.0369 21.9502 46.9605 21.9502C47.0115 21.5419 47.0879 21.1336 47.1899 20.7254ZM47.3939 20.9295C47.3684 21.0571 47.3429 21.1592 47.3174 21.2867C47.4194 21.2867 47.5468 21.2867 47.6488 21.2612C47.7763 21.2357 47.8528 21.0571 47.7508 20.955C47.6488 20.9295 47.5213 20.9295 47.3939 20.9295ZM50.9121 20.7254C51.1925 20.7254 51.473 20.7254 51.7534 20.7254C51.6769 21.1336 51.5749 21.5419 51.4984 21.9502C51.422 21.9502 51.32 21.9502 51.2435 21.9502C51.32 21.6184 51.3965 21.2612 51.4475 20.9295C51.3455 20.9295 51.218 20.9295 51.116 20.9295C51.0396 21.2357 51.0141 21.5419 50.8866 21.8481C50.8101 22.0012 50.6061 21.9757 50.4532 21.9757C50.4532 21.8991 50.4787 21.8226 50.4787 21.7715C50.5297 21.7715 50.6061 21.746 50.6571 21.746C50.7846 21.4143 50.8356 21.0571 50.9121 20.7254ZM51.9064 21.9502C51.9828 21.5419 52.0848 21.1336 52.1613 20.7254C52.4672 20.7254 52.7732 20.7254 53.0791 20.7254C53.0536 20.8019 53.0536 20.853 53.0281 20.9295C52.7987 20.9295 52.5947 20.9295 52.3652 20.9295C52.3398 21.0316 52.3143 21.1081 52.3143 21.2102C52.5182 21.2102 52.7477 21.2102 52.9516 21.2102C52.9516 21.2612 52.9261 21.3633 52.9006 21.4143C52.6967 21.4143 52.4672 21.4143 52.2633 21.4143C52.2378 21.5164 52.2123 21.644 52.1868 21.746C52.4162 21.746 52.6712 21.746 52.9006 21.746C52.8751 21.8226 52.8751 21.8736 52.8496 21.9502C52.5692 21.9502 52.2378 21.9502 51.9064 21.9502ZM53.487 20.7254C53.5635 20.7254 53.6655 20.7254 53.7419 20.7254C53.691 20.904 53.6655 21.0826 53.64 21.2867C53.8184 21.1847 53.8949 20.9806 54.0224 20.8275C54.0989 20.7254 54.2518 20.7509 54.3538 20.7254C54.3283 20.7764 54.3028 20.853 54.3028 20.904C54.0989 20.9806 54.0479 21.2102 53.8949 21.3378C54.0224 21.5164 54.0734 21.746 54.1244 21.9757C54.0479 21.9757 53.9204 21.9757 53.8694 21.9757C53.7929 21.7715 53.8184 21.5164 53.6145 21.4143C53.5635 21.5929 53.538 21.7971 53.487 21.9757C53.4105 21.9757 53.3085 21.9757 53.2321 21.9757C53.334 21.5419 53.4105 21.1336 53.487 20.7254ZM54.6597 20.7254C54.9912 20.7254 55.2971 20.7254 55.6285 20.7254C55.603 20.8019 55.603 20.853 55.5775 20.9295C55.4501 20.9295 55.3481 20.9295 55.2206 20.9295C55.1441 21.2612 55.0676 21.6184 55.0167 21.9502C54.9402 21.9502 54.8382 21.9502 54.7617 21.9502C54.8382 21.6184 54.9147 21.2612 54.9657 20.9295C54.8382 20.9295 54.7362 20.9295 54.6087 20.9295C54.6342 20.8785 54.6597 20.7764 54.6597 20.7254ZM55.9854 20.7254C56.2149 20.7254 56.4443 20.6999 56.6993 20.7509C56.9287 20.853 56.9032 21.1592 56.7758 21.3378C56.6228 21.5419 56.3169 21.4654 56.1129 21.4909C56.0874 21.644 56.0364 21.7971 56.0109 21.9502C55.9345 21.9502 55.8325 21.9502 55.756 21.9502C55.807 21.5419 55.8835 21.1336 55.9854 20.7254ZM56.1129 21.2867C56.2914 21.2867 56.5973 21.3123 56.5973 21.0316C56.5208 20.8785 56.3169 20.955 56.1894 20.9295C56.1639 21.0571 56.1384 21.1592 56.1129 21.2867ZM58.8153 20.7254C58.8918 20.7254 58.9938 20.7254 59.0702 20.7254C59.0448 20.8785 58.9938 21.0316 58.9683 21.1847C59.1212 21.1847 59.2742 21.1847 59.4272 21.1847C59.4527 21.0316 59.5036 20.8785 59.5291 20.6999C59.5801 20.6999 59.7076 20.6999 59.7841 20.6999C59.7076 21.1081 59.6056 21.5164 59.5291 21.9246C59.4782 21.9246 59.3252 21.9246 59.2742 21.9246C59.2997 21.746 59.3507 21.5674 59.4017 21.3633C59.2487 21.3633 59.0957 21.3633 58.9428 21.3633C58.8918 21.5419 58.8663 21.7205 58.8153 21.9246C58.7388 21.9246 58.6368 21.9246 58.5604 21.9246C58.6368 21.5419 58.7133 21.1336 58.8153 20.7254ZM60.2175 20.7254C60.294 20.7254 60.396 20.7254 60.4724 20.7254C60.4469 20.8785 60.396 21.0316 60.3705 21.1847C60.5234 21.1847 60.6764 21.1847 60.8293 21.1847C60.8548 21.0316 60.9058 20.8785 60.9313 20.6999C60.9823 20.6999 61.1098 20.6999 61.1863 20.6999C61.1098 21.1081 61.0078 21.5164 60.9313 21.9246C60.8803 21.9246 60.7274 21.9246 60.6764 21.9246C60.7019 21.746 60.7529 21.5674 60.8039 21.3633C60.6509 21.3633 60.4979 21.3633 60.345 21.3633C60.294 21.5419 60.2685 21.7205 60.2175 21.9246C60.141 21.9246 60.039 21.9246 59.9625 21.9246C60.039 21.5419 60.141 21.1336 60.2175 20.7254ZM61.6452 20.7254C61.7217 20.7254 61.8236 20.7254 61.9001 20.7254C61.8746 20.8785 61.8491 21.0316 61.7981 21.1847C61.9766 21.1847 62.1805 21.1592 62.359 21.2612C62.5885 21.4398 62.4865 21.8481 62.2315 21.9246C61.9511 22.0012 61.6707 21.9502 61.3902 21.9502C61.4667 21.5419 61.5432 21.1336 61.6452 20.7254ZM61.7471 21.3888C61.7217 21.5164 61.6962 21.6184 61.6707 21.746C61.8491 21.7205 62.1805 21.8226 62.206 21.5674C62.206 21.3378 61.9001 21.4143 61.7471 21.3888ZM62.8179 20.7254C62.8944 20.7254 62.9964 20.7254 63.0729 20.7254C62.9964 21.1336 62.8944 21.5419 62.8179 21.9502C62.7414 21.9502 62.6395 21.9502 62.563 21.9502C62.6649 21.5419 62.7414 21.1336 62.8179 20.7254ZM63.3788 20.7254C63.4553 20.7254 63.5572 20.7254 63.6337 20.7254C63.7102 20.853 63.7867 21.0061 63.8377 21.1336C63.9652 21.0061 64.0671 20.853 64.1946 20.7254C64.2966 20.7254 64.3986 20.7254 64.526 20.7254C64.3476 20.9295 64.1436 21.1592 63.9652 21.3633C64.0671 21.5674 64.1691 21.746 64.2711 21.9502C64.1691 21.9502 64.0671 21.9502 63.9906 21.9502C63.9142 21.8226 63.8632 21.695 63.8122 21.5674C63.7102 21.695 63.5827 21.8226 63.4808 21.9502C63.3788 21.9502 63.2513 21.9502 63.1493 21.9502C63.3278 21.746 63.5063 21.5419 63.6847 21.3378C63.5827 21.1336 63.4808 20.9295 63.3788 20.7254ZM65.5458 21.9502C65.6223 21.5419 65.7243 21.1336 65.8007 20.7254C66.1322 20.7254 66.4636 20.7254 66.7695 20.7254C66.693 21.1336 66.5911 21.5419 66.5146 21.9502C66.4381 21.9502 66.3361 21.9502 66.2596 21.9502C66.3361 21.6184 66.4126 21.2612 66.4636 20.9295C66.3106 20.9295 66.1577 20.9295 66.0047 20.9295C65.9282 21.2612 65.8517 21.6184 65.8007 21.9502C65.6988 21.9502 65.6223 21.9502 65.5458 21.9502ZM67.2794 20.7254C67.5599 20.7254 67.8403 20.7254 68.1207 20.7254C68.0442 21.1336 67.9423 21.5419 67.8658 21.9502C67.7893 21.9502 67.6873 21.9502 67.6108 21.9502C67.6873 21.6184 67.7638 21.2612 67.8148 20.9295C67.7128 20.9295 67.5853 20.9295 67.4834 20.9295C67.4069 21.2357 67.3814 21.5419 67.2539 21.8481C67.1774 22.0012 66.9735 21.9757 66.846 21.9757C66.846 21.8991 66.8715 21.8481 66.8715 21.7715C66.9225 21.7715 66.999 21.746 67.05 21.746C67.1519 21.4143 67.2029 21.0571 67.2794 20.7254ZM68.911 20.7254C69.013 20.7254 69.115 20.7254 69.1915 20.7254C69.268 21.1336 69.319 21.5419 69.3954 21.9502C69.3444 21.9502 69.217 21.9502 69.166 21.9502C69.1405 21.8481 69.1405 21.7715 69.115 21.6695C68.962 21.6695 68.7836 21.6695 68.6306 21.6695C68.5796 21.7715 68.5286 21.8481 68.4776 21.9502C68.4012 21.9502 68.2992 21.9502 68.2227 21.9502C68.4521 21.5419 68.6816 21.1336 68.911 20.7254ZM68.7326 21.4654C68.8346 21.4654 68.962 21.4654 69.064 21.4654C69.0385 21.3123 69.013 21.1336 68.9875 20.9806C68.911 21.1592 68.8346 21.3123 68.7326 21.4654ZM69.7269 20.7254C70.0583 20.7254 70.3642 20.7254 70.6956 20.7254C70.6956 20.7764 70.6702 20.8785 70.6447 20.9295C70.5172 20.9295 70.4152 20.9295 70.2877 20.9295C70.2113 21.2612 70.1348 21.6184 70.0838 21.9502C70.0328 21.9502 69.8798 21.9502 69.8288 21.9502C69.9053 21.6184 69.9818 21.2612 70.0328 20.9295C69.9053 20.9295 69.8033 20.9295 69.6759 20.9295C69.7014 20.8785 69.7014 20.7764 69.7269 20.7254ZM70.7721 21.9502C70.8486 21.5419 70.9506 21.1336 71.0271 20.7254C71.333 20.7254 71.6389 20.7254 71.9449 20.7254C71.9194 20.8019 71.9194 20.853 71.8939 20.9295C71.6644 20.9295 71.4605 20.9295 71.231 20.9295C71.2055 21.0316 71.18 21.1081 71.18 21.2102C71.384 21.2102 71.6134 21.2102 71.8174 21.2102C71.8174 21.2612 71.7919 21.3633 71.7664 21.4143C71.5624 21.4143 71.333 21.4143 71.129 21.4143C71.1035 21.5164 71.0781 21.644 71.0526 21.746C71.282 21.746 71.5369 21.746 71.7664 21.746C71.7409 21.8226 71.7409 21.8736 71.7154 21.9502C71.4095 21.9502 71.1035 21.9502 70.7721 21.9502ZM72.2253 20.904C72.2253 20.7254 72.4293 20.6744 72.5312 20.8019C72.6077 20.955 72.6332 21.1592 72.7607 21.3123C72.8117 21.1336 72.8627 20.9295 72.8882 20.7509C72.9646 20.7509 73.0666 20.7509 73.1431 20.7509C73.0921 20.9295 73.0666 21.1081 73.0411 21.3123C73.1686 21.1847 73.2706 21.0061 73.3725 20.853C73.449 20.7254 73.6275 20.7509 73.755 20.7254C73.755 20.7764 73.7295 20.853 73.7295 20.904C73.5 20.9295 73.449 21.2102 73.2961 21.3378C73.4235 21.5164 73.4745 21.746 73.5255 21.9757C73.449 21.9757 73.3471 21.9757 73.2706 21.9757C73.2196 21.7715 73.1686 21.5674 73.0666 21.4143C72.9901 21.5929 72.9646 21.7971 72.9136 21.9757C72.8372 21.9757 72.7352 21.9757 72.6587 21.9757C72.7097 21.7971 72.7352 21.5929 72.7607 21.4143C72.5822 21.5674 72.4548 21.7715 72.3273 21.9757C72.2253 21.9757 72.1233 21.9757 72.0213 21.9757C72.1743 21.746 72.3018 21.5164 72.5312 21.3378C72.4802 21.2102 72.4547 21.0826 72.4038 20.955C72.3528 20.9295 72.2763 20.904 72.2253 20.904ZM74.1119 20.7254C74.4178 20.7254 74.7237 20.7254 75.0297 20.7254C75.0297 20.7764 75.0042 20.8785 74.9787 20.9295C74.7492 20.9295 74.5453 20.9295 74.3158 20.9295C74.2903 21.0316 74.2648 21.1081 74.2648 21.2102C74.4688 21.2102 74.6982 21.2102 74.9022 21.2102C74.9022 21.2612 74.8767 21.3633 74.8512 21.4143C74.6473 21.4143 74.4178 21.4143 74.2139 21.4143C74.1884 21.5164 74.1629 21.644 74.1374 21.746C74.3668 21.746 74.6218 21.746 74.8512 21.746C74.8512 21.7971 74.8257 21.8991 74.8002 21.9502C74.4688 21.9502 74.1629 21.9502 73.8314 21.9502C73.9334 21.5419 74.0354 21.1336 74.1119 20.7254ZM75.4376 20.7254C75.5141 20.7254 75.5905 20.7254 75.667 20.7254C75.616 20.9806 75.565 21.2357 75.5141 21.4654C75.7435 21.2102 75.9475 20.955 76.1769 20.7254C76.2279 20.7254 76.3554 20.7254 76.4064 20.7254C76.3299 21.1336 76.2279 21.5419 76.1514 21.9502C76.0749 21.9502 75.9985 21.9502 75.922 21.9502C75.973 21.695 76.0239 21.4398 76.0749 21.1847C75.8455 21.4398 75.6415 21.695 75.4121 21.9502C75.3356 21.9502 75.2591 21.9502 75.1826 21.9502C75.2591 21.5419 75.3611 21.1336 75.4376 20.7254Z" fill="#404B67"/>
</g>
</svg>
