<svg width="61" height="25" viewBox="0 0 61 25" fill="none" xmlns="http://www.w3.org/2000/svg">
<path opacity="0.3" d="M11.1459 3.21126C10.431 4.05249 9.28703 4.71623 8.14317 4.62133C8.0002 3.48389 8.56016 2.27512 9.21555 1.52855C9.93039 0.663626 11.1816 0.0473934 12.1944 0C12.3136 1.18495 11.8489 2.34621 11.146 3.21126H11.1459ZM12.1825 4.84656C10.5262 4.75178 9.10832 5.78258 8.32188 5.78258C7.52363 5.78258 6.32008 4.89396 5.00941 4.91765C3.30558 4.94135 1.72077 5.90107 0.850926 7.42974C-0.936422 10.487 0.386277 15.0136 2.11394 17.502C2.95995 18.7344 3.97277 20.0852 5.30726 20.0378C6.57039 19.9904 7.07078 19.2203 8.59602 19.2203C10.1331 19.2203 10.574 20.0378 11.9085 20.0141C13.2906 19.9904 14.1605 18.7819 15.0065 17.5494C15.9715 16.1512 16.3648 14.7884 16.3887 14.7173C16.3648 14.6936 13.7197 13.6865 13.6958 10.6528C13.672 8.11706 15.781 6.90841 15.8763 6.83732C14.6847 5.08353 12.826 4.89396 12.1825 4.84656ZM21.7507 1.41007V19.8839H24.6341V13.568H28.6258C32.2719 13.568 34.8338 11.0796 34.8338 7.47725C34.8338 3.875 32.3195 1.41019 28.7211 1.41019H21.7506L21.7507 1.41007ZM24.6341 3.82749H27.9585C30.4608 3.82749 31.8906 5.15462 31.8906 7.48898C31.8906 9.82334 30.4608 11.1624 27.9466 11.1624H24.6341V3.82749ZM40.1004 20.0259C41.9115 20.0259 43.5915 19.1136 44.3542 17.6679H44.4137V19.8838H47.0828V10.6884C47.0828 8.02227 44.9381 6.30403 41.6374 6.30403C38.5751 6.30403 36.3112 8.04597 36.2278 10.4396H38.8255C39.0399 9.30201 40.1003 8.55545 41.554 8.55545C43.3175 8.55545 44.3065 9.3731 44.3065 10.8781V11.897L40.708 12.1103C37.3598 12.3117 35.5487 13.6745 35.5487 16.0445C35.5487 18.4382 37.4193 20.0259 40.1004 20.0259ZM40.8748 17.8338C39.3379 17.8338 38.3607 17.0992 38.3607 15.9733C38.3607 14.8122 39.302 14.1367 41.1013 14.0301L44.3065 13.8287V14.8713C44.3065 16.6014 42.8291 17.8338 40.8749 17.8338H40.8748ZM50.6455 24.9081C53.4576 24.9081 54.7802 23.8417 55.9359 20.6066L61 6.48175H58.0688L54.6729 17.3953H54.6134L51.2175 6.48175H48.2029L53.0881 19.9312L52.826 20.7488C52.3852 22.1352 51.6702 22.6685 50.3953 22.6685C50.1689 22.6685 49.7281 22.6448 49.5493 22.6211V24.837C49.7161 24.8844 50.4309 24.9081 50.6455 24.9081Z" fill="#404B67"/>
</svg>
