<svg width="529" height="328" viewBox="0 0 529 328" fill="none" xmlns="http://www.w3.org/2000/svg">
<path d="M392.397 104.59C405.519 99.8311 408.622 81.6989 397.916 71.2765C430.201 65.0659 434.82 21.4963 410.802 6.64789C402.74 4.02375 394.218 3.13668 385.792 4.04457C377.365 4.95246 369.224 7.63491 361.9 11.9169C354.575 16.1989 348.232 21.9841 343.283 28.8953C338.335 35.8064 334.892 43.688 333.18 52.0259C330.555 50.9505 327.748 50.393 324.914 50.384C321.871 50.3903 318.86 50.9984 316.052 52.1737C313.244 53.349 310.694 55.0685 308.547 57.2339C306.4 59.3993 304.699 61.9683 303.54 64.7942C302.382 67.6201 301.789 70.6475 301.795 73.7037C301.793 76.4212 302.291 79.1158 303.264 81.6514C290.071 83.6903 278.132 90.6581 269.833 101.161C261.535 111.663 257.49 124.926 258.508 138.296C259.526 151.666 265.531 164.157 275.322 173.27C285.114 182.383 297.97 187.446 311.317 187.446H333.062C413.336 181.188 415.207 114.894 392.397 104.59Z" fill="#D4EAFC"/>
<path d="M489.932 99.0799C491.846 92.9058 492.004 86.3144 490.388 80.0542C488.772 73.7941 485.447 68.116 480.789 63.6647C476.132 59.2135 470.329 56.1674 464.041 54.8725C457.752 53.5775 451.229 54.0856 445.212 56.3389C443.925 44.735 439.358 33.7477 432.055 24.6835C424.751 15.6192 415.018 8.85946 404.013 5.20801C428.133 20.1661 423.494 64.0577 391.072 70.3142C401.824 80.8137 398.708 99.0799 385.53 103.874C408.437 114.254 406.558 181.038 325.943 187.342H484.294C495.505 187.405 506.317 183.148 514.516 175.442C522.716 167.736 527.684 157.165 528.404 145.89C529.124 134.614 525.542 123.488 518.391 114.787C511.239 106.085 501.058 100.467 489.932 99.0799Z" fill="#A9DBF5"/>
<path d="M66.778 214.082C73.3154 211.711 74.8613 202.678 69.5275 197.486C85.6113 194.392 87.9124 172.686 75.9469 165.289C71.9306 163.982 67.6851 163.54 63.4873 163.992C59.2896 164.445 55.2339 165.781 51.5849 167.914C47.936 170.047 44.7757 172.93 42.3104 176.373C39.8451 179.816 38.1301 183.742 37.2773 187.896C35.9695 187.36 34.5713 187.082 33.159 187.078C31.6434 187.081 30.1433 187.384 28.7443 187.969C27.3453 188.555 26.0748 189.412 25.0054 190.49C23.9359 191.569 23.0884 192.849 22.5113 194.257C21.9342 195.665 21.6388 197.173 21.6419 198.695C21.6406 200.049 21.8887 201.391 22.3735 202.655C15.8012 203.67 9.85306 207.142 5.71899 212.374C1.58493 217.606 -0.430173 224.214 0.0768632 230.874C0.583899 237.535 3.57567 243.758 8.45363 248.298C13.3316 252.837 19.736 255.36 26.3856 255.36H37.2183C77.2095 252.242 78.1417 219.215 66.778 214.082Z" fill="#D4EAFC"/>
<path d="M115.368 211.338C116.322 208.262 116.401 204.978 115.596 201.859C114.79 198.741 113.134 195.912 110.814 193.694C108.493 191.477 105.603 189.959 102.47 189.314C99.3367 188.669 96.0869 188.922 93.0895 190.045C92.4484 184.264 90.1733 178.79 86.5348 174.275C82.8963 169.759 78.0474 166.391 72.5648 164.572C84.581 172.024 82.2702 193.89 66.1182 197.007C71.4746 202.238 69.9222 211.338 63.3571 213.726C74.7689 218.897 73.8328 252.168 33.6721 255.308H112.56C118.145 255.339 123.531 253.219 127.616 249.38C131.701 245.541 134.176 240.274 134.534 234.657C134.893 229.04 133.109 223.497 129.546 219.162C125.983 214.828 120.911 212.028 115.368 211.338Z" fill="#A9DBF5"/>
<path d="M292.092 261.458L259.278 257.113L226.519 261.458L224.267 274.276H294.344L292.092 261.458Z" fill="#525C71"/>
<path d="M294.344 274.547H224.267L217.511 312.787H301.1L294.344 274.547Z" fill="#525C71"/>
<path d="M337.076 324.721L333.108 318.661C328.551 315.55 301.742 313.834 301.742 313.834L301.099 312.225H217.51L217.189 314.102C217.189 314.102 190.38 315.818 185.608 318.929L181.641 324.989C179.979 326.062 181.641 327.885 184.268 327.885H334.395C337.022 327.617 338.684 325.794 337.076 324.721Z" fill="#6E778D"/>
<path d="M412.19 67H259.161V291.603H412.19C416.19 291.603 420.026 290.011 422.855 287.176C425.683 284.34 427.272 280.495 427.272 276.485V82.118C427.272 78.1085 425.683 74.2632 422.855 71.428C420.026 68.5929 416.19 67 412.19 67Z" fill="#6E778D"/>
<path d="M106.082 67C102.082 67 98.2458 68.5929 95.4174 71.428C92.589 74.2632 91 78.1085 91 82.118V276.485C91 280.495 92.589 284.34 95.4174 287.176C98.2458 290.011 102.082 291.603 106.082 291.603H259.161V67H106.082Z" fill="#6E778D"/>
<path d="M328.122 86.3457H105.613V88.1156V271.593H278.634H328.122H412.033V86.3457H328.122Z" fill="#D4EFFF"/>
<path d="M161.535 185.405H123.789V250.622H161.535V185.405Z" fill="#A6DAE8"/>
<path d="M206.734 151.241H168.988V250.622H206.734V151.241Z" fill="#F94E63"/>
<path d="M251.933 119.651H214.187V250.622H251.933V119.651Z" fill="#17C5CC"/>
<path d="M297.131 175.751H259.385V250.622H297.131V175.751Z" fill="#FFD740"/>
<path d="M344.958 146.146H307.212V250.622H344.958V146.146Z" fill="white"/>
<path d="M390.157 174.249H352.411V250.622H390.157V174.249Z" fill="#FF6F00"/>
<path d="M412.513 85.7549H105.29V271.518H412.513V85.7549Z" fill="#6D4C98"/>
<g style="mix-blend-mode:soft-light" opacity="0.3">
<path d="M105.35 86.6484V271.518H412.611L105.35 86.6484Z" fill="white"/>
</g>
<path opacity="0.3" d="M412.671 95.5401C408.409 95.8376 404.422 97.7361 401.527 100.847C398.632 103.958 397.047 108.047 397.096 112.277C397.085 115.643 398.085 118.936 399.969 121.738C395.95 122.315 392.278 124.315 389.636 127.368C386.994 130.422 385.561 134.32 385.603 138.341C385.598 141.591 386.532 144.775 388.295 147.517C387.407 147.357 386.506 147.271 385.603 147.263C381.173 147.334 376.951 149.14 373.862 152.285C370.773 155.43 369.068 159.658 369.12 164.045C369.127 165.309 369.274 166.57 369.559 167.802C366.636 165.373 362.941 164.042 359.125 164.045C355.019 164.081 351.072 165.619 348.043 168.364C345.014 171.108 343.117 174.865 342.718 178.911C341.193 177.01 339.255 175.473 337.048 174.416C334.841 173.358 332.422 172.807 329.97 172.803C327.002 172.804 324.092 173.618 321.562 175.153C321.676 174.374 321.737 173.589 321.744 172.803C321.796 168.41 320.085 164.176 316.985 161.032C313.886 157.888 309.653 156.091 305.215 156.036C302.898 156.039 300.608 156.533 298.498 157.483C296.388 158.433 294.508 159.818 292.982 161.545C292.451 157.62 290.51 154.016 287.513 151.393C284.516 148.77 280.665 147.304 276.665 147.263C273.651 147.279 270.699 148.114 268.132 149.677C265.564 151.24 263.479 153.47 262.103 156.126C260.588 154.57 258.772 153.333 256.764 152.487C254.756 151.641 252.596 151.203 250.414 151.2C246.633 151.242 242.978 152.557 240.053 154.93C237.129 157.303 235.108 160.592 234.324 164.254C231.553 162.254 228.212 161.174 224.782 161.171C220.908 161.208 217.168 162.584 214.208 165.06C211.248 167.536 209.255 170.958 208.572 174.734C206.014 173.152 203.059 172.312 200.043 172.309C197.668 172.315 195.323 172.835 193.171 173.83C191.019 174.825 189.112 176.273 187.583 178.072C186.341 175.106 184.245 172.568 181.556 170.773C178.867 168.979 175.704 168.008 172.461 167.982C171.977 167.982 171.508 167.982 171.039 167.982C171.978 165.842 172.461 163.534 172.461 161.2C172.501 156.812 170.78 152.587 167.675 149.454C164.57 146.321 160.335 144.537 155.902 144.493C152.507 144.478 149.193 145.526 146.436 147.488C145.395 145.383 143.913 143.522 142.087 142.03C140.262 140.537 138.136 139.448 135.851 138.835C138.203 135.838 139.475 132.15 139.465 128.355C139.517 123.965 137.808 119.734 134.712 116.59C131.616 113.446 127.386 111.648 122.952 111.588H122.619C123.095 109.186 123.033 106.71 122.437 104.334C121.841 101.958 120.726 99.7401 119.17 97.8373C117.614 95.9344 115.655 94.3926 113.432 93.3206C111.209 92.2486 108.775 91.6725 106.303 91.6328C105.97 91.6328 105.622 91.6328 105.29 91.6328V251.487H412.671V95.5401Z" fill="white"/>
<path d="M105.29 271.5H412.671V178.309C412.671 174.843 411.28 171.519 408.805 169.068C406.329 166.617 402.971 165.24 399.47 165.24C395.969 165.24 392.611 166.617 390.135 169.068C387.659 171.519 386.268 174.843 386.268 178.309C386.263 180.475 386.782 182.611 387.781 184.537C386.053 183.718 384.162 183.294 382.246 183.295C380.493 183.314 378.76 183.675 377.148 184.358C375.535 185.04 374.074 186.031 372.848 187.272C371.623 188.513 370.656 189.982 370.003 191.593C369.35 193.204 369.025 194.927 369.045 196.663C369.046 199.328 369.846 201.933 371.343 204.148C368.133 204.608 365.2 206.203 363.087 208.639C360.974 211.075 359.825 214.187 359.851 217.397C359.847 219.988 360.598 222.524 362.013 224.703C361.298 224.59 360.575 224.53 359.851 224.523C358.097 224.543 356.365 224.904 354.752 225.586C353.14 226.269 351.679 227.259 350.453 228.501C349.227 229.742 348.26 231.21 347.608 232.822C346.955 234.433 346.629 236.156 346.649 237.892C346.658 238.899 346.775 239.903 346.997 240.886C344.66 238.952 341.711 237.892 338.665 237.892C335.386 237.924 332.235 239.153 329.815 241.344C327.396 243.535 325.878 246.533 325.554 249.763C324.334 248.245 322.784 247.018 321.02 246.173C319.256 245.329 317.322 244.888 315.362 244.883C312.988 244.883 310.66 245.53 308.633 246.754C308.73 246.135 308.78 245.51 308.784 244.883C308.825 241.376 307.457 237.996 304.981 235.486C302.506 232.977 299.126 231.543 295.583 231.499C293.728 231.503 291.896 231.899 290.209 232.661C288.522 233.423 287.018 234.532 285.799 235.916C285.455 233.161 284.227 230.588 282.297 228.574C280.366 226.561 277.835 225.213 275.074 224.729C272.313 224.245 269.467 224.65 266.956 225.885C264.445 227.119 262.399 229.119 261.12 231.589C259.909 230.346 258.457 229.357 256.852 228.68C255.246 228.004 253.52 227.654 251.775 227.652C248.746 227.685 245.82 228.743 243.482 230.649C241.145 232.555 239.535 235.195 238.921 238.131C236.728 236.538 234.081 235.674 231.36 235.661C228.265 235.689 225.277 236.786 222.911 238.762C220.545 240.738 218.95 243.469 218.401 246.485C216.355 245.221 213.992 244.552 211.581 244.554C209.673 244.549 207.787 244.96 206.058 245.757C204.328 246.553 202.796 247.717 201.57 249.165C200.574 246.796 198.896 244.769 196.745 243.337C194.594 241.905 192.065 241.131 189.473 241.11C189.08 241.11 188.702 241.11 188.324 241.11C189.078 239.401 189.469 237.556 189.473 235.691C189.513 232.184 188.145 228.804 185.67 226.295C183.195 223.785 179.814 222.351 176.271 222.308C173.555 222.314 170.909 223.168 168.711 224.748C167.873 223.058 166.678 221.568 165.206 220.377C163.734 219.186 162.021 218.323 160.182 217.846C162.07 215.464 163.093 212.521 163.085 209.493C163.109 205.991 161.73 202.622 159.25 200.124C156.77 197.627 153.391 196.205 149.854 196.169H149.612C149.769 195.309 149.85 194.438 149.854 193.564C149.928 190.127 148.629 186.8 146.24 184.305C143.851 181.81 140.565 180.348 137.094 180.238C133.623 180.127 130.248 181.377 127.702 183.715C125.156 186.053 123.645 189.291 123.496 192.726C121.914 192.076 120.219 191.74 118.506 191.738C114.963 191.781 111.583 193.215 109.107 195.725C106.632 198.234 105.264 201.614 105.305 205.122L105.29 271.5Z" fill="white"/>
<path d="M275.779 185.054H243.821C243.821 185.054 217.935 230.216 259.767 256.652C301.665 230.216 275.779 185.054 275.779 185.054Z" fill="#EA5239"/>
<path d="M267.249 185.054H252.824C252.824 185.054 226.695 220.665 259.689 241.517C292.694 220.665 267.249 185.054 267.249 185.054Z" fill="#ED6A3D"/>
<path d="M261.464 185.054H258.158C258.158 185.054 241.562 211.038 259.822 227.704C278.06 208.67 261.464 185.054 261.464 185.054Z" fill="#F28A42"/>
<path d="M282.248 169.996H237.385C235.407 169.996 233.804 171.599 233.804 173.576V181.474C233.804 183.451 235.407 185.054 237.385 185.054H282.248C284.226 185.054 285.829 183.451 285.829 181.474V173.576C285.829 171.599 284.226 169.996 282.248 169.996Z" fill="#514193"/>
<path d="M196.435 205.377C196.435 205.377 201.537 172.386 230.046 175.691L230.861 104.324C230.861 104.324 182.803 110.151 196.435 205.377Z" fill="#514193"/>
<path d="M288.771 104.324L289.587 175.691C318.096 172.386 323.198 205.377 323.198 205.377C336.83 110.151 288.771 104.324 288.771 104.324Z" fill="#514193"/>
<path d="M259.822 0C259.822 0 220.513 36.2176 228.591 160.082H291.041C299.119 36.2176 259.822 0 259.822 0Z" fill="#507DBD"/>
<path d="M259.822 0C259.238 0.559914 258.686 1.15198 258.169 1.77343V160.082H261.475V1.77343C260.428 0.56177 259.822 0 259.822 0Z" fill="#233074"/>
<path d="M280.506 39.6543C271.238 10.5414 259.822 0 259.822 0C259.822 0 248.394 10.5414 239.126 39.6543H280.506Z" fill="#233074"/>
<path d="M259.822 123.369C273.211 123.369 284.066 112.519 284.066 99.1355C284.066 85.7519 273.211 74.9023 259.822 74.9023C246.432 74.9023 235.578 85.7519 235.578 99.1355C235.578 112.519 246.432 123.369 259.822 123.369Z" fill="#233074"/>
<path d="M259.822 117.377C269.901 117.377 278.071 109.21 278.071 99.1355C278.071 89.0613 269.901 80.8945 259.822 80.8945C249.743 80.8945 241.573 89.0613 241.573 99.1355C241.573 109.21 249.743 117.377 259.822 117.377Z" fill="#71C9E6"/>
<path d="M287.691 157.219H231.952C229.493 157.219 227.5 159.211 227.5 161.669V171.483C227.5 173.941 229.493 175.933 231.952 175.933H287.691C290.15 175.933 292.143 173.941 292.143 171.483V161.669C292.143 159.211 290.15 157.219 287.691 157.219Z" fill="#233074"/>
<path d="M263.8 201.389C263.8 202.444 263.381 203.457 262.635 204.205C261.89 204.952 260.878 205.373 259.822 205.376C258.764 205.376 257.749 204.956 257.001 204.208C256.253 203.461 255.833 202.446 255.833 201.389V134.814C255.833 133.756 256.253 132.742 257.001 131.994C257.749 131.246 258.764 130.826 259.822 130.826C260.878 130.829 261.89 131.25 262.635 131.998C263.381 132.745 263.8 133.758 263.8 134.814V201.389Z" fill="#233074"/>
<path d="M215.069 121.001C215.069 121.001 196.71 140.828 200.016 182.311" stroke="white" stroke-width="3" stroke-linecap="round" stroke-linejoin="round"/>
<path d="M304.563 121.001C304.563 121.001 322.922 140.828 319.616 182.311" stroke="white" stroke-width="3" stroke-linecap="round" stroke-linejoin="round"/>
<path opacity="0.5" d="M267.734 87.1624C270.478 90.4009 270.599 94.8069 268.021 96.9989C265.442 99.1909 261.111 98.3427 258.356 95.1153C255.601 91.8879 255.48 87.4708 258.069 85.2788C260.659 83.0868 264.979 83.935 267.734 87.1624Z" fill="white"/>
<path opacity="0.5" d="M271.602 99.0149C271.804 99.4034 271.893 99.8411 271.857 100.278C271.821 100.714 271.663 101.132 271.4 101.482C271.137 101.833 270.781 102.102 270.372 102.259C269.963 102.415 269.517 102.453 269.088 102.368C268.658 102.283 268.261 102.078 267.942 101.777C267.624 101.477 267.397 101.092 267.288 100.668C267.179 100.244 267.191 99.7972 267.325 99.38C267.458 98.9629 267.707 98.592 268.043 98.31C268.61 97.9379 269.301 97.8033 269.966 97.9351C270.632 98.067 271.219 98.4547 271.602 99.0149Z" fill="white"/>
<path d="M265.398 182.311H282.203" stroke="white" stroke-width="3" stroke-linecap="round" stroke-linejoin="round"/>
</svg>
