<svg width="18" height="18" viewBox="0 0 18 18" fill="none" xmlns="http://www.w3.org/2000/svg">
    <path d="M7.26478 17.8949C5.68787 17.5729 4.21848 16.8394 3.07165 15.8196C0.11495 13.1986 -0.807897 9.07484 0.760047 5.3983C1.14531 4.49482 1.77249 3.5824 2.54302 2.78626L3.22396 2.08852L3.26876 6.18549C3.31356 10.1125 3.32252 10.3093 3.51067 10.8013C3.88698 11.7942 4.2812 12.4204 4.9711 13.1002C6.74511 14.8625 9.34342 15.3008 11.5565 14.2184C13.6351 13.1986 14.9432 10.9713 14.7909 8.71702C14.6924 7.20526 14.1817 6.09604 13.0796 4.99576C12.2464 4.16384 11.2698 3.61818 10.2125 3.39454C9.12839 3.17091 9.18215 3.13513 9.18215 4.04755V4.83474L9.77349 4.94209C12.0672 5.36252 13.5903 7.61675 13.1154 9.88886C12.9631 10.6134 12.6227 11.2575 12.0761 11.8479C11.2429 12.7424 10.0692 13.1718 9.04775 13.1718C7.35437 13.1718 5.9477 12.2057 5.25781 10.7923C5.25781 10.7923 5.07861 10.3898 5.02486 10.1393C4.68439 8.66335 4.89942 5.56826 4.89942 5.56826L4.87254 1.03297L5.14133 0.898792C5.28469 0.818284 5.42804 0.764612 5.45492 0.764612C5.4818 0.764612 5.50868 2.84888 5.5266 5.3983C5.5266 5.3983 5.20405 8.73492 5.60724 10.0141C5.66099 10.202 5.77747 10.515 5.77747 10.515C6.1269 11.2307 6.69136 11.8658 7.42605 12.2147C7.98155 12.4741 8.26826 12.5993 9.09255 12.5993C9.63013 12.5993 10.105 12.4293 10.6605 12.1789C11.3056 11.8837 12.0492 11.0965 12.327 10.3719C13.0796 8.38605 12.0313 6.25705 9.99748 5.65772C9.16423 5.41619 9.18215 5.3983 9.18215 6.30178V7.08897L9.57638 7.19632C11.0099 7.58097 11.4489 9.50422 10.32 10.4882C9.9258 10.8371 9.56741 10.9891 8.94024 10.9891C8.26826 10.9891 7.62316 10.5866 7.29166 9.96043C7.09454 9.58472 7.07662 9.23585 7.07662 9.07484C7.07662 7.58097 7.04078 4.87947 7.04078 4.87947L7.01391 0.254727L7.21998 0.201055C7.33645 0.174219 7.7934 0.102656 8.24138 0.0489841C9.75557 -0.147813 11.9955 0.353126 13.5007 1.21188C15.5525 2.38372 17.1025 4.39642 17.7476 6.72221C17.9716 7.51835 17.9985 7.75987 17.9985 9.03906C17.9985 10.3182 17.9716 10.5598 17.7566 11.347C16.8785 14.5136 14.6386 16.7678 11.44 17.7339C10.768 17.9397 10.4544 17.9755 9.26279 18.0023C8.3041 18.0112 7.68588 17.9844 7.26478 17.8949Z" fill="#404B67"/>
</svg>
