<svg width="67" height="36" viewBox="0 0 67 36" fill="none" xmlns="http://www.w3.org/2000/svg">
<path d="M49.5848 25.8683C49.5848 32.7665 45.0845 36 35.437 36C31.1522 36 24.6846 36 19.4028 35.9731C15.7647 35.9731 12.7196 35.9731 11.3183 35.9731V33.0359C12.7196 33.0359 15.7647 33.0359 19.4028 33.0359C24.6846 33.0359 31.1522 33.0629 35.437 33.0629C45.7851 33.0629 46.6475 29.3443 46.6475 25.8683C46.6475 22.7695 46.1624 19.9132 40.2068 18.8892L39.1558 18.7006L38.9942 17.6497C38.536 14.4162 36.2993 11.1557 32.4188 11.1557C31.4486 11.1557 30.5054 11.3443 29.6162 11.7216L28.6999 12.1257L27.9993 11.3982C26.6249 9.97006 23.984 9.13473 20.9658 9.13473C16.5193 9.13473 12.8813 12.0988 12.1267 16.3293L11.8842 17.6497L10.5368 17.5419C10.3212 17.515 10.1056 17.515 9.86307 17.515C6.03641 17.515 2.93736 20.6946 2.93736 24.5748C2.93736 26.2186 3.15295 27.6198 3.55717 28.7515L0.808448 29.7754C0.269483 28.2934 0 26.5958 0 24.6018C0 19.2126 4.23088 14.7934 9.51274 14.6048C10.9679 9.61976 15.5222 6.2515 20.9658 6.2515C22.6366 6.2515 26.571 6.52096 29.3736 8.75748C30.3707 8.43413 31.3947 8.27245 32.4457 8.27245C37 8.27245 40.638 11.4251 41.7159 16.2485C48.6686 17.7575 49.5848 22.1497 49.5848 25.8683ZM58.2891 9.97006C57.1842 5.17365 53.5462 2.02096 48.992 2.02096C47.941 2.02096 46.917 2.18264 45.9199 2.50599C43.1442 0.269462 39.1828 0 37.512 0C33.9818 0 30.6671 1.48204 28.4304 4.04192L30.6402 5.98203C32.3379 4.04192 34.8441 2.93713 37.512 2.93713C40.5302 2.93713 43.1711 3.77246 44.5455 5.2006L45.2462 5.92814L46.1624 5.52395C47.0517 5.14671 47.9949 4.95808 48.992 4.95808C52.8725 4.95808 55.1092 8.21856 55.5673 11.4521L55.729 12.503L56.78 12.6916C62.7356 13.7156 63.2207 16.5719 63.2207 19.6707C63.2207 23.3084 62.3853 26.8653 52.3066 26.8653V29.7754C61.8732 29.7754 66.158 26.6497 66.158 19.6437C66.158 15.9521 65.2418 11.5599 58.2891 9.97006Z" fill="#404B67"/>
</svg>
