<svg width="184" height="36" viewBox="0 0 184 36" fill="none" xmlns="http://www.w3.org/2000/svg">
<path d="M49.5848 25.8683C49.5848 32.7665 45.0845 36 35.437 36C31.1522 36 24.6846 36 19.4028 35.9731C15.7647 35.9731 12.7196 35.9731 11.3183 35.9731V33.0359C12.7196 33.0359 15.7647 33.0359 19.4028 33.0359C24.6846 33.0359 31.1522 33.0629 35.437 33.0629C45.7851 33.0629 46.6475 29.3443 46.6475 25.8683C46.6475 22.7695 46.1624 19.9132 40.2068 18.8892L39.1558 18.7006L38.9942 17.6497C38.536 14.4162 36.2993 11.1557 32.4188 11.1557C31.4486 11.1557 30.5054 11.3443 29.6162 11.7216L28.6999 12.1257L27.9993 11.3982C26.6249 9.97006 23.984 9.13473 20.9658 9.13473C16.5193 9.13473 12.8813 12.0988 12.1267 16.3293L11.8842 17.6497L10.5368 17.5419C10.3212 17.515 10.1056 17.515 9.86307 17.515C6.03641 17.515 2.93736 20.6946 2.93736 24.5748C2.93736 26.2186 3.15295 27.6198 3.55717 28.7515L0.808448 29.7754C0.269483 28.2934 0 26.5958 0 24.6018C0 19.2126 4.23088 14.7934 9.51274 14.6048C10.9679 9.61976 15.5222 6.2515 20.9658 6.2515C22.6366 6.2515 26.571 6.52096 29.3736 8.75748C30.3707 8.43413 31.3947 8.27245 32.4457 8.27245C37 8.27245 40.638 11.4251 41.7159 16.2485C48.6686 17.7575 49.5848 22.1497 49.5848 25.8683ZM58.2891 9.97006C57.1842 5.17365 53.5462 2.02096 48.992 2.02096C47.941 2.02096 46.917 2.18264 45.9199 2.50599C43.1442 0.269462 39.1828 0 37.512 0C33.9818 0 30.6671 1.48204 28.4304 4.04192L30.6402 5.98203C32.3379 4.04192 34.8441 2.93713 37.512 2.93713C40.5302 2.93713 43.1711 3.77246 44.5455 5.2006L45.2462 5.92814L46.1624 5.52395C47.0517 5.14671 47.9949 4.95808 48.992 4.95808C52.8725 4.95808 55.1092 8.21856 55.5673 11.4521L55.729 12.503L56.78 12.6916C62.7356 13.7156 63.2207 16.5719 63.2207 19.6707C63.2207 23.3084 62.3853 26.8653 52.3066 26.8653V29.7754C61.8732 29.7754 66.158 26.6497 66.158 19.6437C66.158 15.9521 65.2418 11.5599 58.2891 9.97006Z" fill="#1F57C8"/>
<path d="M80.2227 16.6663C80.2227 10.5729 83.1093 7.68652 88.241 7.68652C91.3414 7.68652 93.3727 8.96935 94.4418 10.466C94.6557 10.7867 94.7626 11.0005 94.7626 11.3212C94.7626 12.0695 94.1211 12.7109 93.3727 12.7109C93.052 12.7109 92.6244 12.604 92.3036 12.1764C91.2345 11.0005 90.1654 10.3591 88.241 10.3591C84.8198 10.3591 83.3231 12.4971 83.3231 16.6663C83.3231 21.1563 84.8198 22.9736 88.241 22.9736C90.1654 22.9736 91.1276 22.546 92.4105 21.2632C92.8382 20.8355 93.1589 20.7286 93.4796 20.7286C94.228 20.7286 94.8695 21.3701 94.8695 22.1184C94.8695 22.4391 94.7626 22.6529 94.6557 22.8667C93.3727 24.4702 91.0207 25.6462 88.241 25.6462C83.2162 25.6462 80.2227 22.9736 80.2227 16.6663Z" fill="#404B67"/>
<path d="M100.001 8.43466V22.5458C100.001 22.8665 100.322 22.9734 100.536 22.9734C101.284 22.9734 101.819 23.5079 101.819 24.2562C101.819 25.0045 101.284 25.5391 100.536 25.5391C98.5044 25.5391 97.3284 24.3631 97.3284 22.2251V8.43466C97.3284 7.68634 97.9698 7.04492 98.7182 7.04492C99.3597 7.04492 100.001 7.57943 100.001 8.43466Z" fill="#404B67"/>
<path d="M108.34 25.6458C104.919 25.6458 102.674 23.7216 102.674 19.4455C102.674 15.2763 104.812 13.2451 108.34 13.2451C111.762 13.2451 114.007 15.1694 114.007 19.4455C114.007 23.6147 111.868 25.6458 108.34 25.6458ZM108.34 15.597C106.523 15.597 105.561 16.8798 105.561 19.4455C105.561 22.0111 106.523 23.294 108.34 23.294C110.158 23.294 111.12 22.0111 111.12 19.4455C111.227 16.8798 110.265 15.597 108.34 15.597Z" fill="#404B67"/>
<path d="M118.71 14.8492V20.7288C118.71 21.9047 119.138 23.0807 121.062 23.0807C122.987 23.0807 123.308 21.9047 123.308 20.7288V14.7423C123.308 13.994 123.949 13.3525 124.697 13.3525C125.446 13.3525 126.087 13.994 126.087 14.7423V20.7288C126.087 23.2945 125.125 25.5394 121.062 25.5394C116.893 25.5394 115.931 23.1876 115.931 20.7288V14.7423C115.931 13.994 116.572 13.3525 117.321 13.3525C118.069 13.4594 118.71 13.994 118.71 14.8492Z" fill="#404B67"/>
<path d="M135.923 14.3143V8.43466C135.923 7.68634 136.565 7.04492 137.313 7.04492C138.062 7.04492 138.703 7.68634 138.703 8.43466V20.5146C138.703 23.9355 136.458 25.646 133.357 25.646C129.936 25.646 127.905 23.7217 127.905 19.4456C127.905 15.2764 129.829 13.2453 133.144 13.2453C134.427 13.2453 135.496 13.7798 135.923 14.3143ZM135.923 16.88C135.923 16.88 134.961 15.5971 133.357 15.5971C131.647 15.5971 130.578 16.88 130.578 19.4456C130.578 22.0113 131.54 23.2941 133.357 23.2941C134.854 23.2941 135.923 22.332 135.923 20.5146V16.88Z" fill="#404B67"/>
<path d="M146.294 24.5772L140.52 9.93154C140.414 9.71773 140.414 9.61083 140.414 9.39703C140.414 8.54181 141.055 7.90039 141.91 7.90039C142.659 7.90039 143.086 8.328 143.3 8.75561L147.79 20.6218L152.281 8.75561C152.388 8.328 152.922 7.90039 153.671 7.90039C154.526 7.90039 155.167 8.54181 155.167 9.39703C155.167 9.61083 155.167 9.82464 155.06 9.93154L149.073 24.5772C148.86 25.0048 148.432 25.4324 147.684 25.4324C146.935 25.4324 146.508 25.0048 146.294 24.5772Z" fill="#404B67"/>
<path d="M159.978 18.5906V23.9358C159.978 24.791 159.337 25.4324 158.482 25.4324C157.626 25.4324 156.985 24.791 156.985 23.9358V9.39703C156.985 8.54181 157.626 7.90039 158.482 7.90039H163.4C166.393 7.90039 168.745 9.61083 168.745 13.1386C168.745 16.6664 166.393 18.3768 163.4 18.3768H159.978V18.5906ZM159.978 10.6799V15.9181H163.186C164.789 15.9181 165.752 14.956 165.752 13.3524C165.752 11.642 164.789 10.7868 163.186 10.7868H159.978V10.6799Z" fill="#404B67"/>
<path d="M177.084 10.3591C174.946 10.3591 174.198 11.3212 174.198 12.3902C174.198 15.7042 183.606 14.2076 183.606 20.6217C183.606 23.7219 181.361 25.7531 177.191 25.7531C174.091 25.7531 171.739 24.2564 170.67 22.6529C170.563 22.4391 170.456 22.2253 170.456 21.9046C170.456 21.1563 171.097 20.5148 171.846 20.5148C172.38 20.5148 172.701 20.8355 173.022 21.0493C174.091 22.1184 175.481 22.9736 177.191 22.9736C179.543 22.9736 180.612 22.2253 180.612 20.6217C180.612 16.8801 171.204 18.5906 171.204 12.3902C171.204 9.82457 173.022 7.68652 177.084 7.68652C179.65 7.68652 181.895 8.64865 182.858 10.1453C182.964 10.3591 183.071 10.6798 183.071 11.0005C183.071 11.7488 182.43 12.3902 181.681 12.3902C181.361 12.3902 180.933 12.1764 180.612 11.8557C179.864 10.8936 178.581 10.3591 177.084 10.3591Z" fill="#404B67"/>
</svg>
