<svg width="10" height="7" viewBox="0 0 10 7" fill="none" xmlns="http://www.w3.org/2000/svg">
<path fill-rule="evenodd" clip-rule="evenodd" d="M4.96136 4.4258L8.49925 1.22124C8.82492 0.926254 9.35292 0.926255 9.67859 1.22124C10.0043 1.51622 10.0043 1.99448 9.67859 2.28946L5.56785 6.0129C5.56242 6.0181 5.55689 6.02325 5.55126 6.02835C5.31905 6.23868 4.98397 6.29904 4.69271 6.20943C4.57537 6.17337 4.46512 6.11298 4.37157 6.02824C4.36763 6.02467 4.36374 6.02107 4.35989 6.01745L0.244248 2.28957C-0.0814163 1.99459 -0.081416 1.51633 0.244249 1.22134C0.569913 0.926363 1.09792 0.926363 1.42358 1.22134L4.96136 4.4258Z" fill="#404B67"/>
</svg>
