<svg width="1920" height="473" viewBox="0 0 1920 473" fill="none" xmlns="http://www.w3.org/2000/svg">
<mask id="mask0" style="mask-type:alpha" maskUnits="userSpaceOnUse" x="0" y="0" width="1920" height="473">
<rect width="1920" height="473" fill="#F0F8FF"/>
</mask>
<g mask="url(#mask0)">
<rect width="1920" height="473" fill="#F0F8FF"/>
<path d="M1740.79 -129.43C1615.01 -71.0754 1603.77 53.3664 1489.23 -9.90912C1454.8 -28.8918 1429.5 -49.9836 1396.48 -57.0142C1303.02 -76.6999 1274.91 58.2879 1189.19 46.3358C1134.38 38.6021 1051.46 16.1042 983.3 94.144C948.166 134.218 946.761 182.027 942.544 239.678C934.815 360.604 835.737 395.757 802.711 525.824C774.604 636.907 829.413 723.384 922.869 740.257C1029.68 759.24 1106.27 695.261 1222.21 639.72C1324.8 590.505 1390.86 667.139 1511.72 691.043C1595.34 707.213 1665.6 664.327 1715.49 596.13C1780.84 506.841 1787.17 428.098 1797.71 334.591C1809.65 231.241 1863.06 184.136 1905.22 132.812C2035.92 -26.7826 1876.41 -192.002 1740.79 -129.43Z" fill="#E1F4FF"/>
<path d="M163.457 -479.43C37.6774 -421.075 26.4343 -296.634 -88.1027 -359.909C-122.534 -378.892 -147.831 -399.984 -180.857 -407.014C-274.313 -426.7 -302.421 -291.712 -388.148 -303.664C-442.957 -311.398 -525.873 -333.896 -594.033 -255.856C-629.167 -215.782 -630.573 -167.973 -634.789 -110.322C-642.518 10.6042 -741.596 45.7573 -774.622 175.824C-802.73 286.907 -747.92 373.384 -654.464 390.257C-547.656 409.24 -471.064 345.261 -355.122 289.72C-252.53 240.505 -186.478 317.139 -65.6168 341.043C18.0023 357.213 88.2703 314.327 138.161 246.13C203.51 156.841 209.834 78.0981 220.374 -15.4091C232.32 -118.759 285.724 -165.864 327.885 -217.188C458.583 -376.783 299.075 -542.002 163.457 -479.43Z" fill="#E1F4FF"/>
<path d="M2082.5 227.571C1989.02 270.876 1980.66 363.225 1895.54 316.267C1869.95 302.18 1851.15 286.528 1826.6 281.311C1757.15 266.702 1736.26 366.877 1672.54 358.007C1631.81 352.268 1570.19 335.572 1519.53 393.486C1493.42 423.225 1492.37 458.704 1489.24 501.487C1483.5 591.227 1409.86 617.315 1385.32 713.838C1364.43 796.273 1405.16 860.448 1474.62 872.97C1554 887.057 1610.92 839.578 1697.09 798.36C1773.34 761.838 1822.43 818.708 1912.25 836.448C1974.4 848.448 2026.62 816.621 2063.7 766.012C2112.27 699.75 2116.97 641.315 2124.8 571.923C2133.68 495.226 2173.37 460.269 2204.7 422.182C2301.84 303.746 2183.29 181.135 2082.5 227.571Z" fill="#F8FCFF"/>
<path d="M2084.69 -159.607C1983.33 -149.743 1944.76 -66.3545 1881.08 -138.087C1862.24 -159.607 1849.69 -180.23 1828.16 -192.783C1768.06 -229.546 1716.04 -142.57 1659.53 -171.263C1623.65 -190.093 1571.63 -225.959 1505.25 -188.3C1471.17 -168.573 1458.61 -136.294 1441.57 -97.7374C1406.59 -16.1418 1329.45 -15.2452 1274.74 66.3505C1228.09 136.29 1245.14 209.815 1305.23 243.888C1375.19 283.341 1443.36 257.338 1537.54 246.578C1620.96 237.612 1647.87 306.654 1725.91 352.384C1779.72 383.766 1838.92 371.213 1890.05 336.244C1957.32 290.514 1980.64 237.612 2011.14 174.846C2044.33 105.803 2093.66 86.9736 2134.92 60.9706C2264.08 -17.0385 2194.12 -170.367 2084.69 -159.607Z" fill="#F0F8FF"/>
<path d="M1746.18 478.935C1668.4 473.81 1629.74 532.042 1590.15 470.549C1578.51 451.915 1571.52 434.678 1557.09 422.566C1516.1 387.627 1466.27 446.79 1427.14 417.907C1401.99 399.273 1367.53 366.197 1313.04 386.229C1285.09 396.478 1271.59 419.771 1253.89 446.79C1217.56 504.091 1159.34 495.24 1108.11 550.211C1064.8 597.262 1068.06 654.563 1109.51 687.638C1157.01 725.839 1211.51 714.658 1284.16 718.385C1347.97 721.646 1360.08 777.083 1412.71 821.339C1449.5 851.62 1495.61 849.756 1538.46 829.259C1594.35 802.705 1618.56 765.902 1649.3 722.578C1682.84 674.594 1721.96 666.209 1756.42 652.233C1863.54 608.443 1829.54 484.525 1746.18 478.935Z" fill="#EEEEEE"/>
<path d="M171.843 287.268C94.0648 282.143 55.4083 340.375 15.8203 278.882C4.17676 260.248 -2.8093 243.011 -17.2473 230.899C-58.2325 195.96 -108.067 255.124 -147.189 226.24C-172.339 207.606 -206.804 174.53 -261.295 194.562C-289.24 204.811 -302.746 228.104 -320.444 255.123C-356.772 312.424 -414.99 303.573 -466.221 358.544C-509.535 405.595 -506.275 462.896 -464.824 495.971C-417.319 534.172 -362.827 522.991 -290.171 526.718C-226.365 529.979 -214.256 585.416 -161.627 629.672C-124.833 659.953 -78.725 658.089 -35.8769 637.592C20.012 611.038 44.2305 574.235 74.9694 530.911C108.503 482.927 147.625 474.542 182.09 460.566C289.21 416.776 255.211 292.858 171.843 287.268Z" fill="#EEEEEE"/>
<path d="M373.588 288.706C406.774 288.706 433.676 261.797 433.676 228.603C433.676 195.409 406.774 168.5 373.588 168.5C340.402 168.5 313.5 195.409 313.5 228.603C313.5 261.797 340.402 288.706 373.588 288.706Z" fill="url(#paint0_linear)"/>
<path d="M1666.09 223.206C1699.27 223.206 1726.18 196.297 1726.18 163.103C1726.18 129.909 1699.27 103 1666.09 103C1632.9 103 1606 129.909 1606 163.103C1606 196.297 1632.9 223.206 1666.09 223.206Z" fill="url(#paint1_linear)"/>
</g>
<defs>
<linearGradient id="paint0_linear" x1="373.809" y1="275.256" x2="373.809" y2="174.66" gradientUnits="userSpaceOnUse">
<stop stop-color="#E1F1FF"/>
<stop offset="1" stop-color="white"/>
</linearGradient>
<linearGradient id="paint1_linear" x1="1666.31" y1="209.756" x2="1666.31" y2="109.16" gradientUnits="userSpaceOnUse">
<stop stop-color="#E1F1FF"/>
<stop offset="1" stop-color="white"/>
</linearGradient>
</defs>
</svg>
