<svg width="74" height="74" viewBox="0 0 74 74" fill="none" xmlns="http://www.w3.org/2000/svg">
<path d="M74 37.0004C74 57.434 57.4347 74 37.0001 74C16.5651 74 0 57.434 0 37.0004C0 16.5655 16.5653 0 37.0001 0C57.4349 0 74 16.5655 74 37.0004Z" fill="#DD4814"/>
<path d="M11.8413 32.0595C9.11175 32.0595 6.90039 34.2711 6.90039 37.0005C6.90039 39.7286 9.11175 41.94 11.8413 41.94C14.5693 41.94 16.7807 39.7286 16.7807 37.0005C16.7807 34.2711 14.5693 32.0595 11.8413 32.0595ZM47.1117 54.5115C44.7489 55.8762 43.9388 58.8958 45.3037 61.2573C46.6668 63.6201 49.6864 64.43 52.0491 63.0654C54.4117 61.7022 55.2218 58.6826 53.8572 56.3196C52.494 53.9583 49.4727 53.1484 47.1117 54.5115ZM22.5714 37.0005C22.5714 32.1187 24.9961 27.8058 28.7064 25.1941L25.0949 19.1451C20.7729 22.0342 17.5571 26.4489 16.2207 31.6194C17.7801 32.8919 18.7782 34.8289 18.7782 37.0003C18.7782 39.1703 17.7801 41.1074 16.2207 42.3799C17.5554 47.5519 20.7712 51.9668 25.0949 54.8559L28.7064 48.8054C24.9961 46.1952 22.5714 41.8825 22.5714 37.0005ZM37.0001 22.57C44.5381 22.57 50.7225 28.3496 51.3717 35.7204L58.4106 35.6167C58.0643 30.1751 55.6872 25.29 52.0346 21.6978C50.1563 22.4075 47.9867 22.2989 46.1114 21.2179C44.2329 20.1339 43.0551 18.3051 42.7331 16.32C40.9075 15.8162 38.9861 15.5403 36.9997 15.5403C33.5849 15.5403 30.3563 16.3424 27.4897 17.7613L30.9221 23.9123C32.7686 23.053 34.8286 22.57 37.0001 22.57ZM37.0001 51.4295C34.8286 51.4295 32.7686 50.9463 30.9223 50.0872L27.4899 56.238C30.3565 57.6586 33.5851 58.4609 37.0001 58.4609C38.9866 58.4609 40.9079 58.1848 42.7334 57.6795C43.0553 55.6943 44.2336 53.8674 46.1116 52.7813C47.9882 51.6986 50.1565 51.592 52.0348 52.3016C55.6874 48.7095 58.0645 43.8244 58.4109 38.3828L51.3702 38.279C50.7225 45.6518 44.5383 51.4295 37.0001 51.4295ZM47.11 19.4864C49.4727 20.8509 52.4925 20.0427 53.8556 17.6799C55.2203 15.3171 54.4121 12.2973 52.0491 10.9324C49.6864 9.56922 46.6668 10.3792 45.3017 12.742C43.9388 15.1035 44.7487 18.1233 47.11 19.4864Z" fill="white"/>
</svg>
