<svg width="74" height="74" viewBox="0 0 74 74" fill="none" xmlns="http://www.w3.org/2000/svg">
<path d="M74 37.0012C74 16.5662 57.4341 0 36.9994 0C16.5737 0 0.0144531 16.5523 0 36.9751V65.6079C0.0109844 70.2451 3.77198 73.9991 8.41201 73.9991H37.0145C57.4425 73.991 74 57.4306 74 37.0012Z" fill="#294172"/>
<path d="M47.8629 8.76074C38.2923 8.76074 30.5061 16.5466 30.5061 26.1175V35.3299H21.3319C11.7613 35.3299 3.9751 43.1164 3.9751 52.687C3.9751 62.2572 11.7613 70.0437 21.3319 70.0437C30.9024 70.0437 38.6886 62.2572 38.6886 52.687V43.4743H47.8629C57.4335 43.4743 65.2199 35.6881 65.2199 26.1175C65.2199 16.5466 57.4335 8.76074 47.8629 8.76074ZM30.5703 52.687C30.5703 57.7808 26.426 61.9251 21.3319 61.9251C16.2377 61.9251 12.0934 57.7808 12.0934 52.687C12.0934 47.5928 16.2377 43.4485 21.3319 43.4485H30.5061V43.4743H30.5703V52.687ZM47.8629 35.3559H38.6886V35.3299H38.6247V26.1175C38.6247 21.0233 42.769 16.8791 47.8629 16.8791C52.9567 16.8791 57.1013 21.0233 57.1013 26.1175C57.1013 31.2116 52.9567 35.3559 47.8629 35.3559Z" fill="#3C6EB4"/>
<path d="M51.6992 9.28677C50.3521 8.9347 49.3179 8.77051 47.863 8.77051C38.2728 8.77051 30.4976 16.546 30.4976 26.1356V35.34H23.2248C20.9571 35.34 19.1244 37.122 19.1259 39.3857C19.1259 41.6352 20.9383 43.4248 23.182 43.4248L29.2035 43.4259C29.9183 43.4259 30.4982 44.004 30.4982 44.7177V52.6823C30.4892 57.7383 26.388 61.8337 21.332 61.8337C19.6193 61.8337 19.1953 61.6094 18.026 61.6094C15.5698 61.6094 13.9265 63.2559 13.9265 65.5198C13.9271 67.3927 15.532 69.0028 17.4959 69.5167C18.8429 69.8688 19.8772 70.0333 21.332 70.0333C30.9222 70.0333 38.6974 62.2578 38.6974 52.6678V43.4638H45.9702C48.2379 43.4638 50.0706 41.6817 50.0692 39.4181C50.0692 37.1683 48.2567 35.379 46.013 35.379L39.9916 35.3778C39.2767 35.3778 38.6969 34.7994 38.6969 34.0857V26.1212C38.7058 21.0652 42.807 16.9698 47.863 16.9698C49.5757 16.9698 49.9998 17.1944 51.169 17.1944C53.6252 17.1944 55.2685 15.5476 55.2685 13.2839C55.2679 11.4108 53.6631 9.80073 51.6992 9.28677Z" fill="white"/>
</svg>
