<svg width="74" height="74" viewBox="0 0 74 74" fill="none" xmlns="http://www.w3.org/2000/svg">
<path d="M31.1709 34.2979L33.8474 36.9595L31.1709 39.6206H12.3302V48.4875L0.840332 36.9595L12.3302 25.6251V34.2979H31.1709ZM39.4526 11.6553H62.3449V34.5481H39.4526V11.6553Z" fill="#932279"/>
<path d="M39.7023 31.1714L37.0412 33.8479L34.3801 31.1714V12.3307H25.5127L37.0412 0.84082L48.3751 12.3307H39.7023V31.1714ZM39.4527 39.4531H62.3449V62.3459H39.4527V39.4531Z" fill="#EFA724"/>
<path d="M42.8296 39.7023L40.1525 37.0412L42.8296 34.3801H61.6697V25.5127L73.1601 37.0412L61.6697 48.3751V39.7023H42.8296ZM11.655 39.4527H34.5473V62.3454H11.655V39.4527Z" fill="#262577"/>
<path d="M34.2977 42.8298L36.9588 40.1528L39.6204 42.8298V61.6705H48.4873L36.9588 73.1604L25.6254 61.6705H34.2977V42.8298ZM11.655 11.6553H34.5473V34.5481H11.655V11.6553Z" fill="#9CCD2A"/>
<path d="M10.8374 10.8369H35.3651V35.3646H10.8374V10.8369ZM12.4723 33.7297H33.7297V12.4724H12.4723V33.7297ZM38.6355 10.8369H63.1632V35.3646H38.6355V10.8369ZM40.2705 33.7297H61.5278V12.4724H40.2705V33.7297ZM38.6355 38.635H63.1632V63.1633H38.6355V38.635ZM40.2705 61.5273H61.5278V40.27H40.2705V61.5273ZM10.8374 38.635H35.3651V63.1633H10.8374V38.635ZM12.4723 61.5273H33.7297V40.27H12.4723V61.5273Z" fill="white"/>
<path d="M17.3442 54.3442L0 37L17.3437 19.6563L34.6878 37L17.3442 54.3442ZM2.31269 37L17.3442 52.0315L32.3751 37L17.3437 21.969L2.31269 37ZM37 34.6878L19.6563 17.3442L37 0L54.3437 17.3442L37 34.6878ZM21.969 17.3442L37 32.3751L52.0315 17.3442L37 2.31269L21.969 17.3442ZM56.6563 54.3442L39.3127 37L56.6563 19.6563L74 37L56.6563 54.3442ZM41.6249 37L56.6563 52.0315L71.6873 37L56.6563 21.969L41.6249 37ZM37 74L19.6563 56.6563L37 39.3127L54.3437 56.6563L37 74ZM21.969 56.6563L37 71.6873L52.0315 56.6563L37 41.6254L21.969 56.6563Z" fill="white"/>
</svg>
