<svg width="74" height="74" viewBox="0 0 74 74" fill="none" xmlns="http://www.w3.org/2000/svg">
<path d="M29.8569 73.5519C23.3717 72.2279 17.3288 69.2119 12.6123 65.0189C0.452662 54.2423 -3.34262 37.2866 3.10567 22.1699C4.69011 18.4551 7.26942 14.7035 10.4383 11.4301L13.2387 8.56121L13.4229 25.4066C13.6072 41.5531 13.644 42.3623 14.4178 44.3852C15.9654 48.4678 17.5867 51.0424 20.4239 53.8377C27.7197 61.0834 38.4054 62.8857 47.5067 58.4353C56.0553 54.2423 61.4351 45.084 60.8086 35.8154C60.4033 29.5995 58.303 25.0388 53.7708 20.5148C50.344 17.0942 46.3276 14.8506 41.9796 13.9311C37.5211 13.0116 37.7422 12.8645 37.7422 16.6161V19.8528L40.1741 20.2941C49.607 22.0228 55.8711 31.2914 53.9182 40.6336C53.2918 43.6128 51.8916 46.261 49.6439 48.6885C46.2171 52.3665 41.3901 54.132 37.1895 54.132C30.2253 54.132 24.4403 50.1597 21.603 44.3484C21.603 44.3484 20.8661 42.6933 20.645 41.6635C19.2448 35.5947 20.1292 22.8687 20.1292 22.8687L20.0186 4.22114L21.124 3.66943C21.7136 3.33841 22.3032 3.11773 22.4137 3.11773C22.5242 3.11773 22.6348 11.6875 22.7085 22.1699C22.7085 22.1699 21.382 35.889 23.0401 41.1485C23.2612 41.9209 23.7402 43.2082 23.7402 43.2082C25.1772 46.1506 27.4986 48.762 30.5201 50.1965C32.8046 51.2631 33.9838 51.778 37.3737 51.778C39.5846 51.778 41.5375 51.0792 43.822 50.0494C46.475 48.8356 49.5334 45.5989 50.6756 42.6197C53.7708 34.4545 49.4597 25.7008 41.0953 23.2365C37.6685 22.2435 37.7422 22.1699 37.7422 25.8847V29.1214L39.3635 29.5627C45.2591 31.1443 47.0646 39.0521 42.4218 43.0979C40.8005 44.5323 39.3266 45.1576 36.7473 45.1576C33.9838 45.1576 31.3308 43.5025 29.9674 40.9278C29.1568 39.3831 29.0831 37.9486 29.0831 37.2866C29.0831 31.1443 28.9357 20.0367 28.9357 20.0367L28.8251 1.02125L29.6726 0.80057C30.1516 0.69023 32.0308 0.395989 33.8732 0.175307C40.1004 -0.633859 49.3123 1.42584 55.5026 4.95674C63.9407 9.77496 70.3153 18.0505 72.9683 27.6134C73.8895 30.8868 74 31.8799 74 37.1395C74 42.3991 73.8895 43.3921 73.0051 46.6288C69.3941 59.649 60.1822 68.9176 47.0277 72.8899C44.2642 73.7358 42.9745 73.883 38.0738 73.9933C34.1312 74.0301 31.5887 73.9197 29.8569 73.5519Z" fill="#C60C30"/>
</svg>
