<svg width="75" height="74" viewBox="0 0 75 74" fill="none" xmlns="http://www.w3.org/2000/svg">
<path d="M29.3418 1.51064C29.5021 1.45763 29.609 1.4046 29.6624 1.35159C32.6017 0.450262 35.5943 -0.132947 38.6939 0.02611C46.6565 0.503281 53.0693 3.84349 57.8255 10.2058C60.07 13.1748 61.4594 16.515 62.1542 20.1733C62.3679 21.1807 62.2076 22.1881 61.9939 23.1954C61.1388 28.3383 58.8409 32.6858 55.1 36.3441C54.9932 36.4502 54.8863 36.5562 54.7794 36.6092C54.726 36.6092 54.6725 36.6092 54.6191 36.6623C54.726 36.3442 54.7794 36.079 54.8863 35.7609C56.5429 30.0879 56.3826 24.5209 54.4053 18.9539C53.8709 17.4694 53.0693 16.1439 52.1074 14.8714C51.3592 13.9171 50.6645 12.9628 49.9163 12.0084C45.4808 6.33538 39.6558 2.94215 32.5482 1.82875C31.4794 1.72272 30.464 1.6697 29.3418 1.51064Z" fill="#2D5992"/>
<path d="M49.5421 25.1037C45.1065 17.31 38.6937 12.3262 29.7691 10.7356C20.898 9.14505 13.1492 11.5309 6.25537 17.31C6.36225 17.0979 6.41569 16.8858 6.52257 16.7268C10.1565 10.3115 15.5006 6.12297 22.715 4.5324C29.876 2.94183 36.6095 4.21428 42.7551 8.1907C43.2895 8.56184 43.7705 8.98599 44.198 9.51618C47.7251 13.8637 49.4352 18.8475 49.4886 24.4145C49.5955 24.6266 49.5955 24.8387 49.5421 25.1037Z" fill="#2D5992"/>
<path d="M25.0663 25.4217C17.264 29.6103 12.1872 35.9195 10.584 44.6677C8.98078 53.3628 11.439 61.0506 17.4244 67.784C17.1571 67.678 16.9968 67.6249 16.8899 67.5189C9.88926 63.7015 5.50715 57.9224 4.06426 50.0756C2.83514 43.4482 4.27803 37.298 8.07229 31.731C8.33949 31.3599 8.60669 31.0418 8.98078 30.7767C12.775 27.6486 17.1572 25.8459 22.1271 25.4217C23.089 25.3157 24.051 25.3157 25.0663 25.2627V25.4217Z" fill="#2D5992"/>
<path d="M67.9791 56.8626C66.9103 59.0894 65.5209 60.998 63.8642 62.7477C59.6424 67.0422 54.5656 69.5871 48.5268 70.2233C42.3812 70.8596 36.7699 69.4281 31.6931 65.9288C31.3725 65.7167 31.1053 65.4516 30.8915 65.1865C27.8989 61.6873 26.0819 57.6578 25.494 53.0982C25.3872 52.0908 25.3337 51.1365 25.2803 50.1291C25.2803 49.811 25.2803 49.4929 25.3872 49.1748C29.6624 56.9156 36.0218 61.8994 44.786 63.4899C53.5502 65.0805 61.2991 62.6416 67.9791 56.8626Z" fill="#2D5992"/>
<path d="M37.037 20.3856C28.4331 17.8407 20.3102 18.689 12.9888 23.7789C5.6675 28.8157 1.92668 35.9732 1.33883 44.8805C1.23195 44.6684 1.17851 44.5623 1.12507 44.4033C-3.04328 31.3076 4.75901 17.0984 18.1191 13.4401C18.6535 13.2811 19.1879 13.175 19.7223 13.016C21.1652 12.6449 22.6081 12.8569 23.9975 13.175C28.9141 14.1294 33.0824 16.3562 36.556 19.8554C36.7163 20.0145 36.8232 20.1736 37.037 20.3856Z" fill="#2D5992"/>
<path d="M44.8929 72.821C43.8775 73.086 42.8621 73.3512 41.7933 73.5632C31.1053 75.578 20.4172 70.4881 15.3404 60.9447C14.0578 58.6118 13.2028 56.1199 12.7752 53.522C12.6683 52.8327 12.7752 52.0374 12.8821 51.3482C13.6303 45.9933 15.9816 41.3806 19.8828 37.6162C19.9897 37.5102 20.15 37.4042 20.3103 37.2451C17.7452 45.7812 18.6002 53.7871 23.6771 61.1037C28.7539 68.3674 35.9683 72.0787 44.786 72.6619C44.8394 72.7149 44.8394 72.7679 44.8929 72.821Z" fill="#2D5992"/>
<path d="M49.7559 49.0153C57.5582 44.8267 62.5816 38.5175 64.1848 29.8224C65.788 21.1272 63.3297 13.4395 57.5582 6.70605C57.9322 6.86511 58.3063 7.07719 58.627 7.23625C65.307 11.2127 69.4754 16.9387 70.7579 24.5205C71.8802 31.0948 70.4907 37.139 66.643 42.653C66.4293 42.9711 66.1086 43.2892 65.788 43.5543C62.154 46.5764 57.9322 48.379 53.2295 48.9092C52.0538 49.0153 50.9315 49.0683 49.7559 49.1213C49.8093 49.1213 49.8093 49.0683 49.7559 49.0153Z" fill="#2D5992"/>
<path d="M73.6969 29.3457C74.2313 30.6712 74.552 32.1027 74.7657 33.4812C75.5139 39.3133 74.4985 44.7743 71.2921 49.8111C67.3909 55.9613 61.8331 59.7256 54.6721 61.1041C53.6568 61.3162 52.6948 61.1571 51.6795 60.9981C46.3354 60.1498 41.8465 57.7639 38.1056 53.8935C38.0522 53.8405 37.9988 53.7875 37.9453 53.6284C46.5492 56.1734 54.6187 55.325 61.94 50.2882C69.2614 45.2514 73.0022 38.1469 73.6969 29.3457Z" fill="#2D5992"/>
<path d="M47.3512 26.0058C47.2443 25.8997 47.1375 25.7937 47.0306 25.6877C45.6946 24.5212 44.2517 23.4609 42.7019 22.5595C42.4347 22.4005 42.1141 22.1354 41.9537 21.8703C39.8161 18.6892 37.0907 16.0912 33.7774 14.0765C33.6705 14.0235 33.5636 13.9174 33.4567 13.8644C33.4033 13.8644 33.4033 13.8114 33.2964 13.6523C39.7092 15.9322 44.3585 20.0146 47.3512 26.0058Z" fill="#2D5992"/>
<path d="M13.8442 41.487C14.8596 36.5562 21.7 28.8684 26.189 27.543C26.0821 27.702 25.9752 27.8081 25.9218 27.9141C24.6926 29.2396 23.6773 30.7241 22.7153 32.2617C22.555 32.5268 22.3413 32.7388 22.1275 32.8979C18.8676 35.0717 16.1956 37.8287 14.1114 41.1689C14.0046 41.2219 13.9511 41.2749 13.8442 41.487Z" fill="#2D5992"/>
<path d="M17.6382 23.7783C21.5928 21.0743 32.3343 20.4381 36.0751 22.5588C34.846 22.7179 33.6168 22.877 32.3343 23.089C31.7999 23.1951 31.212 23.3011 30.6776 23.4602C30.1432 23.6192 29.6088 23.6192 29.021 23.5132C25.387 22.8239 21.7531 22.877 18.1726 23.7253C18.0657 23.7253 17.9054 23.7253 17.6382 23.7783Z" fill="#2D5992"/>
<path d="M23.7837 56.5441C20.8444 50.553 20.4704 44.4558 22.5545 38.1465C22.6614 38.9418 22.7149 39.7901 22.8217 40.5854C22.9821 41.6988 23.2493 42.7592 23.463 43.8195C23.5165 44.1376 23.5699 44.4558 23.5165 44.7739C22.7149 48.6443 22.8217 52.5146 23.7837 56.385C23.7837 56.4381 23.7837 56.4911 23.7837 56.5441Z" fill="#2D5992"/>
<path d="M41.5795 60.3617C35.2735 58.0818 30.6242 54.0524 27.5781 48.1143C27.685 48.2203 27.8453 48.2733 27.9522 48.4324C29.2882 49.5988 30.7311 50.6062 32.2274 51.5075C32.4946 51.6665 32.7618 51.8256 32.8687 52.0907C35.0598 55.3779 37.8387 58.0288 41.2589 60.0966C41.3123 60.1496 41.4192 60.2026 41.4726 60.2556C41.5261 60.2026 41.5261 60.2556 41.5795 60.3617Z" fill="#2D5992"/>
<path d="M48.8477 46.4179C49.1149 46.0998 49.4355 45.7817 49.6493 45.4636C50.5043 44.2441 51.3593 43.0247 52.2678 41.8052C52.4282 41.5401 52.6419 41.3281 52.8557 41.169C56.0621 39.0483 58.6807 36.3973 60.7114 33.1631C60.7649 33.0571 60.8183 32.9511 60.9252 32.898C60.9252 32.845 60.9786 32.845 61.1389 32.792C58.7876 38.9952 54.7795 43.5549 48.9545 46.577C48.9545 46.4709 48.9011 46.4179 48.8477 46.4179Z" fill="#2D5992"/>
<path d="M52.4282 35.8668C52.2679 33.8521 51.9472 31.8903 51.4128 29.9286C51.3594 29.7166 51.4128 29.5045 51.4128 29.3454C51.8938 26.9065 52.1075 24.4677 51.8403 21.9758C51.7334 20.6503 51.4128 19.3248 51.199 17.9993C51.199 17.8403 51.1456 17.7343 51.199 17.5752C52.6419 20.3852 53.4435 23.4073 53.6039 26.5884C53.8711 29.7696 53.497 32.8977 52.4282 35.8668Z" fill="#2D5992"/>
<path d="M57.2375 50.2354C51.2522 53.0984 45.1065 53.4695 38.854 51.5608C38.854 51.5078 38.854 51.4548 38.854 51.4018C39.4953 51.3487 40.1366 51.2957 40.7779 51.2427C42.0604 51.0306 43.2896 50.8185 44.5187 50.5535C44.8928 50.5004 45.2134 50.4474 45.5875 50.5004C49.3818 51.2427 53.176 51.1897 56.9703 50.2884C57.0772 50.2353 57.1841 50.2354 57.2375 50.2354Z" fill="#2D5992"/>
</svg>
