<svg width="61" height="75" viewBox="0 0 61 75" fill="none" xmlns="http://www.w3.org/2000/svg">
<path d="M36.4552 39.6252C35.197 39.6425 36.6932 40.2656 38.3358 40.5152C38.7895 40.1653 39.2012 39.8112 39.568 39.4668C38.5451 39.7144 37.504 39.7199 36.4552 39.6252Z" fill="#A80030"/>
<path d="M43.2079 37.962C43.957 36.9406 44.5032 35.8223 44.6957 34.666C44.5277 35.4904 44.0747 36.202 43.6483 36.953C41.2965 38.4157 43.427 36.0844 43.6469 35.1985C41.118 38.3424 43.2996 37.0837 43.2079 37.962Z" fill="#A80030"/>
<path d="M45.7006 31.5553C45.8526 29.3174 45.2547 30.0249 45.0537 30.879C45.2883 30.9993 45.4738 32.4564 45.7006 31.5553Z" fill="#A80030"/>
<path d="M31.6843 0.967773C32.3558 1.08672 33.135 1.17801 33.0258 1.33638C33.7602 1.17732 33.9269 1.03071 31.6843 0.967773Z" fill="#A80030"/>
<path d="M33.026 1.33594L32.5513 1.43276L32.9931 1.39403L33.026 1.33594Z" fill="#A80030"/>
<path d="M53.963 32.4038C54.0379 34.4135 53.3678 35.3886 52.7636 37.1147L51.6763 37.6514C50.7864 39.3582 51.7624 38.7351 51.1253 40.0926C49.7362 41.3126 46.9097 43.9101 46.0051 44.1473C45.3449 44.1328 46.4525 43.3776 46.5975 43.0816C44.7379 44.343 45.1055 44.9751 42.2615 45.7414L42.1782 45.5588C35.1641 48.8182 25.421 42.3589 25.5491 33.5455C25.4742 34.105 25.3362 33.9653 25.1808 34.1915C24.8188 29.6569 27.3008 25.1022 31.487 23.2425C35.5814 21.2405 40.3816 22.062 43.3145 24.7619C41.7035 22.6775 38.4968 20.468 34.6964 20.6748C30.9738 20.7328 27.4913 23.0697 26.329 25.6063C24.4218 26.7924 24.2006 30.1783 23.3695 30.7979C22.2514 38.9149 25.4728 42.4218 30.922 46.547C31.7796 47.1183 31.1635 47.2047 31.2797 47.6397C29.4692 46.8022 27.8112 45.5381 26.4481 43.9903C27.1713 45.036 27.952 46.0526 28.9609 46.8513C27.2539 46.2801 24.9736 42.7655 24.3077 42.6224C27.2504 47.8265 36.2466 51.749 40.9571 49.803C38.7776 49.8825 36.0085 49.8472 33.5594 48.953C32.5309 48.4302 31.132 47.3472 31.382 47.1446C37.8107 49.5166 44.4515 48.9413 50.0142 44.5367C51.4291 43.4481 52.9751 41.5961 53.4218 41.5705C52.7489 42.5698 53.5366 42.0512 53.0199 42.9336C54.43 40.6874 52.4072 42.0193 54.4776 39.0546L55.2421 40.0947C54.9579 38.2302 57.5862 35.966 57.3195 33.0172C57.9223 32.1154 57.9923 33.9875 57.3524 36.0622C58.2401 33.7606 57.5862 33.3906 57.8144 31.4916C58.0609 32.1299 58.3844 32.8083 58.5503 33.4819C57.972 31.2578 59.144 29.7364 59.4339 28.4438C59.1482 28.3187 58.5412 29.4273 58.4026 26.8C58.4229 25.6589 58.7239 26.2018 58.8402 25.921C58.6133 25.7924 58.0182 24.9175 57.6562 23.2398C57.9188 22.8456 58.3578 24.2619 58.7148 24.32C58.4852 22.986 58.0896 21.9687 58.0735 20.9452C57.0303 18.7916 57.7045 21.2322 56.8581 20.0205C55.7476 16.5993 57.7794 19.2266 57.9167 17.672C59.5998 20.0807 60.5597 23.8138 61.0001 25.3601C60.664 23.4749 60.1207 21.6485 59.4577 19.8815C59.9688 20.0938 58.6343 16.0025 60.1221 18.7121C58.5328 12.9361 53.3202 7.53908 48.525 5.00656C49.1117 5.53699 49.8524 6.20297 49.5864 6.3074C47.2017 4.9049 47.6211 4.79563 47.2794 4.20295C45.3365 3.42217 45.2091 4.26589 43.9222 4.20434C40.2605 2.28592 39.5547 2.48994 36.1849 1.28799L36.3383 1.99547C33.9123 1.19739 33.5118 2.29837 30.8898 1.99823C30.7301 1.87513 31.7299 1.55286 32.5526 1.4346C30.2071 1.74028 30.3171 0.978167 28.022 1.51897C28.5877 1.12685 29.1856 0.867516 29.7891 0.53418C27.8764 0.64898 25.2228 1.63377 26.042 0.738193C22.9221 2.11303 17.3812 4.0432 14.2719 6.9229L14.1739 6.27766C12.7491 7.96717 7.96079 11.3234 7.57922 13.5115L7.19834 13.5993C6.45689 14.8393 5.97729 16.2446 5.38917 17.5205C4.41947 19.1526 3.96788 18.1484 4.10581 18.4043C2.19862 22.2239 1.25133 25.4334 0.432861 28.0656C1.01608 28.9266 0.446864 33.2489 0.667409 36.7081C-0.290386 53.7926 12.8065 70.3806 27.1223 74.2105C29.2206 74.9519 32.3412 74.9235 34.9954 74.9996C31.8637 74.1151 31.459 74.5307 28.4085 73.4802C26.2079 72.4567 25.7255 71.2879 24.167 69.9518L24.7838 71.0286C21.727 69.9601 23.0062 69.7063 20.5193 68.9283L21.1781 68.0784C20.1874 68.0044 18.554 66.429 18.1073 65.5569L17.0234 65.5991C15.7212 64.0119 15.0273 62.8681 15.0777 61.9822L14.7277 62.5984C14.3307 61.9255 9.9366 56.646 12.2163 57.875C11.7927 57.4925 11.2298 57.2525 10.6192 56.1571L11.0834 55.6329C9.98631 54.2387 9.06422 52.4517 9.13423 51.8562C9.71955 52.637 10.1256 52.7829 10.5275 52.9164C7.75705 46.1266 7.60162 52.5423 5.50329 46.0049L5.94718 45.9696C5.60691 45.4634 5.40037 44.9136 5.12662 44.3741L5.31986 42.4723C3.32515 40.1943 4.76184 32.7862 5.0496 28.7232C5.24914 27.0711 6.71454 25.3124 7.82917 22.5544L7.15003 22.4389C8.44809 20.2024 14.5617 13.4568 17.3931 13.804C18.7647 12.1021 17.1208 13.7978 16.8526 13.369C19.8653 10.2895 20.8126 11.1933 22.8458 10.6394C25.0387 9.35376 20.9638 11.1408 22.0036 10.1491C25.7941 9.19263 24.69 7.97477 29.6351 7.48929C30.1567 7.78252 28.4246 7.94227 27.9898 8.32263C31.1481 6.79634 37.9843 7.14351 42.4246 9.16981C47.577 11.5481 53.3657 18.5786 53.594 25.1935L53.8537 25.2626C53.7221 27.892 54.2612 30.9328 53.3272 33.726L53.963 32.4038Z" fill="#A80030"/>
<path d="M22.7226 41.3311L22.5461 42.2024C23.373 43.3117 24.029 44.5137 25.0849 45.3809C24.3252 43.9161 23.7609 43.311 22.7226 41.3311Z" fill="#A80030"/>
<path d="M24.6774 41.2545C24.2398 40.7766 23.9808 40.2012 23.6909 39.6279C23.9682 40.6355 24.536 41.5014 25.0646 42.3818L24.6774 41.2545Z" fill="#A80030"/>
<path d="M59.2671 33.8291L59.0823 34.2869C58.7434 36.6645 58.0118 39.0173 56.8901 41.1985C58.1294 38.8969 58.9311 36.3796 59.2671 33.8291Z" fill="#A80030"/>
<path d="M31.9328 0.371373C32.7835 0.0636244 34.0242 0.20263 34.9266 0C33.7504 0.0975113 32.5798 0.155603 31.4238 0.302907L31.9328 0.371373Z" fill="#A80030"/>
<path d="M2.06829 16.0576C2.26433 17.8502 0.703012 18.5459 2.41416 17.364C3.33135 15.3232 2.05569 16.8004 2.06829 16.0576Z" fill="#A80030"/>
<path d="M0.057488 24.3535C0.451668 23.1584 0.523083 22.4406 0.673613 21.749C-0.415808 23.1246 0.172311 23.4178 0.057488 24.3535Z" fill="#A80030"/>
</svg>
